<?xml version="1.0" encoding="utf-8" ?>
<svg baseProfile="full" height="300mm" version="1.1" viewBox="0,0,200,300" width="200mm" xmlns="http://www.w3.org/2000/svg" xmlns:ev="http://www.w3.org/2001/xml-events" xmlns:xlink="http://www.w3.org/1999/xlink"><defs /><rect fill="#222222" height="300" width="200" x="0" y="0" /><text fill="#FFFFFF" style="font-size:12px; font-family:Arial; font-weight:bold;" x="10" y="20">Over 5km Runs</text><text fill="#FFFFFF" style="font-size:4px; font-family:Arial" x="10" y="280">ATHLETE</text><text fill="#FFFFFF" style="font-size:9px; font-family:Arial" x="10" y="290">cvvz</text><text fill="#FFFFFF" style="font-size:4px; font-family:Arial" x="120" y="280">STATISTICS</text><text fill="#FFFFFF" style="font-size:3px; font-family:Arial" x="120" y="285">Number: 1</text><text fill="#FFFFFF" style="font-size:3px; font-family:Arial" x="120" y="290">Weekly: 1.0</text><text fill="#FFFFFF" style="font-size:3px; font-family:Arial" x="141" y="285">Total: 5.6 km</text><text fill="#FFFFFF" style="font-size:3px; font-family:Arial" x="141" y="290">Avg: 5.6 km</text><text fill="#FFFFFF" style="font-size:3px; font-family:Arial" x="167" y="285">Min: 5.6 km</text><text fill="#FFFFFF" style="font-size:3px; font-family:Arial" x="167" y="290">Max: 5.6 km</text><polyline fill="none" points="178.21888412022963,75.32775616721483 179.21213979180902,75.97376380307833 180.30472103040665,78.29938740748912 180.50337216444314,80.49580412026262 180.70202329894528,81.65861077327281 181.0,85.9222221680102 181.0,90.8318099838798 177.62293071765453,93.41579269152135 176.33169834455475,93.15739475865848 174.8418148374185,93.15739475865848 174.1465358673595,92.89899675053312 172.4580012266524,92.511399597337 171.76272225612774,92.2530014020158 161.53218884160742,91.47780636436073 158.65174739435315,91.21940786857158 157.45984058873728,91.21940786857158 155.37400367902592,91.21940786857158 153.38749233586714,90.96100929769455 152.49356223177165,90.8318099838798 150.1097486205399,90.57341130072018 149.01716738194227,90.44421193096787 146.73267933819443,90.1858131348854 145.83874923409894,90.1858131348854 144.8454935620539,89.92741426383145 141.17044757818803,89.41061629675096 138.29000613139942,89.66901531786425 135.3102391171269,89.7982148003648 134.21765787899494,89.66901531786425 133.3237277744338,89.53981581644621 131.33721643174067,89.41061629675096 130.24463519314304,89.41061629675096 128.95340282050893,89.41061629675096 127.06621704483405,89.28141675784718 126.1722869402729,89.15221720049158 125.27835683617741,88.89381802966818 123.39117106096819,88.63541878305841 122.29858982237056,88.63541878305841 119.21949724107981,89.0230176243931 118.12691600248218,88.89381802966818 117.23298589838669,88.63541878305841 115.54445125674829,88.63541878305841 113.85591661604121,88.24781977315433 111.8694052733481,87.86022059444804 109.38626609463245,87.2142215880449 108.19435928855091,86.95582185382955 107.49908031895757,86.82662195892772 104.22133660363033,86.30982219119323 103.0294297975488,86.30982219119323 102.13549969345331,86.30982219119323 99.85101164923981,86.56822211237159 98.75843041064218,86.56822211237159 96.87124463543296,86.30982219119323 96.17596566537395,86.18062220211141 94.09012875519693,86.05142219428672 90.8123850398697,85.9222221680102 89.91845493530855,85.9222221680102 87.83261802606285,86.18062220211141 86.34273451892659,86.56822211237159 85.44880441436544,86.30982219119323 84.55487431026995,86.43902216124116 83.46229307167232,86.18062220211141 81.5751072964631,86.05142219428672 80.78050275892019,86.18062220211141 78.99264255072922,85.9222221680102 75.9135499689728,85.79302212275798 73.82771305926144,85.79302212275798 72.73513182112947,85.9222221680102 70.74862047843635,85.79302212275798 69.55671367235482,85.66382205893751 66.67627222556621,85.9222221680102 65.58369098696858,85.9222221680102 64.59043531538919,85.79302212275798 62.70324954017997,85.53462197637418 60.12078479444608,86.30982219119323 60.02145922742784,89.66901531786425 59.92213365994394,92.12380227580434 60.02145922742784,93.15739475865848 60.02145922742784,94.57858246256365 60.02145922742784,96.38736352999695 60.02145922742784,97.55014941759873 60.22011036146432,98.58373559772735 60.319435928948224,100.52170645003207 60.418761495966464,101.42609140375862 60.418761495966464,103.62245103524765 60.418761495966464,104.65603016264504 60.418761495966464,106.72318481648108 60.617412630002946,109.56551462475909 60.617412630002946,110.85747971804813 60.91538933198899,114.21658018330345 60.91538933198899,114.8625595883932 60.91538933198899,116.9296905338997 61.01471489854157,117.83405881258659 61.11404046602547,118.9968166774488 61.11404046602547,120.93474307609722 61.21336603304371,121.83910728502087 61.21336603304371,124.93977759464178 61.11404046602547,125.97333196358522 61.11404046602547,126.87769105186453 58.92887798929587,130.1075374368811 57.43899448169395,129.97834380628774 54.657878602389246,129.71995648927987 52.572041692212224,129.20318163064076 51.38013488613069,129.07398786890553 49.39362354343757,128.04043710057158 47.50643776822835,127.3944672611542 46.21520539512858,127.26527323678602 42.838136112783104,126.36091454268899 41.34825260564685,124.29380550410133 39.85836909851059,123.64783294510562 37.77253218879923,122.74347057449631 36.977927651721984,122.35588642017683 35.88534641312435,121.96830209693871 32.8062538318336,120.5471581343445 31.912323727738112,120.2887680788408 31.117719190660864,120.03037794859847 29.131207847967744,119.6427926128963 27.64132434083149,118.9968166774488 26.84671980375424,118.48003559175413 26.151440833695233,118.09244958049385 25.456161863636225,117.70486340014031 23.86695278994739,116.54210384719772 22.675045983865857,117.83405881258659 22.873697118368,118.7384261720581 23.07234825240448,120.1595730232657 23.171673819888383,120.80554811423644 23.370324953924865,121.70991245418554 23.568976087961346,122.485081157065 23.96627835649997,124.16461103002075 24.264255058020353,125.97333196358522 24.562231759540737,126.87769105186453 24.76088289404288,127.91124317038339 24.95953402807936,129.20318163064076 25.0588595950976,129.84915015706792 25.257510729599744,130.75350530690048 25.356836296617985,131.52866613218794 25.654812998138368,132.94979255856015 26.151440833695233,135.40446013136534 26.74739423627034,137.21315822115866 26.94604537077248,138.11750588793075 27.04537093779072,139.02185263537103 27.442673206795007,141.0889274647925 27.64132434083149,141.86407928774133 27.83997547486797,142.76842222799314 28.038626609370112,143.41438090865267 28.435928877908736,145.2230627196259 28.435928877908736,146.12740224669687 28.73390557896346,147.9360785438912 28.83323114644736,148.58203347353265 29.131207847967744,150.3907047820976 29.429184549488127,151.42422959400574 29.72716125100851,152.58694357285276 30.124463519081473,154.26641663786722 30.323114653117955,155.17074697563658 30.422440220136195,156.07507639430696 30.621091355104,156.59183564968407 30.91906805615872,157.88373247528216 31.018393623176962,158.65886967047118 31.117719190660864,159.4340061902767 31.415695892181247,160.3383312773076 31.71367259370163,162.01778971479507 32.40895156329498,164.73075434251223 32.60760269779712,165.50588557403535 32.7069282643497,166.4102044913452 32.7069282643497,167.05614601244451 33.203556100837886,169.38153160654474 33.40220723487437,170.1566587878042 33.50153280189261,171.19016064610332 33.998160637915134,172.99878600996453 34.097486204933375,173.90309731359594 34.29613733896986,174.67822055658326 34.494788473472,175.45334312488558 34.79276517452672,177.13277304026997 34.991416309028864,177.9078934704885 35.289393010083586,179.58731875394005 35.58736971160397,180.3624370469479 35.58736971160397,181.13755466474686 35.78602084610611,181.91267160716234 36.183323114644736,183.9796468206914 36.38197424868122,184.8839469673112 36.58062538364902,185.65906064701267 36.87860208470374,186.43417365202913 37.275904352776706,187.98439763655188 37.47455548727885,188.7595086164074 37.57388105429709,189.53461892082123 37.77253218879923,190.56809827731922 38.070508889853954,192.24749967176467 38.070508889853954,193.02260693866992 38.169834457337856,193.79771353077376 38.36848559184,194.57281944795977 39.063764561899006,197.15650096320314 39.26241569593549,197.93160395498853 39.36174126295373,198.7067062719725 39.46106682997197,199.61099145532353 39.957694665994495,201.9362919938285 40.45432250155136,203.3573059986229 40.851624770089984,205.6825967495679 41.14960147161037,206.58687484526308 41.44757817266509,208.65379275736632 41.74555487418547,209.68724991357885 41.944206008687615,210.5915239410242 42.242182710208,212.0125241272617 42.44083384424448,212.7876141819288 42.54015941126272,213.69188505917555 43.136112813837826,215.37124282261357 43.33476394880563,217.17977840878302 43.53341508284211,217.95486396370688 43.53341508284211,218.8591295912629 44.030042917933315,220.53847760497592 44.824647455476224,222.47618291468825 43.73206621687859,224.4138840060332 42.937461679801345,224.543063928606 42.043531575240195,224.543063928606 41.24892703862861,224.67224383278517 39.56039239699021,224.543063928606 36.87860208470374,224.543063928606 35.88534641312435,224.543063928606 34.89209074154496,224.2847040646593 34.39546290645376,224.2847040646593 32.60760269779712,224.2847040646593 31.71367259370163,224.2847040646593 27.541998773813248,222.34700269205496 26.84671980375424,221.83028161356924 26.05211526621133,221.44274060806492 24.562231759540737,220.53847760497592 23.76762722246349,220.15093603695277 23.568976087961346,217.95486396370688 24.363580625504255,218.08404482377227 25.158185162581503,218.21322566538583 26.74739423627034,218.34240648825653 27.64132434083149,218.47158729215153 28.535254444926977,218.60076807718724 29.329858982004225,218.7299488434801 31.117719190660864,218.7299488434801 32.110974861774594,218.60076807718724 32.90557939885184,218.60076807718724 34.79276517452672,218.7299488434801 35.289393010083586,218.7299488434801 35.984671980608255,218.60076807718724 36.977927651721984,218.60076807718724 38.66646229289472,218.47158729215153 39.26241569593549,217.43814033543458 39.16309012891725,216.66305433044909 39.063764561899006,215.88796765095321 39.063764561899006,215.24206156854052 38.964438994415104,213.69188505917555 38.76578786037862,213.04597738356097 38.66646229289472,212.14170584984822 38.169834457337856,210.5915239410242 37.971183323301375,208.91215715912404 37.37522992026061,206.71605735557387 37.275904352776706,205.81177939102054 37.077253218740225,205.03668326151092 36.87860208470374,204.26158645702526 36.38197424868122,202.58220773161156 36.28264868212864,201.8071087897988 36.083997547160834,201.03200917277718 35.984671980608255,200.1277254333836 35.78602084610611,198.57752259948757 35.58736971160397,197.93160395498853 35.48804414458573,197.28568484191783 35.289393010083586,196.76894921413623 34.991416309028864,195.2187405298464 34.69343960750848,194.31445088388864 34.494788473472,193.53934474202106 34.196811771951616,191.21402226545615 33.998160637915134,190.43891342316056 33.50153280189261,188.8886937139905 33.40220723487437,187.98439763655188 33.302881667390466,187.20928598189494 33.104230533353984,186.43417365202913 32.8062538318336,184.8839469673112 32.60760269779712,184.10883261222625 32.50827713031322,183.33371758204885 32.40895156329498,182.55860187707003 32.01164929475635,181.13755466474686 31.912323727738112,180.23325071146246 31.81299816071987,179.45813230623025 31.515021459199488,178.6830132258474 31.217044757213444,177.00358623586362 30.91906805615872,176.09927808266366 30.91906805615872,175.45334312488558 30.81974248914048,174.54903339635348 30.422440220136195,172.99878600996453 30.223789086099714,172.48203628096962 30.223789086099714,171.70691112492932 30.025137952063233,171.06097297935048 29.62783568352461,169.51071951718768 29.528510116506368,168.73559177323477 29.230533415451646,167.96046335436404 29.131207847967744,167.31452248961432 28.83323114644736,165.63507404713891 28.73390557896346,164.85994292784017 28.634580011945218,164.0848111336818 28.435928877908736,163.30967866408173 28.038626609370112,161.63022266462212 27.93930104188621,160.85508805740392 27.74064990784973,160.07995277486043 27.64132434083149,159.3048168172827 27.244022072758526,157.62535326002399 26.94604537077248,156.8502151646535 26.84671980375424,156.07507639430696 26.74739423627034,155.29993694863515 26.449417534749955,153.7496560323052 26.250766400713474,152.97451456158888 26.151440833695233,152.19937241537264 25.95278969919309,151.55342011136236 25.555487431120127,149.87394192640204 25.356836296617985,149.22798793419497 25.0588595950976,148.45284252474084 24.95953402807936,147.80688750150148 24.66155732702464,146.51497604826 24.562231759540737,145.86901961819967 24.363580625504255,144.96467982849572 24.164929491002113,144.18953070609132 23.568976087961346,142.63923043577233 23.370324953924865,141.86407928774133 23.07234825240448,140.31377496640198 22.9730226858519,139.5386217928026 22.774371550884098,138.76346794416895 22.575720416847616,137.98831342032645 22.476394849829376,136.5671950400574 22.277743715327233,135.27526727027725 21.880441446322948,133.72495147079462 21.681790312286466,132.8205993406591 21.582464745268226,131.91624629189027 21.284488044213504,130.23673104820773 21.1851624767296,129.33237537340028 20.88718577567488,128.6864064715919 20.88718577567488,127.78204922116129 20.191906805615872,125.32736062369077 19.99325567111373,123.64783294510562 19.99325567111373,123.00185991707258 19.595953402575105,121.58071760484017 19.397302268538624,120.93474307609722 19.19865113403648,119.90118285542121 19.09932556655258,118.35084027337143 19.0,117.44647251971764 19.695278969593346,115.50853852485307 21.78111587977037,116.15451699239202 23.469650520943105,116.9296905338997 24.76088289404288,117.83405881258659 25.257510729599744,118.35084027337143 26.449417534749955,119.38440229481785 27.244022072758526,119.77198774350109 29.031882280949503,120.1595730232657 29.925812385044992,120.41796311590588 30.72041692165658,120.67635313374922 31.316370324697345,120.93474307609722 34.494788473472,121.96830209693871 35.68669527862221,122.485081157065 36.183323114644736,122.74347057449631 36.87860208470374,123.00185991707258 37.57388105429709,123.38944379013265 39.16309012891725,124.03541653708089 39.957694665994495,124.29380550410133 41.44757817266509,125.06897195626516 42.1428571427241,125.45655492896913 42.838136112783104,125.58574921597028 44.32801961991936,126.10252617514925 45.22194972401485,126.49010869808262 45.917228694073856,126.87769105186453 47.40711220074445,127.52366126683773 48.10239117126912,127.91124317038339 48.896995707880706,128.29882490559248 49.691600245423615,128.6864064715919 51.28080931957811,129.33237537340028 52.17473942413926,129.46156909735873 52.770692826248705,129.71995648927987 53.664622930344194,129.84915015706792 55.94911097502336,130.49511821503984 56.94236664613709,130.49511821503984 60.617412630002946,129.59076280257432 60.716738197021186,129.33237537340028 60.81606376450509,129.46156909735873 60.91538933198899,129.33237537340028 60.91538933198899,129.33237537340028 61.11404046602547,128.557212634827 61.01471489854157,127.65285525331274 61.11404046602547,127.00688513251953 61.21336603304371,125.32736062369077 61.31269160006195,124.4229999599047 61.31269160006195,123.26024918467738 61.511342734098434,121.32232784974622 61.21336603304371,119.77198774350109 61.11404046602547,118.9968166774488 61.01471489854157,118.09244958049385 60.81606376450509,116.28371262951987 60.81606376450509,115.37934277526801 60.91538933198899,114.47497200215003 60.91538933198899,113.8289923153934 60.81606376450509,112.02024669881212 60.716738197021186,111.11587251198944 60.716738197021186,110.59908684948459 60.617412630002946,109.82390779338311 60.418761495966464,108.27354765537893 60.518087062984705,107.2399727292941 60.518087062984705,106.46479074697709 60.418761495966464,105.68960808974225 60.22011036146432,102.84726590191713 60.22011036146432,102.07208009297028 60.12078479444608,101.16769579611719 60.12078479444608,100.52170645003207 60.02145922742784,98.71293378598057 59.72348252590746,97.80854607495712 59.72348252590746,96.38736352999695 59.624156958889216,95.48297345580067 59.72348252590746,94.57858246256365 59.524831391870975,93.93258833320579 59.72348252590746,92.12380227580434 59.72348252590746,91.34860712609952 59.8228080929257,90.44421193096787 59.8228080929257,88.76461841579294 61.11404046602547,87.2142215880449 62.1072961371392,87.08502173027955 63.398528510238975,87.34342142677633 64.19313304731622,87.34342142677633 64.98773758392781,87.4726212467067 65.78234212147072,87.34342142677633 67.4708767621778,87.60182104812702 68.86143470276147,87.4726212467067 69.8546903738752,87.73102083045524 70.64929491095245,87.86022059444804 72.43715511960909,88.24781977315433 73.82771305926144,88.63541878305841 74.72164316382259,88.76461841579294 75.4169221338816,88.89381802966818 76.50950337247923,89.0230176243931 78.39668914768845,89.15221720049158 79.48927038628608,89.15221720049158 80.38320049038157,89.15221720049158 81.87308399751782,89.41061629675096 86.83936235448346,89.41061629675096 87.83261802606285,89.41061629675096 88.72654813015833,89.53981581644621 91.40833844291046,90.70261065196246 92.00429184548557,90.70261065196246 92.69957081554458,90.70261065196246 93.69282648712397,90.8318099838798 98.46045370958745,91.34860712609952 99.35438381368294,91.21940786857158 100.2483139182441,90.96100929769455 101.93684855941683,90.70261065196246 102.83077866351232,90.70261065196246 103.52605763310567,90.70261065196246 105.3139178417623,90.8318099838798 107.99570815451443,90.96100929769455 108.88963825907558,91.09020859265001 109.58491722866893,91.21940786857158 110.47884733276442,91.34860712609952 111.8694052733481,91.21940786857158 112.86266094399616,91.34860712609952 113.95524218259379,91.34860712609952 115.64377682423219,91.34860712609952 116.53770692832768,91.34860712609952 117.23298589838669,91.6070055841119 118.22624156950042,91.6070055841119 119.81545064365491,91.73620478494558 120.41140404669568,91.86540396756027 121.40465971780941,91.99460313119926 122.29858982237056,91.86540396756027 124.18577559757978,91.99460313119926 124.98038013512269,92.12380227580434 126.07296137372032,91.99460313119926 127.8608215819113,92.2530014020158 130.44328632717952,92.64059866737807 131.33721643174067,92.89899675053312 133.22440220741555,93.02819576382171 134.0190067444928,93.28659373463597 135.80686695268378,93.28659373463597" stroke="#4DD2FF" stroke-linecap="round" stroke-linejoin="round" stroke-width="0.5"><title>2022-08-29 5.6km</title></polyline></svg>