<?xml version="1.0" encoding="utf-8" ?>
<svg baseProfile="full" height="300mm" version="1.1" viewBox="0,0,200,300" width="200mm" xmlns="http://www.w3.org/2000/svg" xmlns:ev="http://www.w3.org/2001/xml-events" xmlns:xlink="http://www.w3.org/1999/xlink"><defs /><rect fill="#222222" height="300" width="200" x="0" y="0" /><text fill="#FFFFFF" style="font-size:12px; font-family:Arial; font-weight:bold;" x="10" y="20">Over 5km Runs</text><text fill="#FFFFFF" style="font-size:4px; font-family:Arial" x="10" y="280">ATHLETE</text><text fill="#FFFFFF" style="font-size:9px; font-family:Arial" x="10" y="290">cvvz</text><text fill="#FFFFFF" style="font-size:4px; font-family:Arial" x="120" y="280">STATISTICS</text><text fill="#FFFFFF" style="font-size:3px; font-family:Arial" x="120" y="285">Number: 6</text><text fill="#FFFFFF" style="font-size:3px; font-family:Arial" x="120" y="290">Weekly: 3.0</text><text fill="#FFFFFF" style="font-size:3px; font-family:Arial" x="141" y="285">Total: 32.3 km</text><text fill="#FFFFFF" style="font-size:3px; font-family:Arial" x="141" y="290">Avg: 5.4 km</text><text fill="#FFFFFF" style="font-size:3px; font-family:Arial" x="167" y="285">Min: 5.1 km</text><text fill="#FFFFFF" style="font-size:3px; font-family:Arial" x="167" y="290">Max: 5.7 km</text><polyline fill="none" points="86.0,66.78789069832419 84.34210526314564,66.83190066833049 84.1729323308682,66.69987073919037 83.76691729319282,66.69987073919037 83.09022556396667,66.52383074437967 82.71804511290975,66.5678407526575 82.04135338345077,66.39180068107089 80.65413533838,66.5678407526575 80.41729323309846,66.65586075009196 79.50375939859077,66.69987073919037 78.21804511290975,66.5678407526575 77.40601503755897,66.25977056036936 76.49248120305128,66.39180068107089 75.64661654143129,66.17175044788746 74.86842105281539,66.12774038201314 74.73308270680718,66.25977056036936 74.42857142863795,66.21576050738804 73.78571428579744,65.99571014629328 73.07518796995282,65.86367985294783 71.82330827065744,65.90768995712278 69.15037593990564,65.5556089450838 68.4060150377918,65.64362923655426 67.25563909788616,65.5556089450838 66.78195488720667,65.68763937256881 66.13909774436615,65.73164950235514 64.78571428579744,65.51159878983162 64.04135338356718,65.46758862826391 62.4511278194841,65.64362923655426 61.6052631578641,65.42357846023515 61.46992481208872,65.46758862826391 60.52255639107898,65.3355581049691 59.304511278285645,65.02748666028492 58.66165413544513,65.02748666028492 57.883458646712825,64.89545594531228 57.071428571478464,64.98347642831504 56.225563909858465,64.93946619000053 55.81954887218308,65.24753772409167 54.7030075188959,65.02748666028492 53.992481203051284,65.07149688588106 53.78947368415538,65.11550710495794 53.11278195492923,65.02748666028492 52.30075187969487,65.24753772409167 50.507518796948716,64.98347642831504 49.42481203004718,65.11550710495794 48.13909774448257,64.98347642831504 47.090225564083084,64.98347642831504 46.07518797006924,64.71941490255995 45.804511278285645,64.58738405344775 45.669172932277434,64.63139434286859 45.567669173004106,65.1595173178066 45.46616541373078,65.2915479177318 45.46616541373078,65.46758862826391 45.296992481220514,65.68763937256881 44.451127819600515,65.81966974248644 43.53759398497641,65.77565962565131 43.26691729319282,65.90768995712278 43.165413533803076,66.0837303099106 43.2330827069236,67.05195042220294 43.43609022570308,67.13997027921141 43.53759398497641,68.06417723331833 43.571428571478464,68.8123427038663 43.53759398497641,69.20842955855187 43.63909774424974,70.48470590263605 43.70676691737026,70.7927718013234 43.80827067676,72.06904147539171 43.77443609025795,72.81719706207514 43.87593984964769,73.56535080238245 43.842105263262056,74.13746712263674 43.77443609025795,74.40152044472052 43.842105263262056,74.84160880371928 43.67293233086821,75.06165274378145 43.67293233086821,75.45773143321276 42.860902255633846,75.76579227834009 40.72932330821641,75.5457488494867 40.25563909788616,75.45773143321276 40.086466165375896,75.36971399147296 39.03759398497641,75.28169652397628 38.32706766924821,75.10566151267267 35.146616541198455,74.79759999673115 34.43609022558667,74.79759999673115 32.203007518779486,74.44552930942154 31.357142857043073,74.44552930942154 30.984962405986153,74.35751157367486 30.172932330868207,74.35751157367486 29.360902255633846,74.40152044472052 28.312030075117946,74.26949381243321 27.872180451173335,74.31350269625545 26.146616541431285,74.04944929748308 25.33458646608051,74.04944929748308 23.54135338345077,73.78539566867403 22.86466165422462,73.78539566867403 22.42481203004718,73.69737774130772 21.545112781925127,73.69737774130772 20.73308270680718,73.47733281110413 19.75187969917897,73.43332380594802 18.80451127816923,73.25728772120783 18.195488721714355,73.25728772120783 17.55263157899026,73.08125153422588 17.112781955045648,73.12526059051743 15.353383458568715,72.86120615681284 14.845864661619999,72.94922432681778 14.23684210528154,72.86120615681284 14.0,72.94922432681778 14.033834586385638,73.60935978847556 14.13533834577538,74.09345821320312 14.473684210563079,75.10566151267267 14.575187969952822,75.72178360525868 14.812030075117946,76.42592160662753 14.879699248122051,77.26208335888805 14.98120300762821,77.48212554192287 15.082706766901538,78.0542344705027 15.184210526174866,79.15444091398967 15.42105263157282,79.77055477816612 15.65789473685436,81.17881033741287 15.79323308262974,82.41102858565864 15.894736842019483,82.85110531764803 15.962406014907174,83.42320411425317 16.402255639084615,85.0954867140681 16.503759398590773,85.31552321164054 16.63909774424974,85.35953049187083 18.533834586385638,85.31552321164054 18.973684210446663,85.403537765902 19.37969924812205,85.403537765902 20.259398496244103,85.53555954949115 20.902255639084615,85.57956679782365 21.13909774448257,85.53555954949115 23.67669172922615,85.79960294390912 23.94736842100974,85.93162455494166 24.353383458568715,85.88761735765729 24.522556390962563,85.711588504666 24.657894736737944,85.35953049187083 24.691729323356412,85.0954867140681 24.92857142840512,84.30335400076001 24.96240601502359,84.03930930315983 25.0977443610318,83.64324182542623 25.266917293309234,83.02713583147852 25.436090225470252,82.93912058736896 25.943609022535384,82.98312821262516 26.31578947370872,82.89511295570992 26.82330827077385,82.3670208772819 27.060150375938974,82.23499771385104 27.533834586502053,82.2790054413781 28.07518796995282,82.54305167228449 28.5488721805159,82.45503628757433 28.751879699295387,82.2790054413781 28.85338345868513,82.05896674006362 28.98872180446051,81.92694344246411 29.259398496244103,82.01495898069697 29.42857142863795,82.14698223976302 30.105263157980517,82.49904398305807 30.477443609037437,82.58705935513717 30.849624060094357,82.3670208772819 31.05263157899026,82.45503628757433 31.15413533838,82.6750747015758 31.458646616665646,82.89511295570992 31.52631578943692,84.17133168075816 31.458646616665646,84.61140585751855 31.593984962324612,85.2715159249492 31.864661654108204,85.53555954949115 32.54135338345077,85.79960294390912 32.6428571427241,85.93162455494166 32.54135338345077,86.19566760450834 32.57518796995282,86.5477246462251 33.048872180399485,87.60389331856277 33.962406015140004,88.74807189463172 34.40225563920103,89.10012597229797 34.46992481208872,88.92409898454207 33.99624060140923,87.69190720844199 33.928571428521536,87.11981646704953 33.590225564083084,85.84361015397008 33.45488721807487,84.78743534930982 33.218045112793334,83.81927187941619 32.981203007511795,83.07114344398724 32.94736842100974,82.6750747015758 32.169172932277434,79.19844908863888 32.13533834600821,78.67035057063913 32.0,78.31828438106459 31.966165413381532,77.87820106910658 31.763157894834876,77.1300579723611 31.593984962324612,76.07385281039751 31.357142857043073,75.58975754800485 31.357142857043073,75.3257052609406 31.42481203004718,74.8856176045665 31.62781954894308,74.48953816774883 32.067669173004106,74.40152044472052 32.372180451173335,74.44552930942154 32.676691729342565,74.75359118313645 33.08270676701795,74.75359118313645 33.35338345868513,74.66557353682583 34.266917293309234,74.75359118313645 34.67293233086821,74.70958236325532 37.10902255633846,74.97363518696511 37.37969924823847,75.06165274378145 38.63157894730102,75.14967027495732 39.81578947370872,75.41372271542787 41.87969924812205,75.67777492594905 42.285714285913855,75.36971399147296 42.45488721807487,75.3257052609406 43.36842105258256,75.36971399147296 43.43609022570308,75.23768778078374 43.43609022570308,74.97363518696511 43.26691729319282,74.40152044472052 43.36842105258256,73.47733281110413 43.26691729319282,71.05682803684613 43.26691729319282,70.22064916873933 43.165413533803076,69.82456363688107 43.19924812030513,68.98838136979612 42.99624060152564,67.66808888368541 43.03007518791128,67.18398019802407 42.962406015140004,67.05195042220294 43.13157894753385,66.25977056036936 43.06390977441333,65.99571014629328 43.03007518791128,65.5556089450838 42.962406015140004,65.20352752416511 42.99624060152564,64.98347642831504 42.860902255633846,63.09103041069466 42.8947368421359,62.914988319942495 42.82706766924821,62.12279764705454 42.962406015140004,61.55065865122015 42.962406015140004,60.93450775576639 42.8947368421359,60.362366517074406 42.8947368421359,59.70220220758347 42.82706766924821,58.95401425214368 42.860902255633846,58.82198089177837 42.79323308262974,58.42588046588935 42.82706766924821,58.16181322760531 42.79323308262974,57.89774575931369 42.7593984962441,56.489382043568185 42.65789473685436,55.43310496254708 42.69172932335641,55.03700010824832 42.65789473685436,54.068741618597414 42.7593984962441,53.1885039441986 42.725563909858465,52.74838414826081 42.92857142863795,51.95616690555471 43.469924811972305,51.78011834822246 44.11278195504565,51.736106192925945 45.736842105397955,51.207959830673644 46.312030075117946,51.25197206257144 46.988721804576926,51.207959830673644 48.37593984953128,51.29598428827012 49.59398496255744,51.51604532042984 51.31954887218308,50.98789857479278 53.214285714318976,50.98789857479278 53.89097744366154,50.899874027702026 54.296992481220514,50.899874027702026 54.7030075188959,51.1639475923148 56.49624060152564,51.472033126832685 56.96992481208872,51.38400872031343 57.20676691737026,51.42802092680358 57.951127819600515,52.0441911459493 58.830827067722566,52.13221536055789 59.27067669166718,52.30826371355215 60.15037593990564,52.440299911104375 60.62406015035231,52.39628785158857 61.266917293309234,52.22023954990436 63.060150375938974,52.26425163491513 63.7030075188959,52.13221536055789 63.93984962417744,52.17622745846165 64.10902255645487,52.30826371355215 64.65037593990564,52.13221536055789 65.32706766924821,52.08820325645502 66.00375939859077,52.22023954990436 66.74812030082103,52.22023954990436 66.91729323309846,52.26425163491513 67.18796992476564,52.17622745846165 67.35714285715949,52.26425163491513 68.0676691730041,52.17622745846165 68.4736842106795,52.22023954990436 69.28571428579744,52.22023954990436 69.99624060152564,52.39628785158857 70.8759398496477,52.17622745846165 71.11278195492923,52.22023954990436 71.9248120301636,52.17622745846165 72.80451127828564,52.26425163491513 73.58270676701795,52.48431196413003 73.85338345868513,52.48431196413003 74.73308270680718,52.88042015416431 74.96992481208872,52.92443214339437" stroke="#4dd2ff" stroke-linecap="round" stroke-linejoin="round" stroke-width="0.5"><title>2022-09-05 5.2km</title></polyline><polyline fill="none" points="185.60470588237513,70.51445706983213 185.60470588237513,70.77154955512378 185.32235294103157,71.06536921852967 184.02352941175923,71.46937069841078 183.74117647053208,71.46937069841078 183.4305882352637,71.50609807361616 182.9223529411247,71.46937069841078 182.64000000001397,71.43264331787941 182.13176470587496,71.35918854066404 181.59529411769472,71.28573374199914 181.31294117635116,71.24900633480866 181.03058823535684,71.21227892220486 180.52235294110142,71.21227892220486 180.12705882347655,71.21227892220486 179.95764705876354,71.17555150424596 179.39294117642567,71.13882408101927 179.13882352935616,71.13882408101927 178.57411764690187,71.13882408101927 177.72705882345326,71.21227892220486 177.5011764705414,71.21227892220486 177.2470588234719,71.21227892220486 176.73882352933288,71.21227892220486 176.5129411763046,71.17555150424596 176.31529411766678,71.13882408101927 176.0894117646385,71.13882408101927 175.21411764703225,71.06536921852967 173.54823529394343,71.76318955121678 173.3505882351892,72.27737172247726 173.2658823528327,72.53446241622441 173.1811764704762,72.75482566008577 172.89882352936547,73.30573292981717 172.19294117647223,73.9300930518657 171.96705882356036,73.9300930518657 171.74117647053208,73.89336602855474 170.4141176469857,73.67300377649372 170.04705882340204,73.41591423985665 168.9176470587263,73.63627671578433 168.2399999999907,73.63627671578433 167.73176470573526,73.489368419745 167.5058823528234,73.41591423985665 167.28000000002794,73.37918714177795 166.68705882353242,73.34246003851877 166.46117647062056,73.30573292981717 165.95294117636513,73.37918714177795 165.72705882356968,73.45264133249293 165.55764705874026,73.489368419745 165.38823529402725,73.56282257853309 164.88000000000466,73.56282257853309 164.14588235295378,73.63627671578433 163.77882352937013,73.30573292981717 163.7505882352125,72.86500721002812 163.60941176465712,72.20391719069448 163.72235294117127,71.76318955121678 163.89176470576786,71.50609807361616 164.23058823519386,71.10209665252478 164.65411764697637,70.99191433464875 164.79529411764815,70.95518688479206 165.07764705875888,70.91845942949294 165.27529411762953,70.88173196895514 166.0658823529957,71.10209665252478 166.178823529277,72.05700806283858 166.0941176469205,72.20391719069448 166.03764705883805,72.35082623315975 166.009411764564,72.57118963688845 165.9247058822075,72.7915528487647 165.6705882352544,73.30573292981717 165.24705882335547,73.489368419745 165.02117647056002,73.5260955017875 164.82352941168938,73.56282257853309 164.28705882339273,73.56282257853309 163.58117647049949,73.37918714177795 163.1011764705181,73.489368419745 162.79058823513333,74.07700109190773 162.70588235277683,74.51772470015567 162.64941176469438,74.77481311708107 162.59294117649551,75.21553550957469 162.45176470582373,75.69298390176846 162.4235294117825,76.24388477296452 162.39529411762487,76.464244785544 162.36705882346723,76.75805783708347 162.28235294122715,77.30895638899528 162.1694117645966,77.71294789787498 161.80235294112936,78.26384437034721 161.74588235281408,78.41074989366462 161.6047058822587,78.85146595188417 161.54823529405985,79.0718236930843 161.491764705861,79.36563371619559 161.5199999999022,79.95325273857452 161.40705882350449,80.54087039604201 161.06823529407848,80.83467871299945 160.64470588229597,80.83467871299945 160.0799999999581,80.65104855492245 159.31764705874957,80.65104855492245 158.89411764696706,80.68777459717239 158.5835294116987,80.72450063418364 158.30117647047155,80.72450063418364 157.70823529409245,80.68777459717239 157.05882352939807,80.50414433248807 156.86117647052743,80.46741826360812 156.6635294117732,80.46741826360812 156.3529411763884,80.3939661096083 154.37647058826406,80.46741826360812 154.12235294107813,80.3939661096083 153.81176470580976,80.3939661096083 153.30352941167075,80.32051393442089 153.10588235303294,80.32051393442089 152.79529411764815,80.32051393442089 151.60941176465712,80.28378783885273 151.55294117645826,80.28378783885273 151.49647058814298,80.68777459717239 151.46823529410176,80.98158274352318 150.84705882356502,81.67937572335359 150.56470588222146,81.71610161641729 149.85882352932822,81.64264982499299 148.89882352936547,81.34884244648856 148.5882352939807,81.27539054851513 148.3341176470276,81.20193862932501 147.79764705884736,80.98158274352318 147.57176470570266,80.87140472859028 147.31764705874957,80.72450063418364 146.86588235280942,80.54087039604201 146.61176470573992,80.3939661096083 146.3576470586704,80.28378783885273 144.88941176468506,79.62271720639546 144.63529411761556,79.51253859975259 144.38117647054605,79.36563371619559 143.70352941157762,79.03509741625749 143.4211764705833,78.96164484650944 143.16705882339738,78.8881922554574 142.6023529410595,78.77801332887611 142.4329411763465,78.70456068450585 141.98117647052277,78.52092898025876 141.7552941176109,78.41074989366462 141.5858823528979,78.26384437034721 141.1623529411154,77.89658018865157 140.71058823529165,77.6762214236951 140.2588235293515,77.38240943851997 140.08941176452208,77.41913595539518 140.004705882282,77.41913595539518 139.80705882341135,77.38240943851997 138.9882352941204,76.86823764341534 138.70588235289324,76.83151104667922 138.45176470594015,76.794784444588 137.94352941168472,76.75805783708347 137.68941176461522,76.75805783708347 137.46352941170335,76.72133122425294 137.23764705879148,76.68460460621282 136.7576470588101,76.64787798281759 136.53176470589824,76.61115135406726 136.27764705882873,76.57442471990362 136.05176470580045,76.53769808050129 135.59999999997672,76.50097143568564 135.37411764706485,76.464244785544 135.14823529415298,76.464244785544 134.97882352943998,76.42751813019277 134.80941176472697,76.42751813019277 134.30117647058796,76.35406480336678 134.04705882351846,76.31733813189203 133.7647058822913,76.31733813189203 133.2564705881523,76.28061145520769 133.03058823524043,76.24388477296452 132.80470588232856,76.20715808554087 132.5788235294167,76.20715808554087 132.12705882347655,76.13370469477377 131.90117647056468,76.13370469477377 131.6752941176528,76.09697799134301 131.44941176462453,76.09697799134301 131.02588235295843,76.0235245685908 130.80000000004657,75.98679784900742 130.5741176471347,75.95007112430176 130.37647058814764,75.95007112430176 129.92470588244032,75.9133443942701 129.69882352941204,75.87661765888333 129.5011764705414,75.83989091814146 129.2752941175131,75.83989091814146 128.87999999988824,75.80316417204449 128.6541176470928,75.76643742062151 128.45647058822215,75.72971066381433 128.28705882350914,75.72971066381433 128.14588235295378,75.69298390176846 128.004705882282,75.69298390176846 127.6658823529724,75.65625713439658 127.52470588230062,75.65625713439658 127.29882352927234,75.61953036169871 127.10117647063453,75.58280358358752 126.87529411772266,75.58280358358752 126.45176470594015,75.54607680020854 126.22588235291187,75.54607680020854 126.02823529404122,75.50935001144535 125.830588235287,75.47262321732705 125.03999999992084,75.58280358358752 124.75764705881011,75.54607680020854 124.47529411758296,75.50935001144535 123.99529411760159,75.47262321732705 123.74117647053208,75.43589641797007 123.48705882357899,75.39916961328709 122.97882352932356,75.3257159878558 122.72470588225406,75.2889891671366 122.47058823518455,75.2889891671366 121.93411764700431,75.21553550957469 121.67999999993481,75.21553550957469 121.4258823528653,75.1788086729357 120.94588235288393,75.1420818309125 120.77647058817092,75.10535498347599 120.6070588233415,75.06862813080079 120.18352941179182,75.03190127265407 119.98588235292118,74.99517440923955 119.73176470573526,74.95844754058635 119.44941176474094,74.95844754058635 118.91294117656071,74.88499378727283 118.63058823521715,74.8482669024961 118.37647058814764,74.8115400125098 117.89647058816627,74.77481311708107 117.64235294121318,74.73808621632634 117.35999999998603,74.73808621632634 116.82352941157296,74.6646323989844 116.56941176450346,74.6646323989844 116.31529411755037,74.62790548230987 115.80705882352777,74.5544516328955 115.55294117634185,74.5544516328955 115.27058823534753,74.48099776211893 114.7623529410921,74.4442708187853 114.2541176470695,74.40754387012566 114.0,74.37081691602361 114.05647058819886,74.37081691602361 114.31058823526837,74.40754387012566 114.56470588233788,74.4442708187853 115.04470588231925,74.51772470015567 115.29882352927234,74.51772470015567 115.55294117634185,74.5544516328955 115.77882352925371,74.5544516328955 116.28705882350914,74.59117856022203 116.51294117642101,74.6646323989844 116.79529411764815,74.70135931030381 117.30352941167075,74.73808621632634 117.52941176469903,74.77481311708107 117.7552941176109,74.77481311708107 118.29176470579114,74.8482669024961 118.54588235286064,74.88499378727283 118.77176470577251,74.88499378727283 118.9976470588008,74.92172066660714 119.47764705866575,74.99517440923955 119.98588235292118,74.99517440923955 120.23999999999069,75.03190127265407 120.49411764694378,75.06862813080079 120.94588235288393,75.1420818309125 121.19999999995343,75.1788086729357 121.45411764702294,75.1788086729357 121.67999999993481,75.21553550957469 122.0752941176761,75.2522623410332 122.30117647047155,75.2889891671366 122.52705882361624,75.3257159878558 122.78117647056933,75.3257159878558 123.2611764704343,75.39916961328709 123.5152941175038,75.39916961328709 123.76941176468972,75.43589641797007 124.27764705882873,75.50935001144535 124.53176470578182,75.50935001144535 124.75764705881011,75.54607680020854 124.98352941172197,75.54607680020854 125.830588235287,75.43589641797007 126.08470588224009,75.47262321732705 126.3388235293096,75.47262321732705 126.84705882356502,75.58280358358752 127.10117647063453,75.58280358358752 127.35529411758762,75.58280358358752 127.83529411756899,75.65625713439658 128.06117647059727,75.69298390176846 128.28705882350914,75.69298390176846 128.512941176421,75.72971066381433 128.93647058820352,75.72971066381433 129.1623529411154,75.76643742062151 129.30352941167075,75.76643742062151 129.47294117638376,75.80316417204449 129.69882352941204,75.83989091814146 130.15058823523577,75.87661765888333 130.34823529399,75.9133443942701 130.5741176471347,75.95007112430176 130.7717647057725,75.9133443942701 131.22352941171266,75.98679784900742 131.44941176462453,76.06025128261535 131.70352941169403,76.06025128261535 131.9294117646059,76.09697799134301 132.4094117647037,76.13370469477377 132.66352941165678,76.17043139282032 132.88941176468506,76.17043139282032 133.14352941163816,76.20715808554087 133.65176470577717,76.24388477296452 134.15999999991618,76.35406480336678 134.4141176469857,76.35406480336678 134.63999999989755,76.39079146942822 135.11999999987893,76.42751813019277 135.40235294110607,76.464244785544 135.62823529401794,76.50097143568564 136.13647058804054,76.53769808050129 136.39058823522646,76.57442471990362 136.64470588229597,76.57442471990362 136.81411764700897,76.61115135406726 137.18117647059262,76.68460460621282 137.37882352934685,76.68460460621282 137.54823529405985,76.72133122425294 137.71764705877285,76.72133122425294 137.9152941176435,76.75805783708347 138.39529411762487,76.794784444588 138.64941176469438,76.83151104667922 138.87529411760624,76.86823764341534 139.835294117569,77.19877677451586 140.08941176452208,77.23550331805018 140.54117647046223,77.05187054743874 140.93647058820352,76.97841740184231 141.1905882351566,76.97841740184231 141.44470588234253,77.01514397736173 141.95294117636513,77.08859711218975 142.23529411759228,77.12532367158565 142.48941176466178,77.16205022577196 142.99764705868438,77.23550331805018 143.2517647058703,77.27222985625849 143.44941176462453,77.27222985625849 144.0141176469624,77.34568291637697 144.2682352940319,77.34568291637697 144.46588235290255,77.34568291637697 144.69176470581442,77.38240943851997 145.19999999995343,77.41913595539518 145.4258823528653,77.45586246679886 145.6799999999348,77.49258897296386 146.13176470575854,77.49258897296386 146.4141176471021,77.52931547386106 146.69647058821283,77.56604196928674 147.20470588235185,77.63949494424742 147.45882352942135,77.63949494424742 147.74117647053208,77.71294789787498 148.2494117646711,77.74967436675797 148.5035294117406,77.78640083022765 148.72941176465247,77.78640083022765 149.18117647059262,77.89658018865157 149.4352941175457,77.19877677451586 149.40705882350449,76.94169082099688 149.4917647059774,76.39079146942822 149.5199999999022,75.9133443942701 149.4917647059774,75.61953036169871 149.4917647059774,75.36244280319079 149.4917647059774,74.88499378727283 149.46352941170335,74.70135931030381 149.4352941175457,74.40754387012566 149.4352941175457,74.18718206594349 149.40705882350449,73.67300377649372 149.37882352934685,73.41591423985665 149.37882352934685,73.08537016596529 149.3505882351892,72.60791685225558 149.3505882351892,72.35082623315975 149.32235294114798,72.13046263743308 149.32235294114798,71.57955280816532 149.29411764699034,71.35918854066404 149.26588235294912,71.10209665252478 149.26588235294912,70.84500450297492 149.29411764699034,70.33081942025456 149.26588235294912,70.07372648693854 149.23764705879148,69.81663329235744 149.20941176463384,69.26571842416888 149.20941176463384,69.0453521408781 149.20941176463384,68.75153013120871 149.15294117631856,68.27406863778015 149.15294117631856,68.01697361408151 149.12470588227734,67.79660624309327 149.15294117631856,67.53951073420467 149.06823529407848,66.98859090657788 149.06823529407848,66.80495069755125 149.0964705881197,66.58458227061783 149.06823529407848,66.36421365168644 149.03999999992084,65.85001946100965 149.06823529407848,65.55619373984518 149.06823529407848,65.3358242250979 149.0117647058796,64.82162794389296 148.89882352936547,64.05033156237914 148.92705882363953,63.536132668174105 148.92705882363953,63.20557568434742 148.89882352936547,62.948475509329 148.89882352936547,62.43427437529317 148.87058823520783,62.21390214076382 148.87058823520783,61.993529714178294 148.8423529410502,61.44259780787979 148.81411764700897,61.18549584099674 148.81411764700897,60.96512251847889 148.78588235285133,60.450917352718534 148.7576470588101,60.19381437788252 148.78588235285133,59.936711141694104 148.7576470588101,59.4225038853765 148.78588235285133,59.16539986524731 148.7576470588101,58.945024782791734 148.92705882363953,58.577732552192174 148.92705882363953,58.61446179909399 148.95529411756434,58.577732552192174 149.12470588227734,58.61446179909399 149.3505882351892,58.54100329973153 149.66117647045758,58.54100329973153 150.1694117645966,58.43081551056821 150.39529411750846,58.357356957683805 150.62117647065315,58.320627673354466 151.18588235287461,58.28389838361181 151.75058823509607,58.357356957683805 152.56941176461987,58.394086236774456 153.10588235303294,58.394086236774456 153.3317647058284,58.43081551056821 153.64235294109676,58.467544778919546 154.20705882343464,58.54100329973153 154.46117647062056,58.54100329973153 155.64705882349517,58.61446179909399 155.87294117640704,58.65119104090263 156.15529411763418,58.65119104090263 156.5788235295331,58.65119104090263 157.19999999995343,58.61446179909399 157.99058823520318,58.76137873416883 158.2729411763139,58.834837169531966 158.5270588233834,58.834837169531966 159.0070588233648,58.871566379239084 159.31764705874957,58.945024782791734 159.59999999997672,58.981753976491746 160.13647058815695,58.981753976491746 160.64470588229597,59.09194152569398 161.20941176463384,59.128670698119095 161.54823529405985,59.128670698119095 161.83058823517058,59.128670698119095 162.62117647053674,59.20212902693311 162.73411764705088,59.27558733441401 162.7623529410921,59.20212902693311 162.7623529410921,59.20212902693311 163.38352941174526,59.20212902693311 163.69411764701363,59.16539986524731 164.2588235293515,59.20212902693311 164.56941176461987,59.27558733441401 164.90823529404588,59.27558733441401 165.55764705874026,59.3857747555885 166.46117647062056,59.3857747555885 166.77176470588893,59.3490456204745 167.05411764688324,59.3857747555885 167.98588235292118,59.45923300975119 168.29647058818955,59.45923300975119 168.63529411749914,59.495962128887186 169.22823529411107,59.53269124260987 169.53882352937944,59.56942035094835 169.87764705868904,59.56942035094835 170.4988235294586,59.60614945407724 170.83764705865178,59.642878551763715 171.45882352942135,59.6796076442115 171.76941176468972,59.6796076442115 172.05176470580045,59.716336731245974 172.70117647049483,59.75306581304176 172.9835294118384,59.75306581304176 173.2658823528327,59.789794889395125 173.88705882348586,59.789794889395125 174.19764705887064,59.86325302615296 174.47999999998137,59.86325302615296 175.1011764704017,59.936711141694104 175.41176470578648,59.936711141694104 175.665882352856,59.97344019141747 176.20235294103622,60.083627308602445 176.31529411766678,60.12035633705091 176.343529411708,60.15708536017337 176.343529411708,60.15708536017337 176.28705882339273,60.12035633705091 176.31529411766678,60.12035633705091 176.343529411708,60.19381437788252 176.31529411766678,60.15708536017337 176.2588235293515,60.12035633705091 176.343529411708,60.19381437788252 176.31529411766678,60.19381437788252 176.28705882339273,60.12035633705091 176.31529411766678,60.083627308602445 176.37176470586564,60.15708536017337 176.45647058822215,60.19381437788252 176.71058823517524,60.23054339035298 177.04941176460125,60.19381437788252 177.86823529412504,60.12035633705091 178.20705882343464,60.12035633705091 178.8282352940878,60.19381437788252 179.19529411755502,60.19381437788252 179.5058823529398,60.23054339035298 180.15529411763418,60.26727239738102 180.46588235290255,60.26727239738102 180.77647058817092,60.26727239738102 181.48235294106416,60.340730395546416 181.79294117633253,60.340730395546416 182.44235294114333,60.4141883723496 182.78117647056933,60.450917352718534 183.0917647058377,60.48764632779057 183.74117647053208,60.52437529756571 184.0799999999581,60.52437529756571 184.39058823522646,60.56110426195664 185.0117647057632,60.597833220963366 185.32235294103157,60.597833220963366 185.68941176473163,60.63456217478961 186.0,60.63456217478961" stroke="#4dd2ff" stroke-linecap="round" stroke-linejoin="round" stroke-width="0.5"><title>2022-09-03 5.7km</title></polyline><polyline fill="none" points="80.8170365926344,145.50613870981033 80.73065386922099,145.50613870981033 80.60107978410088,145.50613870981033 79.99640071974136,145.50613870981033 79.65086982608773,145.50613870981033 79.39172165561467,145.50613870981033 79.00299940002151,145.50613870981033 78.26874625077471,145.4499567928724 77.92321535688825,145.4499567928724 77.66406718664803,145.4499567928724 77.36172765423544,145.50613870981033 76.62747450522147,145.4499567928724 76.41151769645512,145.39377486766898 76.06598680256866,145.39377486766898 75.76364727062173,145.39377486766898 75.11577684478834,145.33759293425828 74.77024595090188,145.28141099287313 74.51109778066166,145.2252290431352 74.1655668867752,145.2252290431352 73.73365326947533,145.16904708536458 73.04259148193523,145.16904708536458 72.65386922634207,145.16904708536458 71.70365926809609,144.94431917261682 71.35812837420963,144.88813717395533 69.24175164964981,144.55104501126334 68.89622075576335,144.38249881984666 68.50749850040302,144.27013465136406 67.85962807456963,144.2139525548555 67.47090581897646,144.15777045031427 67.03899220167659,144.15777045031427 66.13197360513732,144.10158833756577 66.13197360513732,144.10158833756577 65.74325134977698,145.5623206186283 65.74325134977698,146.3488664860488 65.82963407319039,147.19159242708702 65.78644271148369,147.416319034528 65.65686862613074,148.31522416020744 65.57048590271734,149.21412719751243 65.52729454101063,149.7197592384182 65.44091181759723,150.1130281467631 65.39772045612335,151.124289218802 65.35452909418382,152.30409046265413 65.35452909418382,152.80971846618922 65.35452909418382,153.14680343482178 65.26814637077041,153.98951457158546 65.26814637077041,154.38277914069477 65.26814637077041,154.88840442805667 65.18176364712417,155.67493133962853 64.96580683859065,156.3490959914925 64.79304139176384,156.7985384403146 64.62027594493702,157.47270113471313 64.44751049787737,158.03450248297304 63.84283143375069,158.82102300031693 63.62687462498434,159.27046257810434 63.45410917815752,159.49518217131845 63.23815236939117,161.23675459387596 61.9856028794311,161.63001179829007 61.20815836824477,161.4614730454341 59.17816436709836,161.40529344472452 58.40071985591203,161.40529344472452 58.0983803239651,161.34911383601138 57.66646670666523,161.29293421903276 56.80263947206549,161.1805749607156 56.41391721647233,161.1805749607156 55.55008998210542,161.12439531940618 55.16136772651225,161.06821566994768 54.47030593897216,161.12439531940618 53.995200959732756,161.1805749607156 53.17456508707255,161.06821566994768 52.656268746359274,161.06821566994768 52.353929214179516,160.955856346176 51.576484703226015,160.84349699001177 50.75584883010015,160.84349699001177 50.32393521303311,160.84349699001177 50.064787042560056,160.84349699001177 48.12117576482706,160.84349699001177 45.356928614433855,161.23675459387596 45.31373725272715,161.5738322220568 45.31373725272715,161.96708908377332 44.709058188367635,162.52888390733278 44.23395320936106,162.4727044616302 43.75884823035449,162.41652500786586 42.981403719168156,162.13562761654612 42.59268146380782,161.96708908377332 41.858428314561024,161.5738322220568 41.46970605896786,161.40529344472452 41.16736652655527,161.1805749607156 39.74205158976838,160.56259845686145 37.88482303544879,159.83226131639094 37.45290941814892,159.66372178058373 36.80503899231553,159.27046257810434 36.200359928188846,158.93338294359273 35.854829034302384,158.82102300031693 35.46610677870922,158.7648430163099 34.64547090581618,158.4839429743297 34.343131373869255,158.42776294154464 34.0839832033962,158.3715829004941 33.43611277732998,158.14686265474302 33.17696460708976,157.92214227860677 32.831433713203296,157.64124162492226 32.57228554296307,157.41652095509926 32.01079784054309,157.0232594689587 31.708458308363333,156.91089897110942 31.36292741447687,156.74235816282453 31.190161967650056,156.5738172813144 29.678464307216927,156.96707922418136 29.16016796650365,157.52888130629435 28.901019796030596,157.64124162492226 28.555488902376965,157.75360191086656 27.51889622071758,158.20304272833164 26.827834433177486,158.20304272833164 25.79124175175093,158.14686265474302 25.143371325917542,158.09068257303443 24.79784043179825,158.20304272833164 24.45230953814462,158.25922279374208 24.14997000596486,158.25922279374208 23.674865027191117,158.31540285120718 23.28614277159795,158.82102300031693 23.50209958013147,159.3828223910532 22.983803239418194,160.11316037963843 22.595080983825028,160.1693401678931 22.29274145164527,160.1693401678931 21.51529694069177,160.2255199479987 21.126574685098603,160.2255199479987 20.43551289755851,160.2816997198097 20.046790641965345,160.2816997198097 19.701259748078883,160.33787948364625 19.01019796053879,160.50641872582491 18.664667066652328,160.67495789472014 18.3623275347054,160.73113760133856 18.01679664081894,160.84349699001177 17.455308938398957,161.29293421903276 17.15296940645203,161.4614730454341 16.807438512332737,161.74237092593103 16.245950809912756,162.0794481136836 15.943611277732998,162.30416607577354 15.425314937252551,162.80978101323126 15.338932213606313,163.0906779152283 15.166166766779497,163.42775392858312 15.036592681659386,163.6524711076636 14.907018596306443,163.93336739798542 14.64787042606622,164.3828010384168 14.345530893886462,164.663696798787 14.0,165.39402482108562 14.302339532412589,165.7310988281679 14.86382723459974,166.0681725414761 15.598080384079367,166.0681725414761 16.029994001379237,166.1243514654343 16.764247150858864,165.95581466978183 17.109778044512495,165.7872778008459 17.36892621475272,165.61874085848103 18.3623275347054,165.5625618614431 18.664667066652328,165.4502038427163 19.1397720456589,165.3378457914514 19.44211157783866,165.28166675346438 20.176364727085456,165.05695052054944 20.478704259032384,164.9445923550811 20.86742651462555,164.88841326005058 21.774445111164823,164.9445923550811 22.033593281405047,165.00077144196257 22.50869826041162,165.22548770756111 22.595080983825028,165.61874085848103 22.50869826041162,165.84345676525845 22.37912417529151,166.1243514654343 22.206358728231862,166.40524596141768 22.07678464311175,166.74231908770162 21.817636472871527,167.36028572331998 21.688062387518585,167.69735801775823 21.558488302631304,168.1467872870271 21.51529694069177,168.37150172577822 21.256148770218715,169.10182275087573 21.212957408744842,169.49507196279592 21.126574685098603,169.7759640123695 21.040191961685196,170.16921253921464 22.07678464311175,171.62984642627998 22.37912417529151,171.5736683018331 23.15656868647784,171.51749016912072 23.415716856718063,171.51749016912072 24.14997000596486,171.74220265084296 24.409118176437914,171.7983807507262 24.711457708617672,171.91073692648206 25.056988602271304,172.02309306926327 25.66166766639799,172.1354491796519 25.964007198577747,172.1354491796519 26.2231553690508,172.1354491796519 26.95740851853043,172.19162722266628 27.30293941218406,172.3039832841023 27.73485302971676,172.41633931273827 28.469106178730726,172.5286953090981 28.857828434323892,172.58487329486525 29.203359328443184,172.6410512725124 29.50569886015728,172.69722924206872 30.758248350350186,172.24780525735696 30.931013797177002,171.9669150019763 31.190161967650056,171.29277755698422 30.67186562716961,170.45010409958195 30.36952609475702,170.28156918787863 29.764847030630335,169.04564425937133 29.80803839233704,168.70857313941815 29.894421115750447,168.37150172577822 29.93761247745715,167.69735801775823 29.59208158380352,167.02321313531138 29.37612477503717,166.7984979134344 27.778044391190633,166.6299614116724 27.475704859010875,166.46142483621952 26.482303539523855,166.51760370278498 25.834433113457635,166.74231908770162 25.186562687391415,166.6299614116724 24.79784043179825,166.46142483621952 24.063587282551453,166.40524596141768 23.761247750371695,166.6299614116724 23.50209958013147,166.85467673119274 22.37912417529151,166.74231908770162 22.551889622118324,166.34906707858318 22.638272345531732,166.0681725414761 22.811037792591378,165.7872778008459 23.15656868647784,165.16930865342147 23.761247750371695,164.32662186198286 24.02039592084475,163.59629182508797 24.14997000596486,162.92213979855296 24.02039592084475,162.19180711120134 23.847630474017933,161.79855047768797 23.71805638866499,161.40529344472452 23.58848230354488,160.67495789472014 23.58848230354488,160.2816997198097 23.58848230354488,159.94462096635834 23.631673665484414,159.6075419189874 22.335932813351974,158.5963030155399 21.94721055799164,158.5963030155399 21.558488302631304,158.65248302402324 20.86742651462555,158.82102300031693 20.521895620971918,158.87720297605847 20.133173365378752,158.93338294359273 19.78764247149229,158.98956290300703 18.751049790065736,158.5963030155399 18.664667066652328,158.42776294154464 18.491901619825512,157.75360191086656 18.44871025811881,157.41652095509926 18.405518896179274,157.0794397057034 18.535092981299385,156.4614566526143 18.751049790065736,156.12437457146007 18.923815237125382,155.7872921967064 19.44211157783866,155.6187508990115 19.744451109785587,155.6187508990115 20.089982003439218,155.56257045009988 20.43551289755851,155.6187508990115 21.126574685098603,155.67493133962853 21.51529694069177,155.7311117722129 21.817636472871527,155.7872921967064 22.07678464311175,155.843472612818 22.811037792591378,155.843472612818 23.113377324538305,155.89965302080964 23.50209958013147,155.955833420594 23.8044391120784,156.012013812433 24.625074985204265,156.12437457146007 25.618476304924116,156.18055493885186 26.00719856028445,156.23673529786174 26.352729454170913,156.23673529786174 26.65506898611784,156.29291564869345 26.87102579488419,156.29291564869345 27.64847030583769,156.29291564869345 27.95080983825028,156.23673529786174 28.339532093610615,156.23673529786174 28.685062987264246,156.29291564869345 29.332933413330466,156.3490959914925 29.764847030630335,156.3490959914925 30.02399520110339,156.4052763262298 31.535692861536518,156.23673529786174 31.751649670070037,156.29291564869345 32.18356328736991,156.3490959914925 33.00419916026294,156.4052763262298 33.30653869220987,156.4614566526143 33.695260947803035,156.4614566526143 34.0407918416895,156.51763697102433 34.81823635287583,156.5738172813144 35.16376724652946,156.62999758325168 35.552489502122626,156.68617787706899 36.24355128989555,156.62999758325168 36.632273545488715,156.62999758325168 37.75524895032868,156.7985384403146 37.9712057588622,156.7985384403146 38.18716256762855,156.854718709772 39.65566886635497,157.0794397057034 40.04439112171531,157.13561993441544 40.346730653895065,157.19180015477468 40.73545290948823,157.24798036715947 41.51289742044173,157.30416057136608 41.9016196760349,157.3603407673363 42.29034193162806,157.41652095509926 42.635872825747356,157.47270113471313 43.37012597476132,157.52888130629435 43.75884823035449,157.52888130629435 44.10437912447378,157.58506146958098 45.18416316737421,157.24798036715947 45.0977804439608,156.51763697102433 45.140971805667505,155.39402905470342 45.140971805667505,155.05694604374003 45.140971805667505,154.6636821597931 45.0977804439608,154.27041787613416 45.0977804439608,153.25916502563632 45.0977804439608,153.0344418110617 45.140971805667505,152.69735674458207 45.0545890822541,151.85464279397274 45.0977804439608,151.62991876376327 45.0977804439608,151.23665139699006 45.01139772054739,150.95574589032913 44.925014997133985,150.16920938686235 44.925014997133985,149.77594053559005 44.88182363519445,149.43885263058473 44.925014997133985,149.10176443203818 44.79544091178104,148.25904265107238 44.75224955007434,147.92195342475316 44.79544091178104,147.47250066616107 44.709058188367635,146.96686568891164 44.66586682666093,146.06795743122348 44.66586682666093,145.78704817249672 44.66586682666093,145.5623206186283 44.62267546495423,145.05668314549257 44.57948410324752,145.16904708536458 44.57948410324752,144.663409098197 44.57948410324752,144.38249881984666 44.57948410324752,144.15777045031427 44.57948410324752,143.98922408759245 44.57948410324752,143.70831331965746 44.53629274154082,143.48358455870766 44.57948410324752,142.97794436913682 44.57948410324752,142.69703286708682 44.57948410324752,142.4161211613682 44.53629274154082,142.13520925145713 44.53629274154082,141.7981146904931 44.44991001789458,141.2362897696148 44.493101379834116,141.01155957300216 44.44991001789458,140.6744640332181 44.40671865618788,140.3373681998055 44.3203359330073,139.77554115804378 44.3203359330073,139.49462733138353 44.3203359330073,139.15753046999453 44.3203359330073,138.93279906600947 44.3203359330073,138.59570171541418 44.23395320936106,138.03387214482063 44.277144571067765,137.75295705374447 44.23395320936106,137.47204175867955 44.19076184765436,137.13494313534466 44.23395320936106,136.9102105566708 44.19076184765436,136.34837853905628 44.19076184765436,136.06746222428046 44.147570485947654,135.73036237730412 44.147570485947654,135.44944561389275 44.147570485947654,135.16852864637622 44.19076184765436,134.94379492575536 44.147570485947654,134.4381435769028 44.147570485947654,134.10104231053265 44.10437912447378,133.8201243642543 44.061187762534246,133.59538986033294 44.01799640059471,133.14592046110192 44.01799640059471,132.8650018212793 44.01799640059471,132.64026676278445 44.01799640059471,132.3593477559043 44.01799640059471,132.19079625391169 44.01799640059471,131.85369302966865 44.061187762534246,131.29185367003083 44.061187762534246,131.06711769770482 44.01799640059471,130.73001349452534 43.97480503888801,130.44909310084768 43.931613677414134,130.11198835936375 43.8884223154746,129.55014647051576 43.8884223154746,129.21304094581865 43.845230954000726,128.98830376626574 43.845230954000726,128.70738210796844 43.80203959206119,128.37027584892348 43.80203959206119,128.37027584892348 43.75884823035449,128.25790703072562 43.75884823035449,127.97698484221473 44.709058188367635,127.69606244988972 45.140971805667505,127.63987794681452 46.004799040267244,127.47132438921835 46.39352129586041,127.47132438921835 47.17096580681391,127.30277075790218 47.94841031776741,127.30277075790218 48.33713257336058,127.35895530990092 48.68266346747987,127.35895530990092 49.46010797843337,127.47132438921835 49.848830234026536,127.47132438921835 50.19436112768017,127.52750891662436 50.496700660092756,127.52750891662436 51.61967606493272,127.69606244988972 52.39712057588622,127.80843143136008 53.217756449012086,127.80843143136008 53.47690461901948,127.80843143136008 53.77924415119924,127.80843143136008 54.12477504485287,127.86461590990075 55.20455908798613,127.75224694478675 55.938812237698585,127.86461590990075 56.32753449305892,127.92080038014683 56.716256748652086,128.03316929616267 58.27114577079192,128.14553817984415 58.61667666467838,128.14553817984415 58.96220755856484,128.14553817984415 59.39412117586471,128.20172260931577 59.9988002399914,128.14553817984415 60.38752249535173,128.20172260931577 60.64667066605762,128.25790703072562 61.68326334748417,128.42646024585702 61.9856028794311,128.42646024585702 62.24475104967132,128.48264463469968 62.719856028677896,128.53882901521865 63.45410917815752,128.59501338764676 63.799640072043985,128.59501338764676 64.10197960399091,128.53882901521865 64.23155368934385,128.48264463469968 65.00899820053019,128.6511977519258 65.78644271148369,128.70738210796844 66.26154769072309,128.76356645586202 67.9028194360435,128.6511977519258 68.29154169163667,128.70738210796844 68.72345530893654,128.70738210796844 69.45770845818333,128.81975079569384 69.8896220754832,128.87593512740568 70.79664067202248,128.87593512740568 71.27174565102905,128.87593512740568 72.09238152368926,128.93211945085204 72.39472105586901,128.93211945085204 72.78344331122935,128.98830376626574 73.47450509900227,129.04448807338485 73.7768446309492,129.10067237226758 74.12237552506849,129.04448807338485 74.51109778066166,129.04448807338485 75.6772645469755,129.10067237226758 76.10917816427536,129.15685666320496 76.54109178157523,129.15685666320496 77.83683263347484,129.26922522042878 78.1823635273613,129.32540948671522 78.57108578295447,129.4377779949864 79.34853029390797,129.3815937449981 80.21235752850771,129.4377779949864 80.55788842239417,129.4377779949864 80.90341931628063,129.4939622368547 82.112777444534,129.4377779949864 83.19256148766726,129.71869912286638 83.79724055179395,129.71869912286638 84.27234553103335,129.83106751684682 85.82723455294035,130.28054076683475 86.0,130.78619754881947 85.87042591464706,130.95474966260372 85.78404319123365,131.6289573838294 85.69766046805307,132.0222446785774 85.61127774440683,132.4155315735843 85.61127774440683,132.69645053960267 85.43851229758002,133.48302255946328 85.35212957416661,133.93249156727688 85.13617276540026,134.66287759135594 85.04979004198685,135.0561618024949 84.92021595686674,135.39326223675744 84.83383323345333,135.67417904103058 84.61787642468698,136.51692823003395 84.57468506298028,136.8540273916442 84.40191961592063,137.35967558357515 84.22915416932665,138.14623812420177 84.0995800839737,138.53951879494707 83.9700059988536,138.98898192928755 83.79724055179395,139.6631756518036" stroke="#4dd2ff" stroke-linecap="round" stroke-linejoin="round" stroke-width="0.5"><title>2022-09-01 5.1km</title></polyline><polyline fill="none" points="186.0,147.20386838549166 185.7591973245144,147.20386838549166 185.17439082660712,147.15912161191227 184.8647873867303,147.15912161191227 183.8671763021266,147.15912161191227 183.52317247970495,147.1143748316681 183.14476827532053,147.0696280450793 182.49116101302207,147.0696280450793 182.18155757291242,146.98013445208198 181.52795031061396,146.93538764599361 181.32154801732395,146.98013445208198 180.66794075479265,146.93538764599361 180.66794075479265,146.98013445208198 180.18633540370502,146.8458940143173 179.39512661262415,146.8458940143173 179.0167224080069,146.8458940143173 178.70711896801367,146.8458940143173 177.74390826572198,146.7116535178211 176.9182990923291,146.57741296294262 176.67749641661067,146.57741296294262 176.43669374112505,146.53266609835555 176.23029144783504,146.4879192271328 175.78308647871017,146.44317234959453 175.43908265663777,146.3984254654206 175.16387959884014,146.3536785748438 174.78547539422289,146.57741296294262 174.26946966093965,147.83032253474812 174.16626851423644,148.1882957626076 174.0974677496124,148.5015219960478 173.75346392742358,149.3964523372415 173.34065934084356,150.42561901707086 173.27185857633594,150.78358923067572 173.09985666512512,151.14155902835773 172.9278547539143,151.58902069090982 172.8246536074439,152.30495799978962 172.75585284281988,152.66292603043257 172.65265169611666,152.97614771634107 172.58385093172546,153.55784428844345 172.44624940294307,154.00530244305264 172.37744863843545,154.13953976272023 172.30864787404425,154.45275994797703 172.23984710953664,154.8107254842471 171.8270425228402,155.57140086829895 171.03583373164292,156.6005469293159 171.0014333493309,156.82427387911594 170.8982322026277,157.13749133600504 170.65742952714209,157.71918005440966 170.55422838032246,158.07714179708273 170.45102723373566,158.39035798070836 170.27902532240842,158.92729926950415 170.17582417593803,159.2405145893281 169.21261347364634,160.13541374917259 168.9030100335367,160.13541374917259 168.66220735793468,160.13541374917259 168.35260391782504,160.13541374917259 167.38939321553335,160.09066885281936 167.11419015785214,160.0459239500924 166.9421882465249,160.0011790408753 166.66698518872727,160.0011790408753 166.18537983752321,159.91168920282507 165.8069756331388,159.82219933878514 165.56617295765318,159.82219933878514 165.05016722425353,159.86694427399198 164.25895843293983,159.82219933878514 163.91495461051818,159.77745439705905 162.9173435261473,159.82219933878514 162.22933588165324,159.77745439705905 161.9885332059348,159.77745439705905 161.7133301482536,159.7327094487555 161.0941232680343,159.68796449404908 160.47491638804786,159.5984745650785 160.16531294805463,159.5089846101182 159.54610606795177,159.46423962284462 158.65169613005128,159.5089846101182 158.37649307225365,159.5089846101182 158.066889632144,159.46423962284462 157.86048733873758,159.41949462916818 157.20688007655554,159.3747496290307 157.0004777831491,159.33000462219934 156.82847587193828,159.3747496290307 156.41567128535826,159.33000462219934 155.9340659341542,159.2405145893281 155.1084567606449,159.2405145893281 154.8676540851593,159.19576956317178 154.42044911615085,159.1510245304089 153.80124223604798,159.1062794912723 153.45723841385916,159.1510245304089 153.18203535606153,159.1062794912723 152.63162924034987,159.01678939338308 152.25322503584903,158.9720443347178 152.0468227424426,158.92729926950415 151.46201624476817,158.88255419777124 151.22121356916614,158.88255419777124 150.67080745345447,158.8378091196646 149.9139990444528,158.8378091196646 149.29479216446634,158.74831894398085 148.9163879599655,158.70357384625822 148.33158146194182,158.70357384625822 148.22838031535503,158.70357384625822 147.8499761108542,158.65882874201634 147.67797419975977,158.61408363145893 147.09316770196892,158.65882874201634 146.71476349746808,158.61408363145893 146.40516005735844,158.65882874201634 145.64835164835677,158.61408363145893 144.37553750607185,158.47984826055472 143.8595317726722,159.2405145893281 143.8939321549842,159.55372959075612 143.34352603915613,160.09066885281936 142.99952221708372,159.9564341251389 142.72431915905327,159.86694427399198 142.38031533686444,159.68796449404908 142.13951266126242,159.5984745650785 141.52030578127597,159.28525960893603 141.21070234116632,159.1510245304089 140.9010989011731,159.06153444561642 140.38509316765703,158.8378091196646 140.14429049217142,158.70357384625822 139.8690874343738,158.56933851423673 139.59388437657617,158.43510312394938 139.24988055427093,158.25612251236453 138.90587673184928,158.1218869856093 138.0458671762608,157.7639252949739 137.7706641185796,157.62968955383985 137.32345914957114,157.36121789604658 136.73865265178028,157.13749133600504 136.11944577167742,156.91376461353502 135.53463927388657,156.77952850208385 134.9498327759793,156.6005469293159 134.70903010037728,156.5110561037145 134.26182513148524,156.15309254237218 133.9866220735712,155.97411060568993 133.50501672248356,155.66089196651592 133.19541328249034,155.48190974420868 132.67940754909068,155.07919936353574 131.64739608229138,154.58699707285268 131.33779264229815,154.54225137116737 130.9937888198765,154.49750566278817 130.13377926428802,154.3632684989425 129.82417582417838,154.3185227647191 129.58337314857636,154.27377702400554 128.9297658862779,154.18428552290425 128.58576206397265,154.22903127671452 128.27615862409584,154.22903127671452 127.76015289057977,154.09479399604606 127.55375059717335,154.00530244305264 126.9001433349913,153.87106506479904 126.62494027719367,153.87106506479904 126.31533683720045,153.87106506479904 125.73053033929318,153.82631925921305 125.42092689918354,153.7815734469914 125.11132345919032,153.7815734469914 124.56091734359507,153.6920818031067 124.28571428579744,153.6920818031067 123.9417104634922,153.6920818031067 123.59770664130338,153.64733597147278 123.08170090790372,153.51309843728086 122.73769708548207,153.46835257968633 122.49689440988004,153.46835257968633 122.18729097000323,153.42360671545612 121.63688485429157,153.37886084482307 121.39608217868954,153.33411496772896 121.22408026771154,153.28936908385367 120.88007644528989,153.28936908385367 120.39847109408583,153.24462319375016 120.08886765420903,153.1998772971274 119.81366459629498,153.1998772971274 119.60726230288856,153.15513139401446 119.0224558050977,153.06563956820173 118.67845198279247,153.02089364553103 118.47204968950246,153.02089364553103 118.16244624939281,153.02089364553103 117.57763975160196,152.93140178071917 117.33683707588352,152.88665583863622 117.0272336358903,152.8419098900631 116.78643096040469,152.8419098900631 116.27042522688862,152.79716393488343 115.995222169091,152.7524179732718 115.68561872909777,152.79716393488343 115.47921643569134,152.70767200514092 114.13760152889881,153.28936908385367 114.0,153.82631925921305 114.0344003821956,154.09479399604606 114.06880076450761,154.40801422676304 114.24080267560203,154.98970809640014 114.27520305791404,155.16869060482713 114.37840420450084,155.75038303888869 114.41280458669644,156.10834706801688 114.48160535108764,156.28732892658445 114.55040611571167,156.82427387911594 114.65360726241488,157.45070847467287 114.68800764461048,157.71918005440966 114.72240802680608,157.98765140029718 114.79120879119728,158.21137734333752 114.86000955570489,158.39035798070836 114.99761108448729,158.9720443347178 114.99761108448729,159.19576956317178 115.1008122311905,159.55372959075612 115.1008122311905,159.91168920282507 115.23841376020573,160.49337268562522 115.23841376020573,160.7618416150799 115.34161490690894,161.1197998240532 115.47921643569134,161.70148102688836 115.47921643569134,162.01469352759887 115.54801720019896,162.28316113201436 115.58241758251097,162.4621394049318 115.75441949360538,162.95432911990792 115.8920210225042,163.5807512566971 115.96082178677898,163.80447313998593 116.02962255151942,164.07293918548385 116.09842331579421,164.34140499710338 116.20162446249742,164.78884749682038 116.27042522688862,165.14680102901184 116.33922599151265,165.46001002864796 116.40802675590385,165.68373054784024 116.54562828468625,166.26540313774603 116.85523172479589,166.80233070804388 117.23363592929672,167.07079414234613 117.85284280939959,167.16028190185898 118.0936454848852,167.24976963544032 118.33444816048723,167.29451349235023 118.78165312949568,167.29451349235023 119.09125656960532,167.24976963544032 119.40086000948213,167.2050257718074 119.64166268520057,167.16028190185898 120.22646918299142,167.02605025289813 120.50167224078905,166.98130635701818 120.74247491639107,166.93656245438615 121.08647873869631,166.89181854538037 121.56808408978395,166.93656245438615 121.8088867655024,166.98130635701818 122.01528905890882,166.98130635701818 122.29049211670645,167.02605025289813 122.8752986144973,167.02605025289813 123.15050167229492,167.07079414234613 123.39130434778053,167.1155380253913 123.66650740569457,167.1155380253913 124.18251313909423,167.24976963544032 124.38891543226782,167.29451349235023 124.69851887237746,167.33925734291552 125.24892498820554,167.29451349235023 125.52412804588675,167.24976963544032 126.074534161482,167.16028190185898 126.62494027719367,167.16028190185898 126.9001433349913,167.2050257718074 127.14094601059332,167.33925734291552 127.45054945070297,167.4287450245174 128.0353559483774,167.60772030969383 128.27615862409584,167.60772030969383 128.55136168177705,167.65246411468252 128.82656473957468,167.65246411468252 129.65217391308397,167.74195170533494 129.9273769708816,167.83143926988123 130.20258002867922,167.92092680867063 130.61538461549208,167.96567056822823 130.8905876731733,168.0551580679603 131.1657907309709,168.0551580679603 131.44099378888495,168.0551580679603 132.23220257996581,167.87618304265197 132.61060678458307,167.4287450245174 132.78260869567748,166.84707462997176 132.81700907787308,166.31014713758486 132.8858098423807,165.99693900183775 132.9202102245763,165.7284746321384 132.78260869567748,164.92308012017747 132.71380793105345,164.6546148151101 132.64500716666225,164.3861492763681 132.61060678458307,164.16242781525943 132.54180602007546,163.5807512566971 132.47300525568426,163.26754034744226 132.47300525568426,162.95432911990792 132.47300525568426,162.68586210007197 132.40420449117664,162.23841654745047 132.30100334458984,161.96994890406495 132.16340181557462,161.70148102688836 131.8537983755814,161.3435234935023 131.64739608229138,161.38826820784016 131.44099378888495,161.38826820784016 131.0281892021885,161.29877877261606 130.8217869087821,160.94082077153143 130.75298614427447,160.67235199792776 130.6841853799997,160.40388299050392 130.61538461549208,160.09066885281936 130.47778308659326,159.5984745650785 130.40898232208565,159.33000462219934 130.61538461549208,158.56933851423673 131.0625895842677,157.94290619227104 130.8905876731733,157.7639252949739 130.6841853799997,157.54019902733853 130.44338270439766,156.82427387911594 130.8905876731733,156.19783801032463 131.13139034889173,156.10834706801688 131.54419493558817,155.75038303888869 131.64739608229138,155.48190974420868 131.9225991399726,155.07919936353574 132.61060678458307,155.16869060482713 132.71380793105345,155.34767300906242 132.8858098423807,155.43716417238466 133.1266125178663,155.48190974420868 133.6082178693032,155.79512856525253 133.81462016236037,155.92936510537402 134.0554228380788,156.15309254237218 134.70903010037728,156.6005469293159 134.9842331581749,156.69003772869473 135.22503583377693,156.77952850208385 135.50023889157455,156.86901924951235 135.94744386035018,157.13749133600504 136.11944577167742,157.31647259707097 136.56665074056946,157.58494429377606 137.0138557094615,157.7639252949739 137.25465838517994,157.7639252949739 137.49546106066555,157.7639252949739 137.7706641185796,157.7639252949739 138.63067367416807,158.03239660192048 138.8370759675745,158.07714179708273 139.11227902537212,158.21137734333752 139.31868131866213,158.300867675076 139.49068322975654,158.39035798070836 140.0066889631562,158.65882874201634 140.21309125656262,158.74831894398085 140.45389393216465,158.8378091196646 140.69469660776667,158.9720443347178 141.1763019588543,159.1510245304089 141.41710463457275,159.2405145893281 141.69230769237038,159.3747496290307 142.10511227918323,159.5984745650785 142.68991877697408,159.86694427399198 142.9307214524597,159.91168920282507 143.24032489245292,160.0011790408753 143.48112756805494,160.09066885281936 143.8595317726722,160.13541374917259 144.1003344480414,159.64321953288163 144.1003344480414,159.3747496290307 144.13473483046982,158.88255419777124 144.06593406607863,158.39035798070836 144.06593406607863,158.07714179708273 143.9627329193754,157.36121789604658 143.997133301571,156.6005469293159 143.997133301571,156.42156525247265 143.997133301571,156.15309254237218 144.0315336837666,155.97411060568993 143.9283325370634,155.30292741776793 143.9283325370634,154.9449624530971 143.8939321549842,154.63174276807695 143.9283325370634,154.09479399604606 143.9283325370634,153.87106506479904 143.9283325370634,153.60259013311588 143.997133301571,153.11038548435317 143.9283325370634,152.52868806768674 143.9283325370634,152.2154659270891 143.8939321549842,151.90224346818286 143.9283325370634,151.6337668215274 143.82513139036018,150.96257418152527 143.65312947926577,150.24663375434466 143.61872909707017,150.0229020298866 143.65312947926577,149.84391653342755 143.58432871487457,149.6201845165051 143.58432871487457,149.3517058818543 143.54992833256256,148.8594944443903 143.54992833256256,148.1882957626076 143.58432871487457,147.83032253474812 143.51552795036696,147.69608246721327 143.54992833256256,147.42760215641465 143.48112756805494,146.98013445208198 143.61872909707017,146.44317234959453 143.68752986146137,146.30893167780596 143.58432871487457,145.19025713851443 143.51552795036696,144.92177464489941 143.54992833256256,144.47430330250063 143.51552795036696,144.25056738770218 143.54992833256256,143.98208407545462 143.54992833256256,143.62410596210975 143.51552795036696,142.99764326313743 143.58432871487457,142.10269434127258 143.48112756805494,141.29723808952258 143.44672718585934,140.98400453431532 143.44672718585934,140.67077066074125 143.37792642146815,140.08904976514168 143.34352603915613,139.7758149819856 143.27472527476493,139.14934446054394 143.27472527476493,138.97035264907754 143.24032489245292,138.43337659095414 143.24032489245292,138.0753920324205 143.27472527476493,137.80690334059182 143.20592451049015,137.09093235243927 143.20592451049015,136.9119393453584 143.20592451049015,136.28546300236485 143.17152412817813,136.01697275118204 143.24032489245292,135.65898538584588 143.20592451049015,135.39049458884983 143.1371237457497,134.49552357642096 143.10272336367052,134.18228310806444 143.10272336367052,133.8690423212538 143.06832298147492,133.55580121616367 143.06832298147492,133.0188157237135 143.06832298147492,132.70557375441422 142.9307214524597,132.3475825425412 143.20592451049015,132.3028336118441 143.54992833256256,132.21333573089214 143.75633062596899,132.16858678057906 144.06593406607863,132.16858678057906 144.68514094606508,132.12383782377583 144.96034400397912,132.07908886074438 145.30434782605153,132.03433989098994 145.54515050176997,131.9448419320397 146.16435738164,131.9448419320397 146.47396082174964,131.9448419320397 146.74916387966368,131.9448419320397 146.9899665552657,131.98959091477445 147.54037267074455,132.03433989098994 148.46918299095705,132.12383782377583 148.67558528436348,132.16858678057906 150.22360248456243,132.3475825425412 151.35881509783212,132.25808467456955 152.70043000485748,132.52657820048626 152.9068322981475,132.57132709867437 153.11323459155392,132.66082487569656 153.35403726715595,132.75032262669993 154.04204491165,132.70557375441422 154.45484949834645,132.61607599045965 154.6612517918693,132.57132709867437 155.45246058306657,132.48182929572067 155.9340659341542,132.61607599045965 156.79407548974268,133.0635645505099 157.0692785475403,132.9293180507666 157.65408504544757,132.83982035174267 157.75728619203437,132.97406689051422 158.27329192555044,132.97406689051422 159.27090301015414,132.75032262669993 159.58050645014737,132.75032262669993 159.9245102723362,132.83982035174267 160.54371715255547,132.9293180507666 161.19732441473752,132.8845692044997 161.54132823704276,132.8845692044997 161.885332059348,132.83982035174267 161.9885332059348,132.8845692044997 162.50453893945087,132.8845692044997 162.8141423794441,132.9293180507666 163.60535117064137,133.10831337087438 163.8117534640478,133.10831337087438 164.22455805062782,133.1530621846032 164.8093645485351,133.1530621846032 165.46297181083355,133.1530621846032 165.8069756331388,133.10831337087438 166.35738174873404,133.1530621846032 166.9077878644457,133.1530621846032 168.11180124233942,133.1530621846032 168.73100812232587,133.1530621846032 169.31581462011673,133.1530621846032 169.52221691352315,133.24255979273585 169.8662207358284,133.33205737479148 170.14142379374243,133.3768061560113 170.31342570472043,133.4663036990969 171.17343526054174,133.4663036990969 171.41423793602735,133.51105246093357 171.75824175821617,133.4663036990969 171.9646440516226,133.55580121616367 172.54945054941345,133.64529870721162 173.13425704743713,133.6900474432041 174.61347348301206,133.8690423212538 175.12947921652813,133.8690423212538 175.43908265663777,133.8690423212538 175.67988533212338,133.8242936115712 176.53989488771185,134.04803709560656 176.9182990923291,134.09278577301302 177.57190635462757,134.36127770040184 177.77830864791758,134.67451798680122 177.64070711890236,134.94300940757967 177.57190635462757,135.25624910273473 177.46870520792436,135.52474001661176 177.29670329682995,136.01697275118204 177.09030100342352,136.86719107741374 176.9870998567203,136.95668760690023 176.9182990923291,137.4041698644578 176.74629718111828,137.8963995971717 176.53989488771185,138.79136073373957 176.81509794550948,139.4178319828352 176.9182990923291,139.8205628275755 177.12470138561912,140.49177973289625 177.26230291451793,140.67077066074125 177.33110367902555,140.80501378836925 178.08791208802722,141.61047132636304 178.6727185859345,141.11824752553366 178.6727185859345,140.93925685767317 179.0511227903189,140.4470319847169 179.29192546603736,140.31278870115057 180.0487338748062,139.55207565621822 180.18633540370502,139.46257988043362" stroke="#4dd2ff" stroke-linecap="round" stroke-linejoin="round" stroke-width="0.5"><title>2022-08-31 5.5km</title></polyline><polyline fill="none" points="78.35592168522999,212.9909648358298 78.06804430740885,212.9909648358298 77.78016693005338,213.04445912878145 76.50528140109964,212.8839762263524 76.17627868405543,212.83048191008857 75.76502528740093,212.77698758608312 74.94251849455759,212.72349325410323 73.33863024832681,212.72349325410323 73.0096275312826,212.72349325410323 72.5161234557163,212.72349325410323 71.69361666264012,212.6165045669477 71.40573928505182,212.6165045669477 70.95336054894142,212.56301021188847 68.85596822714433,212.4025270996499 68.36246415157802,212.34903271327494 67.29320532060228,212.18854950813693 67.00532794324681,212.08156066571246 66.79970124480315,212.02806623280048 66.2650718295481,211.9210773438681 65.89494377258234,211.9210773438681 65.64819173468277,211.9210773438681 62.810543299186975,211.43962695877417 61.28890573256649,211.60011049039895 60.91877767583355,211.5466159877251 60.548649618867785,211.4931214771641 60.17852156213485,211.4931214771641 59.39714010874741,211.38613243281725 59.02701205201447,211.38613243281725 58.61575865535997,211.33263789891498 57.916627881349996,211.33263789891498 57.505374484928325,211.33263789891498 57.094121088506654,211.2791433573584 56.312739635352045,211.2256488080311 55.901486238930374,211.2256488080311 55.53135818219744,211.2256488080311 54.996728766709566,211.1721542510495 54.708851389354095,211.1721542510495 54.21534731355496,211.11865968606435 53.84521925658919,211.01167053281097 53.68071789806709,211.06516511330847 53.104963143123314,210.90468134879484 52.28245635004714,210.8511867451598 51.83007761393674,210.8511867451598 50.71969344350509,211.01167053281097 49.814935971284285,210.95817594471737 49.07467985781841,210.8511867451598 48.78680248023011,210.90468134879484 48.41667442349717,210.90468134879484 46.64828481874429,211.01167053281097 46.44265812053345,212.08156066571246 46.360407441388816,212.77698758608312 46.31928210146725,213.20494196147774 46.27815676201135,213.57940163221792 46.237031422322616,214.11434335884405 46.19590608263388,214.38181393110426 46.15478074317798,214.86326047146576 46.15478074317798,215.0772365098819 46.03140472411178,216.41458393388893 46.03140472411178,216.78904034273 45.90802870527841,217.64493927688454 45.90802870527841,218.07288799830712 45.86690336558968,218.5543297160184 45.78465268644504,218.7683036106464 45.78465268644504,219.67769127734937 45.825778025900945,220.10563763792743 45.825778025900945,220.373103860853 45.74352734652348,221.65693902838393 45.49677530885674,222.9942625713593 45.00327123282477,223.85014709175448 44.879895213991404,224.27808860639925 44.8387698745355,224.5990444161289 44.67426851578057,225.2944477116107 44.633143176091835,225.7758799935691 44.59201783663593,226.25731164647732 44.55089249671437,226.4712810680794 44.098513760836795,227.27366529239225 43.440508326515555,227.38064972357824 43.27600696776062,227.43414192766068 42.98812959040515,227.43414192766068 42.57687619398348,227.43414192766068 41.0963639668189,227.22017306517228 40.643985230708495,227.27366529239225 39.985979796154425,227.27366529239225 39.65697707911022,227.27366529239225 39.204598342999816,227.27366529239225 38.505467569222674,227.22017306517228 37.14833136089146,227.05969633665518 36.77820330392569,227.05969633665518 36.44920058664866,227.00620407843962 35.66781913349405,226.8992195384344 35.338816416449845,226.95271181239514 34.96868835971691,226.95271181239514 34.59856030275114,226.8992195384344 34.022805547807366,226.84572725690668 33.81717884959653,226.84572725690668 33.52930147200823,226.79223496755003 33.32367477379739,226.79223496755003 33.03579739620909,226.73874267030624 32.295541282743216,226.73874267030624 31.96653856569901,226.68525036540814 31.719786527799442,226.68525036540814 30.033647602191195,227.05969633665518 29.869146243669093,227.43414192766068 29.663519545225427,227.80858713798807 29.375642167869955,228.1830319678411 27.771753921872005,229.09239639891894 27.73062858218327,229.46683992425096 27.73062858218327,229.7342993520724 27.73062858218327,230.1087422251003 27.771753921872005,230.75064340775134 27.85400460101664,231.07159357977798 28.141881978372112,232.08793394680833 28.183007318293676,232.6763402466022 28.22413265774958,232.94379734472022 28.22413265774958,233.26474560657516 28.26525799743831,233.6926761874056 28.22413265774958,233.90664129151264 28.22413265774958,234.60202702163951 28.26525799743831,234.8694827221916 28.26525799743831,235.13693822865025 28.306383337127045,235.56486663516262 28.347508676815778,236.20675831331755 28.347508676815778,236.5811946092581 28.347508676815778,237.27657529193675 28.38863401627168,237.97195466252742 28.470884695649147,238.23940791731002 28.470884695649147,238.5603515667317 28.553135375026613,238.88129493661108 28.594260714482516,239.57667127880268 28.553135375026613,239.89761376348906 28.553135375026613,240.21855596866226 28.594260714482516,240.59298818797106 28.63538605417125,241.2348711072991 28.676511394092813,241.5558121476788 28.676511394092813,241.93024300821708 28.676511394092813,242.25118344306247 28.717636733548716,242.89306347400998 28.717636733548716,243.16051315699588 28.717636733548716,243.90937123657204 28.75876207323745,244.17682018195046 28.75876207323745,244.49775866002892 28.79988741269335,244.87218653134187 28.841012752614915,245.56755156847066 28.841012752614915,245.94197835281375 28.92326343175955,246.90478833660018 28.92326343175955,247.27921376208542 28.92326343175955,247.60014953830978 28.882138092070818,248.0280634717492 28.964388771448284,248.72342255382682 28.964388771448284,249.04435707232915 29.005514110904187,249.36529131126008 29.005514110904187,249.6862252705614 29.087764790281653,250.38158122362802 29.087764790281653,250.75600311663584 29.128890129970387,251.07693586478126 29.128890129970387,251.4513570512063 29.17001546965912,252.14670967365964 29.17001546965912,252.52112977317302 29.17001546965912,252.84206098405411 29.17001546965912,253.16299191562575 29.211140809347853,253.69787618046394 29.252266149036586,254.01880636651185 29.29339148872532,254.3397362732794 29.29339148872532,254.7141541444871 29.334516828181222,255.35601246720762 29.416767507325858,255.6769412094145 29.416767507325858,256.0513577220845 29.45789284724742,256.3722858586989 29.540143526392058,257.0676291959244 29.58126886608079,257.4420442955452 29.663519545225427,257.7629712209746 29.70464488514699,258.13738561427454 29.82802090398036,258.77923797472613 29.869146243669093,259.1536513353931 29.910271583124995,259.4745767703862 29.99252226250246,259.795501925837 30.198148960946128,260.4373513983446 30.198148960946128,260.758275715285 30.321524979779497,261.0791997529159 30.3626503192354,261.4001235110627 30.527151677990332,262.04197018875857 30.568277017679065,262.41638023455744 30.6505276968237,262.68381574880914 30.691653036512434,263.0582251425076 30.856154395034537,263.6465819926234 30.938405074412003,263.9140166139405 31.02065575355664,264.1814510412223 31.102906432934105,264.5023720978352 31.267407791456208,265.25118680953165 31.349658470833674,265.6255935950612 30.11589828156866,266.0 28.63538605417125,265.73256689240225 28.26525799743831,265.6255935950612 27.895129940472543,265.4116469071014 27.113748487317935,265.14421337269596 26.78474577027373,265.03723990439903 26.044489656575024,264.9302664051356 25.59211092046462,264.9302664051356 24.93410548614338,264.7163193136221 24.64622810878791,264.39539844333194 24.440601410577074,264.2349379034713 24.029348013922572,263.80704278871417 23.8648466556333,263.53960808968986 23.618094617733732,263.27217319671763 23.3302172399126,262.68381574880914 23.20684122107923,262.36289310851134 22.91896384349093,260.9187377690687 22.96008918317966,260.5443262018089 23.08346520201303,259.795501925837 23.20684122107923,259.4210892172996 23.494718598667532,258.77923797472613 23.659219956956804,258.0838978670363 23.659219956956804,257.60250779316993 23.659219956956804,256.85367753953324 23.576969277812168,256.47926184209064 23.412467919290066,255.78391739472863 23.289091900456697,255.46298874579952 23.08346520201303,255.19554799140315 22.79558782465756,254.50020112187485 22.67221180582419,254.12578303320333 22.631086466135457,253.5374109824188 22.713337145280093,253.26996883068932 22.91896384349093,252.2001982826623 22.91896384349093,251.34437960822834 22.836713164346293,251.02344709288445 22.54883578675799,250.32809235077002 22.38433442823589,250.00715895049507 22.178707730025053,249.6862252705614 21.808579673059285,248.9908680052322 21.561827635392547,248.72342255382682 21.150574238970876,248.13504187745275 20.369192785583436,247.33270307758357 20.081315407995135,246.74432018070365 19.916814049473032,246.4233836591302 19.834563370095566,246.0489573640225 19.793438030639663,245.35359323516604 19.87568871001713,245.03265550234937 19.834563370095566,244.6582277941925 19.916814049473032,244.28379970556125 19.916814049473032,243.58843224588782 19.9990647288505,242.94655342618353 20.0401900683064,242.62561359698884 20.1224407479167,242.30467348839738 20.204691427061334,241.87675290860352 20.451443464960903,241.2348711072991 20.574819483794272,240.91392978731892 20.65707016317174,240.53949789414764 20.986072880448774,239.89761376348906 21.109448899049312,239.57667127880268 21.23282491811551,239.2557285146031 21.644078314770013,238.72082328650868 21.89083035243675,238.3998797768727 22.13758239010349,238.13242663873825 22.836713164346293,237.33006605957053 23.124590541934595,237.00912133860402 23.371342579834163,236.68817633809522 23.823721315711737,236.04628549868357 24.029348013922572,235.7253396596352 24.193849372677505,234.97646494809305 24.193849372677505,234.60202702163951 24.193849372677505,234.2275887146243 24.15272403275594,233.90664129151264 24.15272403275594,233.10427151064505 24.11159869353287,232.6763402466022 24.029348013922572,232.40888295401237 24.029348013922572,232.1414254674164 24.029348013922572,231.49952670748462 24.070473353611305,231.12508524788427 23.947097334777936,230.32270941030583 23.905971994856372,229.68080748218927 23.98822267423384,229.30636417440837 23.98822267423384,228.87842849947629 24.070473353611305,228.12953987254878 24.317225391510874,227.59461849290528 24.81072946731001,227.54112631228054 25.46873490163125,227.86207927990472 25.879988298285753,227.91557141393423 26.167865675641224,228.02255565868109 26.743620430584997,227.54112631228054 26.78474577027373,227.11318858730374 26.78474577027373,226.79223496755003 26.866996449418366,225.7758799935691 26.825871109962463,225.40143271753914 26.743620430584997,225.08047760665067 26.743620430584997,224.33158126071794 26.702495091129094,224.01062521792483 26.825871109962463,223.10124824510422 26.620244411518797,221.38947373756673 26.53799373237416,220.96152886783239 26.53799373237416,220.587076699303 26.49686839268543,219.62419794732705 26.455743052996695,219.19625102751888 26.414617713540792,218.8217970650294 26.414617713540792,218.5008362227818 26.37349237385206,217.805420105753 26.414617713540792,217.484458378196 26.414617713540792,216.94952154433122 26.332367034163326,216.46807772980537 26.37349237385206,215.82615166530013 26.332367034163326,215.45169427787187 26.332367034163326,215.02374251189758 26.291241694474593,214.16783748890157 26.25011635478586,212.6165045669477 26.167865675641224,212.2420439175621 26.167865675641224,211.9210773438681 26.085614996263757,211.5466159877251 25.96223897743039,210.90468134879484 26.00336431688629,210.15575618998264 26.00336431688629,209.88828254994587 25.96223897743039,209.51381912778015 25.921113637741655,209.2998398586642 25.96223897743039,208.60440637537977 25.96223897743039,208.28343663262785 26.044489656575024,207.64149630849715 26.00336431688629,206.94605969518307 25.96223897743039,206.46460280922474 26.00336431688629,206.09013590752147 26.00336431688629,205.3946963659546 26.00336431688629,204.96673291866318 25.96223897743039,204.69925551174674 26.00336431688629,204.32478681585053 25.96223897743039,203.5223526142363 25.921113637741655,203.2013784443552 25.879988298285753,202.9338997558516 25.83886295836419,202.6664208729926 25.756612278986722,202.13146252499428 25.756612278986722,201.8104871432879 25.756612278986722,201.2755275525269 25.756612278986722,201.06154349868302 25.756612278986722,200.41959059156943 25.797737618675455,200.09861371855368 25.756612278986722,199.08218510911684 25.756612278986722,198.76120707101654 25.633236260386184,197.6377817351604 25.633236260386184,197.37029900756897 25.633236260386184,196.62134633699316 25.674361599842086,196.3538628712704 25.633236260386184,195.92588892244385 25.633236260386184,195.60490813438082 25.633236260386184,194.74895799939986 25.59211092046462,194.64196409267606 25.550985580775887,194.5884671275562 25.59211092046462,194.534970155044 25.59211092046462,194.534970155044 25.550985580775887,194.534970155044 25.509860241319984,194.534970155044 25.509860241319984,194.4814731744409 25.71548693953082,194.534970155044 26.12674033571966,194.4279761861544 26.455743052996695,194.4279761861544 26.866996449418366,194.37447919003898 27.56612722342834,194.37447919003898 27.895129940472543,194.26748517455417 28.964388771448284,194.0 29.334516828181222,194.0 29.622394205769524,194.0 29.910271583124995,194.05349705036497 31.061781093245372,194.16049112810288 31.43190914997831,194.21398815512657 32.007663905154914,194.21398815512657 32.295541282743216,194.32098218626925 32.58341866033152,194.32098218626925 32.99467205675319,194.37447919003898 33.7760535099078,194.32098218626925 34.1873069065623,194.37447919003898 35.462192435516044,194.64196409267606 35.83232049224898,194.534970155044 37.23058204026893,194.4814731744409 37.64183543645777,194.534970155044 37.88858747435734,194.5884671275562 38.669968927744776,194.80245494117844 39.451350380899385,194.90944880110328 39.739227758254856,194.90944880110328 40.109355815220624,194.90944880110328 40.43835853249766,194.85595187504077 41.46649202355184,194.74895799939986 41.87774541997351,194.74895799939986 42.16562279756181,194.80245494117844 44.756519195390865,195.5514113092504 44.96214589336887,195.60490813438082 45.579025988001376,195.65840495171142 45.702402007067576,195.60490813438082 46.40153278084472,195.7119017614168 46.68941015843302,195.7653985633806 47.38854093244299,195.65840495171142 48.04654636676423,195.60490813438082 48.37554908404127,195.60490813438082 48.745677140774205,195.60490813438082 50.22618936793879,195.7119017614168 51.17207217984833,195.87239214387955 51.58332557627,195.87239214387955 52.15908033121377,195.81889535745722 52.57033372763544,196.03288245626027 53.76296857744455,195.979385693121 54.00972061534412,195.979385693121 56.436115654418245,196.1398759590229 58.20450525917113,196.3538628712704 58.9036360331811,196.40735957986908 59.60276680695824,196.51435297398712 60.301897580968216,196.56784965933184 61.494532430777326,196.51435297398712 62.1936632047873,196.56784965933184 63.26292203529738,196.72833966871258 64.24993018689565,196.83533296966925 65.27806367794983,196.99582286257646 65.5248157158494,197.04931947798468 65.64819173468277,197.04931947798468 66.59407454659231,197.1028160857386 66.96420260332525,197.15631268560537 67.66333337733522,197.04931947798468 68.03346143430099,197.1028160857386 68.40358949103393,197.04931947798468 68.6914668683894,197.1028160857386 68.89709356683306,197.1028160857386 69.51397366146557,197.1028160857386 69.84297637850977,197.20980927775963 70.29535511462018,197.15631268560537 70.62435783189721,197.15631268560537 71.40573928505182,197.15631268560537 71.73474200209603,197.20980927775963 72.18712073843926,197.26330586208496 72.88625151244923,197.31680243866867 74.07888636202551,197.53078866747092 74.40788907906972,197.58428520528832 76.09402800467797,197.69127825755277 76.4641560614109,197.69127825755277 76.83428411837667,197.7447747719416 78.02691896795295,197.7447747719416 78.47929770406336,197.7982712785888 78.8494257607963,197.8517677775817 80.2065619691275,197.8517677775817" stroke="#4dd2ff" stroke-linecap="round" stroke-linejoin="round" stroke-width="0.5"><title>2022-08-30 5.1km</title></polyline><polyline fill="none" points="184.76394849759527,196.81233607433387 185.20539546292275,197.09945057914592 185.6909871243406,198.13306106999516 185.77927651721984,199.10924627567874 185.86756591056474,199.62604923255276 186.0,201.52098763021058 186.0,203.70302665952477 184.49908031872474,204.85146341845393 183.92519926419482,204.73661989273387 183.26302881655283,204.73661989273387 182.95401594089344,204.6217763335735 182.20355610060506,204.4495109321433 181.89454322494566,204.3346672897751 177.3476394850295,203.99013616194134 176.06744328630157,203.87529238601564 175.53770692809485,203.87529238601564 174.61066830158234,203.87529238601564 173.72777437139302,203.76044857676607 173.3304721028544,203.70302665952477 172.2709993866738,203.5881828003039 171.78540772525594,203.53076085817884 170.7700797058642,203.4159169488412 170.37277743709274,203.4159169488412 169.93133047199808,203.30107300615055 168.29797670128755,203.0713850207685 167.01778050279245,203.18622903016512 165.69343960750848,203.2436510223779 165.20784794609062,203.18622903016512 164.81054567731917,203.12880702954135 163.9276517473627,203.0713850207685 163.442060085712,203.0713850207685 162.86817903118208,203.0713850207685 162.0294297975488,203.01396300346823 161.63212752901018,202.9565409779898 161.23482526023872,202.84169690209092 160.39607602683827,202.7268527924898 159.91048436542042,202.7268527924898 158.54199877381325,202.89911894415854 158.05640711192973,202.84169690209092 157.65910484362394,202.7268527924898 156.9086450028699,202.7268527924898 156.15818516234867,202.5545865658496 155.2752912323922,202.38232026420883 154.17167381965555,202.09520959467045 153.64193746144883,201.98036526836222 153.33292458602227,201.92294309285353 151.87614960153587,201.69325430720346 151.34641324332915,201.69325430720346 150.94911097479053,201.69325430720346 149.93378295493312,201.80809871660313 149.44819129351526,201.80809871660313 148.60944206011482,201.69325430720346 148.30042918445542,201.63583208984346 147.37339055771008,201.57840986413066 145.91661557299085,201.52098763021058 145.51931330445223,201.52098763021058 144.59227467817254,201.63583208984346 143.93010423053056,201.80809871660313 143.5328019617591,201.69325430720346 143.13549969322048,201.75067651609425 142.64990803180262,201.63583208984346 141.81115879816934,201.57840986413066 141.45800122618675,201.63583208984346 140.6633966891095,201.52098763021058 139.2949110972695,201.4635653878795 138.367872470757,201.4635653878795 137.8822808091063,201.52098763021058 136.99938687914982,201.4635653878795 136.4696505209431,201.40614313731203 135.18945432221517,201.52098763021058 134.7038626607973,201.52098763021058 134.26241569570266,201.4635653878795 133.42366646206938,201.34872087839176 132.27590435300954,201.69325430720346 132.2317596564535,203.18622903016512 132.18761495989747,204.27724545591627 132.2317596564535,204.73661989273387 132.2317596564535,205.36825887224404 132.2317596564535,206.17216156888753 132.2317596564535,206.68895529670408 132.32004904956557,207.1483269323071 132.3641937461216,208.0096473111189 132.4083384424448,208.41159617944504 132.4083384424448,209.38775601566886 132.4083384424448,209.84712451673113 132.4083384424448,210.76585991843604 132.49662783532403,212.02911761100404 132.49662783532403,212.60332431911957 132.62906192522496,214.0962578592298 132.62906192522496,214.3833598170604 132.62906192522496,215.3020846817235 132.67320662131533,215.70402613893384 132.7173513181042,216.2208074122027 132.7173513181042,217.082108033821 132.7614960144274,217.48404768222827 132.7614960144274,218.86212337538018 132.7173513181042,219.3214808726916 132.7173513181042,219.72341824526666 131.74616799503565,221.15890552749624 131.08399754739366,221.1014861361473 129.84794604522176,220.9866473285656 128.92090741847642,220.75696961363428 128.39117106050253,220.69955016393214 127.50827713031322,220.24019426692394 126.66952789691277,219.95309656049358 126.09564684215002,219.89567699411418 124.59472716110758,219.4937397967442 123.9325567134656,218.57502466847654 123.27038626582362,218.2879257533641 122.3433476393111,217.88598692198866 121.99019006709568,217.71372729784343 121.50459840567783,217.54146759863943 120.13611281407066,216.9098480597022 119.73881054553203,216.79500803502742 119.38565297354944,216.68016797714517 118.50275904336013,216.50790782796685 117.84058859571815,216.2208074122027 117.48743102373555,215.99112692964263 117.17841814830899,215.8188664802292 116.8694052726496,215.64660595561145 116.16309012868442,215.12982393207494 115.6333537704777,215.70402613893384 115.72164316358976,216.1059671875846 115.809932556469,216.73758801035 115.85407725302503,217.02468805079116 115.94236664590426,217.4266277574061 116.03065603901632,217.7711471809016 116.20723482500762,218.51760490221204 116.33966891444288,219.3214808726916 116.47210300411098,219.72341824526666 116.56039239722304,220.18277474239585 116.64868179010227,220.75696961363428 116.69282648642547,221.04406673647463 116.78111587953754,221.4460023586289 116.8252605763264,221.79051828099182 116.95769466576166,222.42213002603967 117.17841814830899,223.5130933917244 117.44328632717952,224.31695920939092 117.53157572005875,224.71889150573406 117.57572041661479,225.12082339348854 117.75229920283891,226.03952331768232 117.84058859571815,226.38403523899615 117.92887798859738,226.78596543468302 118.01716738194227,227.07305818161694 118.19374616793357,227.87691676427494 118.19374616793357,228.27884544298286 118.326180257136,229.08270157506922 118.37032495392486,229.36979265487753 118.50275904336013,230.173646569805 118.6351931327954,230.63299093066598 118.76762722246349,231.14975269904244 118.94420600845478,231.8961851724016 119.03249540133402,232.298109766969 119.07664009789005,232.70003395303502 119.16492949100211,232.92970473319292 119.29736358043738,233.50388110009953 119.34150827676058,233.8483865201997 119.38565297354944,234.19289164012298 119.5180870629847,234.59481390102883 119.6505211526528,235.34123987323255 119.95953402807936,236.5470019300119 120.04782342119142,236.89150469956803 120.09196811751463,237.29342421836918 120.09196811751463,237.58050933887716 120.31269160029478,238.61401404737262 120.40098099317402,238.95851501679863 120.44512568949722,239.41784917603945 120.66584917227738,240.22168267107918 120.70999386860058,240.62359880603617 120.79828326147981,240.9680980251287 120.88657265459187,241.3125969443936 121.01900674425997,242.05901024010382 121.1072961371392,242.40350820909953 121.23973022657447,243.14991944620851 121.37216431624256,243.4944164653134 121.37216431624256,243.8389131843287 121.4604537091218,244.1834096031671 121.63703249511309,245.10206525365356 121.72532188822515,245.50397642989992 121.81361128133722,245.84847139866906 121.94604537077248,246.19296606755233 122.12262415676378,246.8819545051374 122.21091354987584,247.2264482739556 122.25505824619904,247.57094174259691 122.3433476393111,248.030265901034 122.47578172874637,248.7766665207746 122.47578172874637,249.12115863940562 122.5199264253024,249.46565045812167 122.60821581841446,249.81014197686454 122.91722869384103,250.9584448725218 123.00551808672026,251.30293509108014 123.04966278350912,251.64742500975262 123.09380747983232,252.0493295356864 123.31453096261248,253.08279644171125 123.53525444492698,253.714358221594 123.71183323091827,254.74782077758573 123.84426732058637,255.14972215343732 123.9767014097888,256.06835233658785 124.1091354994569,256.52766662824433 124.19742489256896,256.92956619602046 124.32985898223706,257.5611218343256 124.41814837511629,257.905606303073 124.46229307143949,258.30750447075116 124.72716125031002,259.05388569892966 124.81545064365491,259.85767929279245 124.90374003653415,260.20216176164104 124.90374003653415,260.6040575961233 125.12446351908147,261.3504344910907 125.47762109106407,262.2116368509596 124.99202942964621,263.072837336018 124.63887185743079,263.1302506349457 124.24156958889216,263.1302506349457 123.88841201690957,263.18766392566613 123.13795217638835,263.1302506349457 121.94604537077248,263.1302506349457 121.50459840567783,263.1302506349457 121.06315144058317,263.01542402873747 120.84242795826867,263.01542402873747 120.04782342119142,263.01542402873747 119.6505211526528,263.01542402873747 117.79644389916211,262.15422341867816 117.48743102373555,261.9245696060243 117.13427345152013,261.75232915914967 116.47210300411098,261.3504344910907 116.11894543212838,261.17819379421417 116.03065603901632,260.20216176164104 116.38381361123174,260.2595754772192 116.73697118321434,260.31698918461916 117.44328632717952,260.37440288366633 117.84058859571815,260.4318165742734 118.23789086425677,260.48923025652766 118.59104843623936,260.5466439304291 119.38565297354944,260.5466439304291 119.82709993841127,260.48923025652766 120.18025751039386,260.48923025652766 121.01900674425997,260.5466439304291 121.23973022657447,260.5466439304291 121.54874310223386,260.48923025652766 121.99019006709568,260.48923025652766 122.74064990784973,260.4318165742734 123.00551808672026,259.97250681574224 122.96137339039706,259.628024146863 122.91722869384103,259.28354117821436 122.91722869384103,258.99647180823376 122.873083997285,258.30750447075116 122.78479460440576,258.02043439270346 122.74064990784973,257.6185359332594 122.5199264253024,256.92956619602046 122.43163703242317,256.1831809596042 122.16676885331981,255.2071366024902 122.12262415676378,254.80523528490448 122.03433476388454,254.46074811622384 121.94604537077248,254.11626064757002 121.72532188822515,253.36987010293524 121.68117719190195,253.0253816843324 121.59288779855706,252.68089296566905 121.54874310223386,252.27898908150382 121.4604537091218,251.59001004419406 121.37216431624256,251.30293509108014 121.32801961968653,251.01585992972832 121.23973022657447,250.7861996506981 121.1072961371392,250.09721801325213 120.9748620474711,249.6953115039505 120.88657265459187,249.3508198853524 120.75413856515661,248.3173432290787 120.66584917227738,247.97285041029681 120.44512568949722,247.28386387287173 120.40098099317402,246.8819545051374 120.35683629638515,246.53746043640422 120.26854690350592,246.19296606755233 120.13611281407066,245.50397642989992 120.04782342119142,245.15948116098298 120.00367872463539,244.81498559203465 119.95953402807936,244.47048972314224 119.78295524185523,243.8389131843287 119.73881054553203,243.43700031618937 119.694665848976,243.0925032472005 119.56223175954074,242.74800587815116 119.42979766963981,242.00159388259635 119.29736358043738,241.59967914785375 119.29736358043738,241.3125969443936 119.25321888388135,240.91068150950014 119.07664009789005,240.22168267107918 118.98835070477799,239.99201612485922 118.98835070477799,239.64751605552738 118.90006131189875,239.36043243526365 118.72348252590746,238.6714308965311 118.67933782935143,238.32692967698677 118.54690373991616,237.98242815749836 118.50275904336013,237.69534332872718 118.37032495392486,236.9489217987284 118.326180257136,236.60441907902714 118.2820355608128,236.2599160594109 118.19374616793357,235.91541273958865 118.01716738194227,235.16898785094963 117.97302268515341,234.82448358106194 117.88473329227418,234.47997901105555 117.84058859571815,234.13547414101777 117.66400980995968,233.38904589333106 117.53157572005875,233.04454007316963 117.48743102373555,232.70003395303502 117.44328632717952,232.3555275327235 117.31085223751143,231.66651379212271 117.2225628446322,231.32200647180434 117.17841814830899,230.97749885127996 117.09012875519693,230.69040893836063 116.91354996920563,229.94397418948938 116.8252605763264,229.6568835263024 116.69282648642547,229.31237445544684 116.64868179010227,229.02528333399096 116.51624770066701,228.4511004658998 116.47210300411098,228.16400871917722 116.38381361123174,227.76207992376294 116.29552421811968,227.4175692027202 116.03065603901632,226.7285468603368 115.94236664590426,226.38403523899615 115.809932556469,225.6950110961916 115.76578786014579,225.35049857458216 115.6774984668009,225.00598575297045 115.58920907392167,224.66147263124003 115.54506437759846,224.02986446223804 115.4567749844864,223.45567434234545 115.28019619826227,222.76664509813418 115.19190680538304,222.36471081807395 115.14776210882701,221.96277612971608 115.01532801962458,221.21632491031778 114.97118332283571,220.8143890548381 114.83874923340045,220.5272917651455 114.83874923340045,220.12535520939855 114.52973635797389,219.0343824994343 114.44144696486183,218.2879257533641 114.44144696486183,218.00082662978093 114.26486817887053,217.36920782437664 114.1765787859913,217.082108033821 114.08828939287923,216.62274793573306 114.04414469609037,215.93370678817155 114.0,215.53176556431572 114.30901287519373,214.6704615665949 115.23605150193907,214.95756310771685 115.98651134246029,215.3020846817235 116.56039239722304,215.70402613893384 116.78111587953754,215.93370678817155 117.31085223751143,216.3930676865857 117.66400980995968,216.56532788599725 118.4586143468041,216.73758801035 118.85591661534272,216.85242805152666 119.20907418732531,216.96726805943763 119.47394236642867,217.082108033821 120.88657265459187,217.54146759863943 121.41630901256576,217.7711471809016 121.63703249511309,217.88598692198866 121.94604537077248,218.00082662978093 122.25505824619904,218.1730861289252 122.96137339039706,218.46018512759474 123.31453096261248,218.57502466847654 123.9767014097888,218.9195430916734 124.2857142854482,219.09180219064 124.59472716110758,219.14922187375487 125.25689760874957,219.37890052227885 125.65419987705536,219.55115942136035 125.96321275271475,219.72341824526666 126.6253832001239,220.01051611860748 126.9343960757833,220.18277474239585 127.28755364776589,220.35503329138737 127.64071121998131,220.5272917651455 128.34702636417933,220.8143890548381 128.74432863271795,220.87180848771823 129.00919681135565,220.9866473285656 129.4064990801271,221.04406673647463 130.4218270999845,221.33116365113528 130.86327406484634,221.33116365113528 132.49662783532403,220.92922791224555 132.54077253188007,220.8143890548381 132.5849172284361,220.87180848771823 132.62906192522496,220.8143890548381 132.62906192522496,220.8143890548381 132.7173513181042,220.46987228211947 132.67320662131533,220.06793566813576 132.7173513181042,219.78083783667535 132.7614960144274,219.0343824994343 132.80564071098343,218.63244442662108 132.80564071098343,218.11566630427842 132.89393010386266,217.25436793323024 132.7614960144274,216.56532788599725 132.7173513181042,216.2208074122027 132.67320662131533,215.8188664802292 132.5849172284361,215.01498339089449 132.5849172284361,214.61304123344598 132.62906192522496,214.21109866761253 132.62906192522496,213.92399658460636 132.5849172284361,213.12010964390356 132.54077253188007,212.71816556088743 132.54077253188007,212.48848304423154 132.49662783532403,212.14395901927492 132.4083384424448,211.45491006903467 132.45248313900083,210.99554343521595 132.45248313900083,210.65101810975466 132.4083384424448,210.3064924843493 132.32004904956557,209.04322928973124 132.32004904956557,208.6987022635294 132.27590435300954,208.2967536871729 132.27590435300954,208.0096473111189 132.2317596564535,207.20574834931176 132.0993255667854,206.80379825553973 132.0993255667854,206.17216156888753 132.0551808704622,205.77021042481647 132.0993255667854,205.36825887224404 132.01103617390618,205.08115037030075 132.0993255667854,204.27724545591627 132.0993255667854,203.93271427825675 132.14347026357427,203.53076085817884 132.14347026357427,202.78427485143766 132.7173513181042,202.09520959467045 133.15879828296602,202.03778743566363 133.73267933772877,202.15263174523716 134.08583690971136,202.15263174523716 134.43899448169395,202.21005388742196 134.79215205390938,202.15263174523716 135.54261189419776,202.2674760213995 136.16063764551654,202.21005388742196 136.60208461037837,202.3248981468787 136.95524218236096,202.38232026420883 137.74984671967104,202.5545865658496 138.367872470757,202.7268527924898 138.76517473929562,202.78427485143766 139.07418761472218,202.84169690209092 139.5597792766057,202.89911894415854 140.39852851000614,202.9565409779898 140.884120171424,202.9565409779898 141.28142244019546,202.9565409779898 141.9435928876046,203.0713850207685 144.15082771284506,203.0713850207685 144.59227467817254,203.0713850207685 144.98957694647834,203.12880702954135 146.1814837520942,203.6456047341926 146.44635193119757,203.6456047341926 146.75536480685696,203.6456047341926 147.19681177171879,203.70302665952477 149.31575720408,203.93271427825675 149.71305947261862,203.87529238601564 150.11036174115725,203.76044857676607 150.86082158167847,203.6456047341926 151.2581238502171,203.6456047341926 151.56713672564365,203.6456047341926 152.36174126295373,203.70302665952477 153.5536480685696,203.76044857676607 153.95095033710822,203.81787048562546 154.25996321253479,203.87529238601564 154.6572654810734,203.93271427825675 155.2752912323922,203.87529238601564 155.71673819725402,203.93271427825675 156.20232985867187,203.93271427825675 156.95278969942592,203.93271427825675 157.35009196796454,203.93271427825675 157.65910484362394,204.04755803736043 158.10055180848576,204.04755803736043 158.80686695268378,204.10497990442673 159.07173513178714,204.16240176334395 159.51318209664896,204.21982361385017 159.91048436542042,204.16240176334395 160.74923359882087,204.21982361385017 161.1023911710363,204.27724545591627 161.58798283268698,204.21982361385017 162.3825873695314,204.3346672897751 163.53034947859123,204.50693274106015 163.9276517473627,204.6217763335735 164.76640098099597,204.67919811725733 165.11955855297856,204.7940416598285 165.9141630900558,204.7940416598285" stroke="#4dd2ff" stroke-linecap="round" stroke-linejoin="round" stroke-width="0.5"><title>2022-08-29 5.6km</title></polyline></svg>