<?xml version="1.0" encoding="utf-8" ?>
<svg baseProfile="full" height="200mm" version="1.1" viewBox="0,0,200,200" width="200mm" xmlns="http://www.w3.org/2000/svg" xmlns:ev="http://www.w3.org/2001/xml-events" xmlns:xlink="http://www.w3.org/1999/xlink"><defs /><rect fill="#1a1a1a" height="200" width="200" x="0" y="0" /><text alignment-baseline="middle" fill="#e1ed5e" style="dominant-baseline: central; font-size:9.0px; font-family:Arial;" text-anchor="middle" x="100.0" y="100.0">2023</text><line stroke="#e1ed5e" stroke-width="0.3" x1="100.0" x2="100.0" y1="15.0" y2="10.0" /><path d="M 100.0 14.0 a86.0,86.0 0 0,1 42.46469731375804,11.215312516191453" fill="none" id="id13" stroke="none" /><text fill="#e1ed5e" style="font-size:6.75px; font-family:Arial;" text-anchor="middle"><textPath startOffset="22.20632615414155" xlink:href="#id13">January</textPath></text><path d="M 100.0 79.0 l 0.0 -37.24246370826848 a58.24246370826848,58.24246370826848 0 0,0 1.0025482712037015,0.008629249486035495 l -0.6410677919311731 37.236945835391005" fill="#bcff1f" stroke="none" /><line stroke="#e1ed5e" stroke-width="0.3" x1="143.23703022742887" x2="145.7803849466894" y1="26.81831364943548" y2="22.513508569990506" /><path d="M 143.74570117128098 25.957352633546492 a86.0,86.0 0 0,1 28.547481713284135,27.462654790039103" fill="none" id="id14" stroke="none" /><text fill="#e1ed5e" style="font-size:6.75px; font-family:Arial;" text-anchor="middle"><textPath startOffset="19.985693538727396" xlink:href="#id14">February</textPath></text><path d="M 112.48926042617603 83.11751280151076 l 17.086098536722126 -23.096310748214314 a49.729328801499314,49.729328801499314 0 0,0 0.6837873791641406,0.5150144775873887 l -17.481132069644648 22.79877968112108" fill="#ffab0f" stroke="none" /><path d="M 115.9244219780498 86.31012108654704 l 19.641730704303537 -16.885568302774697 a46.90212350306534,46.90212350306534 0 0,0 0.5210365532467416,0.6167429356553252 l -19.929477871037395 16.544966417490265" fill="#ff750a" stroke="none" /><line stroke="#e1ed5e" stroke-width="0.3" x1="172.23445277983987" x2="176.4835382374775" y1="55.19839476539836" y2="52.563006222186495" /><path d="M 173.08426987136738 54.67131705675599 a86.0,86.0 0 0,1 12.851231095245387,41.99856678651699" fill="none" id="id15" stroke="none" /><text fill="#e1ed5e" style="font-size:6.75px; font-family:Arial;" text-anchor="middle"><textPath startOffset="22.20632615414155" xlink:href="#id15">March</textPath></text><path d="M 119.61058180528143 92.48833698450437 l 34.696639030746134 -13.290246192444252 a58.154910898637276,58.154910898637276 0 0,0 0.35002447112783697,0.9378915614042433 l -34.9202680903756 12.691031494010677" fill="#beff1f" stroke="none" /><path d="M 119.85752413597 93.16781622104841 l 36.8674007158955 -12.684605362608321 a59.98851688319939,59.98851688319939 0 0,0 0.3275450327831192,0.9793179573028393 l -37.08028304245039 12.04811430238317" fill="#a0ff22" stroke="none" /><path d="M 120.08093135843002 93.85539295169968 l 29.326286306147203 -8.973612942587815 a51.6684984593882,51.6684984593882 0 0,0 0.2529150927008668,0.8527039617598164 l -29.476407295959774 8.46747959408147" fill="#ffcf13" stroke="none" /><path d="M 120.53481517161879 95.60439243477599 l 31.270894804085163 -6.69373357507193 a52.97928909500969,52.97928909500969 0 0,0 0.1832092036191681,0.8933931422713914 l -31.381483303619326 6.154464776637127" fill="#ffe715" stroke="none" /><path d="M 120.87857604477298 97.74499172005257 l 37.387248415615375 -4.038041414360295 a58.60468218925701,58.60468218925701 0 0,0 0.09969179506094095,1.0038827713697966 l -37.451217336358546 3.3938831122860633" fill="#b6ff1f" stroke="none" /><path d="M 120.91429891909075 98.10471618934814 l 27.79643262124733 -2.518952652667535 a48.91033480512055,48.91033480512055 0 0,0 0.06876680388964361,0.8391291873806386 l -27.83567390895647 2.0401095480791276" fill="#ff9c0e" stroke="none" /><line stroke="#e1ed5e" stroke-width="0.3" x1="184.98032266829074" x2="189.97916517819016" y1="98.17113171792111" y2="98.06355123074" /><path d="M 185.9800911702706 98.14961562048488 a86.0,86.0 0 0,1 -9.607161424134198,41.387399972396054" fill="none" id="id16" stroke="none" /><text fill="#e1ed5e" style="font-size:6.75px; font-family:Arial;" text-anchor="middle"><textPath startOffset="21.466115282336823" xlink:href="#id16">April</textPath></text><path d="M 120.92983693683757 101.71520430193887 l 39.947759430960154 3.2737268348328983 a61.081676249166165,61.081676249166165 0 0,0 -0.09489592131914404,1.0471685842071696 l -39.885488913363936 -3.9608768075886385" fill="#8fff24" stroke="none" /><path d="M 120.8583938346157 102.4346265915055 l 26.101648483776508 3.0466280378343686 a47.27885073536419,47.27885073536419 0 0,0 -0.10130842512547301,0.8075278264986417 l -26.045338549404185 -3.495473618620405" fill="#ff7d0b" stroke="none" /><path d="M 120.81339534386255 102.79330883721812 l 26.79606471480414 3.5962265230599457 a48.03630761411645,48.03630761411645 0 0,0 -0.11703920308260604,0.8185719137644529 l -26.730191460704933 -4.056943908804808" fill="#ff8b0c" stroke="none" /><line stroke="#e1ed5e" stroke-width="0.3" x1="174.80103733775053" x2="179.2010983576182" y1="140.37084112569926" y2="142.7455964860345" /><path d="M 175.68104954172406 140.8457921977663 a86.0,86.0 0 0,1 -30.038265399797805,32.042727171017184" fill="none" id="id17" stroke="none" /><text fill="#e1ed5e" style="font-size:6.75px; font-family:Arial;" text-anchor="middle"><textPath startOffset="22.206326154141568" xlink:href="#id17">May</textPath></text><path d="M 111.7513745106137 117.40417183066458 l 14.299975554774155 21.17873373066339 a46.554413773387125,46.554413773387125 0 0,0 -0.6680010835833448,0.44271469321328527 l -13.933299772450848 -21.421746444967994" fill="#ff6e0a" stroke="none" /><path d="M 111.1453310114006 117.79835938074945 l 13.718624059790594 21.907738852779488 a46.84859121374798,46.84859121374798 0 0,0 -0.6871590737001364,0.4221092271658966 l -13.339485786158148 -22.140636546773763" fill="#ff740a" stroke="none" /><line stroke="#e1ed5e" stroke-width="0.3" x1="143.8653032363475" x2="146.44561519142675" y1="172.8068346515853" y2="177.08958963109032" /><path d="M 144.38136562736335 173.6633856474863 a86.0,86.0 0 0,1 -40.68145358897372,12.25698825130547" fill="none" id="id18" stroke="none" /><text fill="#e1ed5e" style="font-size:6.75px; font-family:Arial;" text-anchor="middle"><textPath startOffset="21.466115282336833" xlink:href="#id18">June</textPath></text><line stroke="#e1ed5e" stroke-width="0.3" x1="102.19456741930631" x2="102.32365962044197" y1="184.97166512339345" y2="189.96999836594603" /><path d="M 102.22038585953345 185.97133177190398 a86.0,86.0 0 0,1 -42.740103519485714,-10.115201625700543" fill="none" id="id19" stroke="none" /><text fill="#e1ed5e" style="font-size:6.75px; font-family:Arial;" text-anchor="middle"><textPath startOffset="22.20632615414155" xlink:href="#id19">July</textPath></text><path d="M 94.46302465271185 120.25689768951611 l -5.312504562148655 19.435676455240046 a41.1486531558718,41.1486531558718 0 0,0 -0.6816349479715007,-0.19263684496421035 l 5.64627067822477 -19.341350816937315" fill="#ff0000" stroke="none" /><path d="M 93.76903079525671 120.05430185196036 l -18.692907614229874 60.16290555588108 a84.0,84.0 0 0,0 -1.3771146196362385,-0.4409086133611737 l 19.725743578957054 -59.832224095860205" fill="#4dd2ff" stroke="none" /><line stroke="#e1ed5e" stroke-width="0.3" x1="58.666819895761336" x2="56.23545636021788" y1="174.27360380694188" y2="178.64263932499728" /><path d="M 58.180547188652646 175.14741091055294 a86.0,86.0 0 0,1 -31.652253787137756,-30.449443065178592" fill="none" id="id20" stroke="none" /><text fill="#e1ed5e" style="font-size:6.75px; font-family:Arial;" text-anchor="middle"><textPath startOffset="22.20632615414155" xlink:href="#id20">August</textPath></text><line stroke="#e1ed5e" stroke-width="0.3" x1="26.63291911575756" x2="22.317208475507996" y1="142.92168965132927" y2="145.44649492493687" /><path d="M 25.769776987707644 143.4266507060508 a86.0,86.0 0 0,1 -11.730757126820373,-40.83630448921669" fill="none" id="id21" stroke="none" /><text fill="#e1ed5e" style="font-size:6.75px; font-family:Arial;" text-anchor="middle"><textPath startOffset="21.46611528233685" xlink:href="#id21">September</textPath></text><line stroke="#e1ed5e" stroke-width="0.3" x1="15.007084014347285" x2="10.007500721073583" y1="101.09737516637583" y2="101.16192664675087" /><path d="M 14.007167355692545 101.11028546245083 a86.0,86.0 0 0,1 10.666146001902534,-42.60595125391555" fill="none" id="id22" stroke="none" /><text fill="#e1ed5e" style="font-size:6.75px; font-family:Arial;" text-anchor="middle"><textPath startOffset="22.20632615414155" xlink:href="#id22">October</textPath></text><line stroke="#e1ed5e" stroke-width="0.3" x1="26.266209847984243" x2="21.928928074336255" y1="57.711370442889674" y2="55.22380399835377" /><path d="M 25.398753493254645 57.213857153982495 a86.0,86.0 0 0,1 29.58750427330803,-30.492523968695096" fill="none" id="id23" stroke="none" /><text fill="#e1ed5e" style="font-size:6.75px; font-family:Arial;" text-anchor="middle"><textPath startOffset="21.46611528233685" xlink:href="#id23">November</textPath></text><line stroke="#e1ed5e" stroke-width="0.3" x1="56.762969772571076" x2="54.21961505331055" y1="26.818313649435495" y2="22.513508569990535" /><path d="M 56.25429882871897 25.957352633546506 a86.0,86.0 0 0,1 42.265352541879196,-11.944610805530505" fill="none" id="id24" stroke="none" /><text fill="#e1ed5e" style="font-size:6.75px; font-family:Arial;" text-anchor="middle"><textPath startOffset="22.20632615414155" xlink:href="#id24">December</textPath></text></svg>