<?xml version="1.0" encoding="utf-8" ?>
<svg baseProfile="full" height="200mm" version="1.1" viewBox="0,0,200,200" width="200mm" xmlns="http://www.w3.org/2000/svg" xmlns:ev="http://www.w3.org/2001/xml-events" xmlns:xlink="http://www.w3.org/1999/xlink"><defs /><rect fill="#1a1a1a" height="200" width="200" x="0" y="0" /><text alignment-baseline="middle" fill="#e1ed5e" style="dominant-baseline: central; font-size:9.0px; font-family:Arial;" text-anchor="middle" x="100.0" y="100.0">2022</text><line stroke="#e1ed5e" stroke-width="0.3" x1="100.0" x2="100.0" y1="15.0" y2="10.0" /><path d="M 100.0 14.0 a86.0,86.0 0 0,1 42.46469731375804,11.215312516191453" fill="none" id="id1" stroke="none" /><text fill="#e1ed5e" style="font-size:6.75px; font-family:Arial;" text-anchor="middle"><textPath startOffset="22.20632615414155" xlink:href="#id1">January</textPath></text><line stroke="#e1ed5e" stroke-width="0.3" x1="143.23703022742887" x2="145.7803849466894" y1="26.81831364943548" y2="22.513508569990506" /><path d="M 143.74570117128098 25.957352633546492 a86.0,86.0 0 0,1 28.547481713284135,27.462654790039103" fill="none" id="id2" stroke="none" /><text fill="#e1ed5e" style="font-size:6.75px; font-family:Arial;" text-anchor="middle"><textPath startOffset="19.985693538727396" xlink:href="#id2">February</textPath></text><line stroke="#e1ed5e" stroke-width="0.3" x1="172.23445277983987" x2="176.4835382374775" y1="55.19839476539836" y2="52.563006222186495" /><path d="M 173.08426987136738 54.67131705675599 a86.0,86.0 0 0,1 12.851231095245387,41.99856678651699" fill="none" id="id3" stroke="none" /><text fill="#e1ed5e" style="font-size:6.75px; font-family:Arial;" text-anchor="middle"><textPath startOffset="22.20632615414155" xlink:href="#id3">March</textPath></text><line stroke="#e1ed5e" stroke-width="0.3" x1="184.98032266829074" x2="189.97916517819016" y1="98.17113171792111" y2="98.06355123074" /><path d="M 185.9800911702706 98.14961562048488 a86.0,86.0 0 0,1 -9.607161424134198,41.387399972396054" fill="none" id="id4" stroke="none" /><text fill="#e1ed5e" style="font-size:6.75px; font-family:Arial;" text-anchor="middle"><textPath startOffset="21.466115282336823" xlink:href="#id4">April</textPath></text><line stroke="#e1ed5e" stroke-width="0.3" x1="174.80103733775053" x2="179.2010983576182" y1="140.37084112569926" y2="142.7455964860345" /><path d="M 175.68104954172406 140.8457921977663 a86.0,86.0 0 0,1 -30.038265399797805,32.042727171017184" fill="none" id="id5" stroke="none" /><text fill="#e1ed5e" style="font-size:6.75px; font-family:Arial;" text-anchor="middle"><textPath startOffset="22.206326154141568" xlink:href="#id5">May</textPath></text><line stroke="#e1ed5e" stroke-width="0.3" x1="143.8653032363475" x2="146.44561519142675" y1="172.8068346515853" y2="177.08958963109032" /><path d="M 144.38136562736335 173.6633856474863 a86.0,86.0 0 0,1 -40.68145358897372,12.25698825130547" fill="none" id="id6" stroke="none" /><text fill="#e1ed5e" style="font-size:6.75px; font-family:Arial;" text-anchor="middle"><textPath startOffset="21.466115282336833" xlink:href="#id6">June</textPath></text><line stroke="#e1ed5e" stroke-width="0.3" x1="102.19456741930631" x2="102.32365962044197" y1="184.97166512339345" y2="189.96999836594603" /><path d="M 102.22038585953345 185.97133177190398 a86.0,86.0 0 0,1 -42.740103519485714,-10.115201625700543" fill="none" id="id7" stroke="none" /><text fill="#e1ed5e" style="font-size:6.75px; font-family:Arial;" text-anchor="middle"><textPath startOffset="22.20632615414155" xlink:href="#id7">July</textPath></text><line stroke="#e1ed5e" stroke-width="0.3" x1="58.666819895761336" x2="56.23545636021788" y1="174.27360380694188" y2="178.64263932499728" /><path d="M 58.180547188652646 175.14741091055294 a86.0,86.0 0 0,1 -31.652253787137756,-30.449443065178592" fill="none" id="id8" stroke="none" /><text fill="#e1ed5e" style="font-size:6.75px; font-family:Arial;" text-anchor="middle"><textPath startOffset="22.20632615414155" xlink:href="#id8">August</textPath></text><path d="M 82.44556493220864 111.52570212397912 l -23.33232557604767 15.319287314613629 a48.91196841167549,48.91196841167549 0 0,0 -0.4560345494124585,-0.707775747887267 l 23.592564988837175 -14.915389966804913" fill="#ff5e08" stroke="none" /><path d="M 82.24976979558568 111.22182372390057 l -21.460451833700706 13.567452632425965 a46.3895010553518,46.3895010553518 0 0,0 -0.4208971571050093,-0.6786202338256677 l 21.69081363047367 -13.196036067235033" fill="#ff2603" stroke="none" /><path d="M 82.05923443525364 110.91462005526583 l -23.2972366010753 14.173335297242344 a48.2698490405528,48.2698490405528 0 0,0 -0.42573805568903483,-0.7135614697420343 l 23.53775553246257 -13.770211733614198" fill="#ff5007" stroke="none" /><line stroke="#e1ed5e" stroke-width="0.3" x1="26.63291911575756" x2="22.317208475507996" y1="142.92168965132927" y2="145.44649492493687" /><path d="M 25.769776987707644 143.4266507060508 a86.0,86.0 0 0,1 -11.730757126820373,-40.83630448921669" fill="none" id="id9" stroke="none" /><text fill="#e1ed5e" style="font-size:6.75px; font-family:Arial;" text-anchor="middle"><textPath startOffset="21.46611528233685" xlink:href="#id9">September</textPath></text><path d="M 81.87401531095188 110.60418214915194 l -21.75371280294172 12.726499384174783 a46.2029325136634,46.2029325136634 0 0,0 -0.3956907230708948,-0.6899201285444195 l 21.969555522164992 -12.350159409772058" fill="#ff2203" stroke="none" /><path d="M 81.51974371655577 109.97397251340807 l -24.807589442070423 13.38889523089493 a49.19005160389397,49.19005160389397 0 0,0 -0.3957398018460146,-0.7485905666544347 l 25.034381752141325 -12.95988964915437" fill="#ff6409" stroke="none" /><path d="M 81.18737489456691 109.33194174019688 l -23.626789805414948 11.719992544173655 a47.37391555580524,47.37391555580524 0 0,0 -0.3560865853282459,-0.7336438351388505 l 23.825029647357912 -11.311559753069519" fill="#ff3c05" stroke="none" /><path d="M 80.87730276802145 108.67885076344099 l -25.706824071993175 11.667061765207768 a49.23050006821666,49.23050006821666 0 0,0 -0.3435794613397374,-0.7746809829923164 l 25.90384461806419 -11.222832445722757" fill="#ff6509" stroke="none" /><path d="M 80.73074385275274 108.34839909993369 l -25.682547333514776 11.12695546754402 a48.989326099692626,48.989326099692626 0 0,0 -0.3285761196758015,-0.7766568870969235 l 25.870274434382885 -10.683224054780938" fill="#ff6008" stroke="none" /><path d="M 80.58989483394504 108.01547362559985 l -38.48295619148321 15.891676925449726 a62.63512114475575,62.63512114475575 0 0,0 -0.4029448153489673,-1.0000759864323367 l 38.75080362108957 -15.226901571174585" fill="#95ff23" stroke="none" /><path d="M 80.45479744820244 107.68017299344265 l -26.947259991961726 10.588768158788312 a49.95301076218068,49.95301076218068 0 0,0 -0.3075814306227127,-0.8029980570972302 l 27.12553570217795 -10.123346534857925" fill="#ff740a" stroke="none" /><path d="M 80.20201598880116 107.00284435728193 l -48.27906576665748 17.077030827362908 a72.21028386154427,72.21028386154427 0 0,0 -0.4044091182052296,-1.1754021972164879 l 48.565865715805934 -16.243455927057123" fill="#36ff6e" stroke="none" /><path d="M 80.0844068197444 106.66101706037122 l -24.32776583854599 8.136722909761271 a46.65241607344928,46.65241607344928 0 0,0 -0.2481636373437318,-0.7637691411783366 l 24.46422172690597 -7.716754868605131" fill="#ff2c04" stroke="none" /><path d="M 79.97269907076064 106.31721596034903 l -27.273923319516364 8.603019663215704 a49.59858109355313,49.59858109355313 0 0,0 -0.2498191429229303,-0.816423413511013 l 27.417969234945424 -8.132269277152643" fill="#ff6d0a" stroke="none" /><path d="M 79.67330655649465 105.27499134158121 l -22.95017669798921 5.955812916947045 a44.710384180156176,44.710384180156176 0 0,0 -0.18690789831137702,-0.7466041438965731 l 23.049295910595646 -5.55988093365308" fill="#ff0000" stroke="none" /><path d="M 79.58551787078972 104.9243191809786 l -32.56981753951638 7.8563921541426875 a54.503968604287216,54.503968604287216 0 0,0 -0.21214874039301077,-0.9139312211647054 l 32.70022684583994 -7.294592275629408" fill="#ffd213" stroke="none" /><path d="M 79.50377843672027 104.57218783832718 l -29.79611705956109 6.646758946691371 a51.52847844754942,51.52847844754942 0 0,0 -0.1856643740381316,-0.8673621446533698 l 29.906115472323663 -6.132882982621838" fill="#ff960d" stroke="none" /><path d="M 79.4281124754447 104.21870165774334 l -37.59166025178783 7.708966872011421 a59.373963708738955,59.373963708738955 0 0,0 -0.1966976492722532,-1.0029570759638364 l 37.71878783403575 -7.060746068979629" fill="#cfff1d" stroke="none" /><path d="M 79.35854240842038 103.8639653848113 l -26.974720556224792 5.0495167810595465 a48.44327183133633,48.44327183133633 0 0,0 -0.14637609249657405,-0.8209548618050712 l 27.057643091060555 -4.584443168521262" fill="#ff5407" stroke="none" /><path d="M 79.23777060512086 103.15116336523772 l -32.01638648226494 4.859250047352288 a53.3830405367447,53.3830405367447 0 0,0 -0.13006637755628125,-0.9096839416918057 l 32.09528691083782 -4.307420633680081" fill="#ffbc11" stroke="none" /><path d="M 79.18660465613746 102.79330883721812 l -29.76360801382108 3.99449238910549 a51.03045673057631,51.03045673057631 0 0,0 -0.10934731120571214,-0.8716056580886826 l 29.82795683427364 -3.481568976729399" fill="#ff8b0c" stroke="none" /><path d="M 79.1416061653843 102.43462659150553 l -34.405477274452174 4.01586481346462 a55.63905363434267,55.63905363434267 0 0,0 -0.10284666708308178,-0.9522324058586971 l 34.46950624303631 -3.423036085721141" fill="#ffe915" stroke="none" /><path d="M 79.10278846688536 102.07522291339032 l -29.636932787126756 2.943131522834679 a50.78270988659985,50.78270988659985 0 0,0 -0.07889554343783227,-0.8706057475768894 l 29.683202926841666 -2.432544386709223" fill="#ff860c" stroke="none" /><path d="M 79.04373962182676 101.35467743843564 l -25.820989409084703 1.669148557965275 a46.87488262722407,46.87488262722407 0 0,0 -0.04511963950546889,-0.8056414730296093 l 25.8458953994777 -1.224435368600228" fill="#ff3104" stroke="none" /><path d="M 79.0095281055655 100.63252640178507 l -33.146627383261325 0.9988397142993236 a54.161673474956466,54.161673474956466 0 0,0 -0.020060290531585992,-0.93212287560471 l 33.158909736477916 -0.4281270229044848" fill="#ffcc13" stroke="none" /><line stroke="#e1ed5e" stroke-width="0.3" x1="15.007084014347285" x2="10.007500721073583" y1="101.09737516637583" y2="101.16192664675087" /><path d="M 14.007167355692545 101.11028546245083 a86.0,86.0 0 0,1 10.666146001902534,-42.60595125391555" fill="none" id="id10" stroke="none" /><text fill="#e1ed5e" style="font-size:6.75px; font-family:Arial;" text-anchor="middle"><textPath startOffset="22.20632615414155" xlink:href="#id10">October</textPath></text><path d="M 79.00175016825051 100.2711162175752 l -43.14176988858643 0.5570194452114915 a64.14536568140414,64.14536568140414 0 0,0 -0.004751958059827658,-1.1041877005231828 l 43.14496614393576 0.18567773351536662" fill="#7bff26" stroke="none" /><path d="M 79.08570108090925 98.10471618934814 l -31.590237562211467 -2.8627527060758116 a52.71968572185261,52.71968572185261 0 0,0 0.08968089081495925,-0.9030743317963169 l 31.53627954571428 3.406102568576559" fill="#ffae10" stroke="none" /><path d="M 79.16333360222342 97.38593545837743 l -33.220304780648156 -4.167654226985814 a54.48071073730167,54.48071073730167 0 0,0 0.12474526411534735,-0.9294971127836265 l 33.14364351747498 4.7388696818341" fill="#ffd213" stroke="none" /><path d="M 79.21141760316559 97.0276538004421 l -34.636681597370895 -4.952343885022175 a55.98893285073393,55.98893285073393 0 0,0 0.1446223637988078,-0.9528806808129459 l 34.54630334013278 5.547823678227212" fill="#fff016" stroke="none" /><path d="M 79.26566170972629 96.67025291283419 l -35.36051421189598 -5.678578575761802 a56.81357591711276,56.81357591711276 0 0,0 0.16337457571494893,-0.964245993974124 l 35.257527774660815 6.2864103580517545" fill="#ffff18" stroke="none" /><path d="M 79.32604984820605 96.31383870115002 l -40.34060873459242 -7.192722706482916 a61.97682238790399,61.97682238790399 0 0,0 0.19630207026183405,-1.0486535087443196 l 40.21082094042073 7.886054292689808" fill="#a0ff22" stroke="none" /><path d="M 79.3925641242962 95.95851677861259 l -39.32369714695448 -7.712073602020064 a61.07279921029189,61.07279921029189 0 0,0 0.21119760376636001,-1.02987452126709 l 39.185120247273126 8.387823779450557" fill="#b0ff20" stroke="none" /><path d="M 79.81627453868168 94.20196356495316 l -35.13244342314718 -10.092249194035782 a57.55327720841393,57.55327720841393 0 0,0 0.28172083328191205,-0.949822598898402 l 34.95351669275356 10.695501179680724" fill="#f0ff19" stroke="none" /><path d="M 79.91906864156998 93.8553929516997 l -36.98895856058155 -11.3183303813856 a59.68187764339543,59.68187764339543 0 0,0 0.30905128153029937,-0.979777018329508 l 36.788651795283045 11.953357566141523" fill="#c9ff1d" stroke="none" /><path d="M 80.38941819471856 92.48833698450439 l -58.83174541584431 -22.534989046486853 a84.0,84.0 0 0,0 0.5288258004732356,-1.3458039804169464 l 58.435126065489385 23.544342031799562" fill="#4dd2ff" stroke="none" /><path d="M 80.65960295795068 91.81776055985345 l -35.515471283856996 -15.025342511964007 a59.563060279447534,59.563060279447534 0 0,0 0.4076078624931916,-0.9408151450348904 l 35.25157271152113 15.634456801585497" fill="#cbff1d" stroke="none" /><path d="M 80.803312248108 91.48605970444005 l -29.865228906142047 -13.245554603296794 a53.67073023923982,53.67073023923982 0 0,0 0.38182298783940044,-0.8412963411491468 l 29.632803601339294 13.757672953288012" fill="#ffc212" stroke="none" /><path d="M 81.10775173730289 90.83032412892265 l -48.84680903387831 -23.70863435356591 a75.29650168936541,75.29650168936541 0 0,0 0.5759823360015711,-1.1611452424606064 l 48.43146668492332 24.545939184525476" fill="#3cffa4" stroke="none" /><path d="M 81.6062741919709 89.86733742301443 l -30.916658173000528 -17.031245792425143 a56.29735239119444,56.29735239119444 0 0,0 0.4748878948365429,-0.8447725754989406 l 30.618912636871556 17.560901877858868" fill="#fff617" stroke="none" /><line stroke="#e1ed5e" stroke-width="0.3" x1="26.266209847984243" x2="21.928928074336255" y1="57.711370442889674" y2="55.22380399835377" /><path d="M 25.398753493254645 57.213857153982495 a86.0,86.0 0 0,1 29.58750427330803,-30.492523968695096" fill="none" id="id11" stroke="none" /><text fill="#e1ed5e" style="font-size:6.75px; font-family:Arial;" text-anchor="middle"><textPath startOffset="21.46611528233685" xlink:href="#id11">November</textPath></text><path d="M 81.78341655067845 89.55222093294921 l -32.1061746083325 -18.413893029348863 a58.01186167267241,58.01186167267241 0 0,0 0.5042621006815285,-0.861947389026285 l 31.784452833180644 18.963819830729037" fill="#e8ff1a" stroke="none" /><path d="M 81.96595687620814 89.24020034530311 l -32.282909888936445 -19.261218368571438 a58.592297135703,58.592297135703 0 0,0 0.5242174749484921,-0.8616756951110434 l 31.946576615701733 19.814061836889554" fill="#ddff1b" stroke="none" /><path d="M 82.15384107792192 88.93136811851018 l -32.380545794083446 -20.083220321042536 a59.102958997776945,59.102958997776945 0 0,0 0.5436695551703277,-0.8599546737533817 l 32.030048642667154 20.637622642510134" fill="#d4ff1c" stroke="none" /><path d="M 82.54541684631803 88.32363383020206 l -30.99598780926914 -20.734984059431632 a58.29196728810703,58.29196728810703 0 0,0 0.5650865898998427,-0.8291948426552187 l 30.634476753700554 21.265456925357267" fill="#e3ff1b" stroke="none" /><path d="M 82.95767976084542 87.72973835380427 l -43.93201953482186 -31.63051549163868 a75.13420222627063,75.13420222627063 0 0,0 0.764713718795973,-1.0430686530351538 l 43.381043203512256 32.38204658834533" fill="#3cffa1" stroke="none" /><path d="M 83.17141714833178 87.43820079747576 l -41.793170932482965 -31.196769562719332 a73.15273308026292,73.15273308026292 0 0,0 0.7619172744293923,-1.0025938222100625 l 41.249977717829466 31.911548160810423" fill="#38ff7e" stroke="none" /><path d="M 83.39014120810768 87.1503855733568 l -30.15216647731831 -23.326129271527446 a59.12166641252619,59.12166641252619 0 0,0 0.6296342591259981,-0.7995715687299081 l 29.74617813759834 23.8416932342104" fill="#d3ff1c" stroke="none" /><path d="M 83.84228863543731 86.58626213691792 l -30.07907296071492 -24.970912696488195 a60.09344076787878,60.09344076787878 0 0,0 0.66757913953268,-0.7902031359067884 l 29.644783207695117 25.4849747820241" fill="#c1ff1e" stroke="none" /><line stroke="#e1ed5e" stroke-width="0.3" x1="56.762969772571076" x2="54.21961505331055" y1="26.818313649435495" y2="22.513508569990535" /><path d="M 56.25429882871897 25.957352633546506 a86.0,86.0 0 0,1 42.265352541879196,-11.944610805530505" fill="none" id="id12" stroke="none" /><text fill="#e1ed5e" style="font-size:6.75px; font-family:Arial;" text-anchor="middle"><textPath startOffset="22.20632615414155" xlink:href="#id12">December</textPath></text></svg>