<?xml version="1.0" encoding="utf-8" ?>
<svg baseProfile="full" height="300mm" version="1.1" viewBox="0,0,200,300" width="200mm" xmlns="http://www.w3.org/2000/svg" xmlns:ev="http://www.w3.org/2001/xml-events" xmlns:xlink="http://www.w3.org/1999/xlink"><defs /><rect fill="#222222" height="300" width="200" x="0" y="0" /><text fill="#FFFFFF" style="font-size:12px; font-family:Arial; font-weight:bold;" x="10" y="20">Over 5km Runs</text><text fill="#FFFFFF" style="font-size:4px; font-family:Arial" x="10" y="280">ATHLETE</text><text fill="#FFFFFF" style="font-size:9px; font-family:Arial" x="10" y="290">cvvz</text><text fill="#FFFFFF" style="font-size:4px; font-family:Arial" x="120" y="280">STATISTICS</text><text fill="#FFFFFF" style="font-size:3px; font-family:Arial" x="120" y="285">Number: 4</text><text fill="#FFFFFF" style="font-size:3px; font-family:Arial" x="120" y="290">Weekly: 4.0</text><text fill="#FFFFFF" style="font-size:3px; font-family:Arial" x="141" y="285">Total: 21.4 km</text><text fill="#FFFFFF" style="font-size:3px; font-family:Arial" x="141" y="290">Avg: 5.3 km</text><text fill="#FFFFFF" style="font-size:3px; font-family:Arial" x="167" y="285">Min: 5.1 km</text><text fill="#FFFFFF" style="font-size:3px; font-family:Arial" x="167" y="290">Max: 5.6 km</text><polyline fill="none" points="89.66916616656817,69.94440604856936 89.57198560261168,69.94440604856936 89.42621475690976,69.94440604856936 88.74595080967993,69.94440604856936 88.35722855408676,69.94440604856936 88.0656868624501,69.94440604856936 87.62837432487868,69.94440604856936 86.80233953194693,69.88120139201055 86.41361727635376,69.88120139201055 86.1220755847171,69.88120139201055 85.78194361086935,69.94440604856936 84.95590881817043,69.88120139201055 84.71295740827918,69.81799672613852 84.32423515291885,69.81799672613852 83.98410317930393,69.81799672613852 83.25524895009585,69.75479205106967 82.86652669473551,69.69158736697864 82.57498500309885,69.62838267354527 82.18626274727285,69.62838267354527 81.70035992795601,69.56517797106062 80.92291541700251,69.56517797106062 80.4856028794311,69.56517797106062 79.4166166766081,69.3123590692121 79.02789442101493,69.2491543207143 76.64697060571052,68.86992563770036 76.25824835011736,68.6803111723566 75.82093581277877,68.55390148281003 75.09208158380352,68.49069662424154 74.6547690462321,68.42749175662175 74.16886622668244,68.42749175662175 73.14847030583769,68.36428687977605 73.14847030583769,68.36428687977605 72.7111577684991,70.00761069596047 72.7111577684991,70.89247479682672 72.80833833222277,71.84054148048745 72.75974805024453,72.09335891387309 72.61397720430978,73.10462718023336 72.51679664035328,74.11589309721603 72.46820635860786,74.68472914322047 72.37102579465136,75.12715666511212 72.32243551290594,76.26482537118136 72.27384523092769,77.59210177051136 72.27384523092769,78.1609332744847 72.27384523092769,78.54015386418905 72.17666466697119,79.48820389306638 72.17666466697119,79.93062653328525 72.17666466697119,80.49945498158922 72.07948410301469,81.38429775708937 71.83653269335628,82.14273299043998 71.64217156544328,82.64835574536119 71.44781043776311,83.40678877657047 71.25344931008294,84.03881529334467 70.57318536262028,84.92365087539656 70.33023395319469,85.42927040040377 70.13587282504886,85.68207994272234 69.89292141562328,87.64134891811409 68.48380323918536,88.08376327311271 67.60917816427536,87.89415717613883 65.32543491292745,87.83095512533328 64.45080983778462,87.83095512533328 64.11067786440253,87.76775306553463 63.62477504485287,87.70455099642277 62.65296940598637,87.57814683081233 62.21565686841495,87.57814683081233 61.243851229548454,87.51494473434286 60.80653869220987,87.45174262870569 60.02909418102354,87.51494473434286 59.494601079495624,87.57814683081233 58.571385722840205,87.45174262870569 57.98830233933404,87.45174262870569 57.648170365719125,87.32533838946256 56.773545290809125,87.19893411378143 55.850329933688045,87.19893411378143 55.36442711437121,87.19893411378143 55.072885422734544,87.19893411378143 52.88632273534313,87.19893411378143 49.776544691063464,87.64134891811409 49.727954409085214,88.02056124983937 49.727954409085214,88.46297521927045 49.04769046185538,89.09499439576757 48.51319736032747,89.03179251932306 47.97870425879955,88.96859063385637 47.10407918388955,88.65258106862893 46.66676664655097,88.46297521927045 45.84073185361922,88.02056124983937 45.4034193160478,87.83095512533328 45.063287342200056,87.57814683081233 43.459808038314804,86.88292326396913 41.37042591464706,86.06129398095072 40.88452309533022,85.87168700314942 40.15566886612214,85.42927040040377 39.47540491912514,85.05005581156001 39.086682663531974,84.92365087539656 38.64937012596056,84.86044839335955 37.72615476883948,84.54443584615365 37.38602279545739,84.48123330925591 37.094481103820726,84.41803076304495 36.365626874379814,84.16522048661136 36.07408518274315,83.91241006343625 35.68536292738281,83.59639682807028 35.393821235746145,83.3435860745085 34.76214757049456,82.9011669025931 34.422015596646816,82.77476134253084 34.03329334128648,82.58515293319942 33.83893221360631,82.39554444147507 32.13827234553173,82.83796412721858 31.5551889622584,83.46999146958115 31.2636472703889,83.59639682807028 30.874925015028566,83.72280214974307 29.70875824824907,84.22842306937673 28.931313737295568,84.22842306937673 27.76514697051607,84.16522048661136 27.03629274154082,84.10201789467828 26.647570485714823,84.22842306937673 26.258848230121657,84.2916256429744 25.91871625650674,84.2916256429744 25.384223155444488,84.35482820763718 24.946910617873073,84.92365087539656 25.18986202753149,85.55567518994212 24.606778644258156,86.37730542710051 24.16946610668674,86.44050768890884 23.829334133071825,86.44050768890884 22.954709058161825,86.50370994152036 22.51739652059041,86.50370994152036 21.73995200963691,86.56691218481865 21.302639472065493,86.56691218481865 20.913917216472328,86.63011441912386 20.136472705518827,86.81972106656758 19.74775044969283,87.00932763156015 19.407618476310745,87.0725298015168 19.01889622071758,87.19893411378143 18.387222555465996,87.70455099642277 18.04709058208391,87.89415717613883 17.658368326257914,88.2101672916906 17.02669466100633,88.58937912789406 16.686562687391415,88.84218683524523 16.103479304350913,89.41100363989244 16.006298740161583,89.72701265465003 15.811937612481415,90.10622316968511 15.666166766779497,90.35902999615064 15.520395920611918,90.67503832274815 15.228854229208082,91.18065116822254 14.888722255360335,91.49665889865719 14.5,92.31827792373952 14.840131973614916,92.69748618171434 15.471805638866499,93.07669410918606 16.29784043179825,93.07669410918606 16.783743251347914,93.13989539863542 17.609778044512495,92.95029150354094 17.99850029987283,92.76068752599531 18.290041991509497,92.5710834657948 19.407618476310745,92.50788209415623 19.74775044969283,92.38147932308493 20.282243551220745,92.25507651540102 20.62237552483566,92.19187509766198 21.448410318000242,91.93906933563994 21.788542291382328,91.81266639949172 22.225854828953743,91.74946491757873 23.24625074979849,91.81266639949172 23.53779244143516,91.875867872237 24.072285542963073,92.12867367101717 24.16946610668674,92.5710834657948 24.072285542963073,92.82388886093395 23.926514697028324,93.13989539863542 23.732153569115326,93.45590170662035 23.586382723413408,93.83510897369706 23.29484103177674,94.53032143873861 23.149070185841992,94.90952777001075 23.003299340140074,95.41513569789822 22.954709058161825,95.66793944151141 22.66316736652516,96.4895505947643 22.61457708477974,96.9319559581636 22.51739652059041,97.2479595139448 22.42021595686674,97.69036410664557 23.586382723413408,99.33357722958317 23.926514697028324,99.2703768395877 24.801139772171155,99.207176440279 25.09268146357499,99.207176440279 25.91871625650674,99.45997798221651 26.21025794837624,99.52317834459245 26.550389921991155,99.64957904230687 26.93911217735149,99.775979702943 27.619376124581322,99.90238032714115 27.95950809842907,99.90238032714115 28.251049790065736,99.90238032714115 29.077084582997486,99.96558062548866 29.46580683859065,100.09198119462235 29.951709658140317,100.21838172682328 30.777744451072067,100.34478222273174 31.21505698841065,100.40798245673068 31.603779244236648,100.47118268159102 31.943911217618734,100.53438289734186 33.35302939405665,100.02878091455204 33.547390521503985,99.7127793772379 33.83893221360631,98.95437475162908 33.25584883033298,98.00636711204425 32.91571685648523,97.81676533637801 32.2354529092554,96.42634979178547 32.28404319123365,96.04714478188544 32.38122375519015,95.66793944151141 32.4298140371684,94.90952777001075 32.04109178157523,94.1511147772544 31.798140371683985,93.89831015263917 30.000299939885736,93.7087065881642 29.66016796627082,93.51910294077243 28.542591481702402,93.58230416564038 27.81373725249432,93.83510897369706 27.08488302328624,93.7087065881642 26.647570485714823,93.51910294077243 25.821535692783073,93.45590170662035 25.481403719168156,93.7087065881642 25.18986202753149,93.9615113226173 23.926514697028324,93.83510897369706 24.12087582470849,93.39270046341699 24.21805638866499,93.07669410918606 24.412417516345158,92.76068752599531 24.801139772171155,92.06547223511734 25.481403719168156,91.1174495947489 25.772945410804823,90.29582830323488 25.91871625650674,89.53740727336844 25.772945410804823,88.71578300010879 25.578584283124655,88.2733692874317 25.432813437189907,87.83095512533328 25.287042591255158,87.00932763156015 25.287042591255158,86.56691218481865 25.287042591255158,86.18769858716405 25.33563287346624,85.80848465888994 23.877924414817244,84.6708408924751 23.44061187747866,84.6708408924751 23.003299340140074,84.73404340204434 22.225854828953743,84.92365087539656 21.837132573360577,84.98685334809124 21.399820035789162,85.05005581156001 21.011097780428827,85.11325826591928 19.84493101364933,84.6708408924751 19.74775044969283,84.48123330925591 19.553389322012663,83.72280214974307 19.504799040267244,83.3435860745085 19.456208758056164,82.96436966891633 19.601979603990912,82.26913873420563 19.84493101364933,81.88992139289621 20.039292141562328,81.51070372131653 20.62237552483566,81.32109476139885 20.962507498217747,81.32109476139885 21.351229753810912,81.25789175639511 21.73995200963691,81.32109476139885 22.51739652059041,81.38429775708937 22.954709058161825,81.4475007437577 23.29484103177674,81.51070372131653 23.586382723413408,81.57390668941662 24.412417516345158,81.57390668941662 24.752549489960074,81.6371096484072 25.18986202753149,81.70031259817188 25.529994000913575,81.76351553900167 26.453209358267486,81.88992139289621 27.570785842835903,81.95312430622289 28.008098380174488,82.01632721009082 28.396820635767654,82.01632721009082 28.73695260938257,82.07953010479105 28.979904019040987,82.07953010479105 29.854529093950987,82.07953010479105 30.194661067798734,82.01632721009082 30.63197360513732,82.01632721009082 31.020695860730484,82.07953010479105 31.749550089938566,82.14273299043998 32.2354529092554,82.14273299043998 32.5269946011249,82.20593586703762 34.22765446919948,82.01632721009082 34.470605878857896,82.07953010479105 34.95650869817473,82.14273299043998 35.87972405529581,82.20593586703762 36.219856028677896,82.26913873420563 36.65716856624931,82.26913873420563 37.04589082184248,82.33234159240965 37.92051589675248,82.39554444147507 38.30923815211281,82.45874728116905 38.74655068968423,82.52195011169533 39.52399520087056,82.45874728116905 39.961307738441974,82.45874728116905 41.22465506894514,82.64835574536119 41.467606478370726,82.64835574536119 41.710557888494805,82.71155854850076 43.362627474591136,82.96436966891633 43.79994001192972,83.02757242624648 44.14007198554464,83.09077517411788 44.57738452311605,83.15397791308351 45.45200959802605,83.21718064282322 45.88932213559747,83.28038336327882 46.32663467293605,83.3435860745085 46.71535692876205,83.40678877657047 47.54139172146097,83.46999146958115 47.97870425879955,83.46999146958115 48.36742651485838,83.5331941532786 49.582183563383296,83.15397791308351 49.485002999193966,82.33234159240965 49.533593281172216,81.06828268655227 49.533593281172216,80.68906429922208 49.533593281172216,80.24664242978906 49.485002999193966,79.80422011067276 49.485002999193966,78.66656065385905 49.485002999193966,78.41374703746988 49.533593281172216,78.03452633766574 49.43641271744855,77.08647314322297 49.485002999193966,76.83365860924823 49.485002999193966,76.39123282162473 49.38782243523747,76.0752141266421 49.2906418715138,75.19036056022742 49.2906418715138,74.74793310256791 49.24205158953555,74.36870920943329 49.2906418715138,73.9894849860575 49.14487102581188,73.04142298246734 49.0962807436008,72.66219760288368 49.14487102581188,72.15656324944575 49.04769046185538,71.58772390001104 48.99910017987713,70.57645211013732 48.99910017987713,70.26042919408064 48.99910017987713,70.00761069596047 48.95050989789888,69.4387685386755 48.901919616153464,69.56517797106062 48.901919616153464,68.99633523548255 48.901919616153464,68.6803111723566 48.901919616153464,68.42749175662175 48.901919616153464,68.23787709855242 48.901919616153464,67.92185248463647 48.85332933394238,67.66903262856067 48.901919616153464,67.1001874153153 48.901919616153464,66.78416197549086 48.901919616153464,66.46813630656106 48.85332933394238,66.15211040788563 48.85332933394238,65.7728790268302 48.756148769985884,65.1408259908203 48.804739052196965,64.88800451962743 48.756148769985884,64.50877203737036 48.707558488240466,64.12953922481393 48.610377924283966,63.497483802813804 48.610377924283966,63.18145574780647 48.610377924283966,62.80222177875112 48.610377924283966,62.54939894928248 48.610377924283966,62.17016442984459 48.51319736032747,61.53810616294504 48.56178764230572,61.22207668548799 48.51319736032747,60.90604697854724 48.46460707858205,60.5268110272591 48.51319736032747,60.27398687627283 48.46460707858205,59.64192585644196 48.46460707858205,59.32589500231552 48.41601679637097,58.94665767447441 48.41601679637097,58.630626315658446 48.41601679637097,58.31459472718416 48.46460707858205,58.0617692914675 48.41601679637097,57.49291152402293 48.41601679637097,57.11367259937106 48.36742651485838,56.79763990981155 48.3188362326473,56.54481359288911 48.27024595066905,56.03916051873239 48.27024595066905,55.723127048957394 48.27024595066905,55.47030010816525 48.27024595066905,55.1542662254069 48.27024595066905,54.96464578565792 48.27024595066905,54.58540465839906 48.3188362326473,53.95333537881379 48.3188362326473,53.70050740992883 48.27024595066905,53.32126518135192 48.2216556686908,53.00522973848274 48.17306538694538,52.62598690431332 48.1244751047343,51.99391477936297 48.1244751047343,51.61467106407508 48.07588482298888,51.361841737059876 48.07588482298888,51.04580487150815 48.02729454101063,50.66656033007894 48.02729454101063,50.66656033007894 47.97870425879955,50.54014540958451 47.97870425879955,50.224107947491575 49.04769046185538,49.90807025611866 49.533593281172216,49.84486269019544 50.505398920038715,49.6552399378852 50.94271145761013,49.6552399378852 51.81733653252013,49.46561710265814 52.69196160743013,49.46561710265814 53.129274145001546,49.528824723674916 53.51799640059471,49.528824723674916 54.39262147550471,49.6552399378852 54.82993401307613,49.6552399378852 55.21865626866929,49.71844753122423 55.55878824228421,49.71844753122423 56.822135572787374,49.90807025611866 57.696760647697374,50.03448536028736 58.619976004818454,50.03448536028736 58.91151769645512,50.03448536028736 59.25164967007004,50.03448536028736 59.64037192543037,50.09769289864926 60.85512897395529,49.97127781290328 61.68116376711987,50.09769289864926 62.118476304458454,50.160900427697925 62.55578884202987,50.28731545820483 64.3050389920827,50.41373045233195 64.69376124767587,50.41373045233195 65.08248350326903,50.41373045233195 65.56838632258587,50.476937935483875 66.2486502698157,50.41373045233195 66.68596280715428,50.476937935483875 66.97750449902378,50.54014540958451 68.14367126580328,50.729767776618246 68.48380323918536,50.729767776618246 68.77534493082203,50.792975214048056 69.30983803211711,50.856182642135536 70.13587282504886,50.91939006111352 70.52459508087486,50.91939006111352 70.86472705448978,50.856182642135536 71.0104979001917,50.792975214048056 71.88512297533453,50.98259747092379 72.75974805024453,51.04580487150815 73.29424115177244,51.109012262837496 75.14067186531611,50.98259747092379 75.57798440288752,51.04580487150815 76.06388722243719,51.04580487150815 76.88992201536894,51.172219645173755 77.3758248349186,51.23542701834231 78.39622075576335,51.23542701834231 78.93071385705844,51.23542701834231 79.85392921394669,51.29863438222674 80.19406118779443,51.29863438222674 80.63137372513302,51.361841737059876 81.40881823631935,51.42504908257979 81.74895020970143,51.48825641881558 82.13767246552743,51.42504908257979 82.57498500309885,51.42504908257979 83.88692261534743,51.48825641881558 84.37282543466426,51.5514637461456 84.85872825421393,51.5514637461456 86.31643671239726,51.67787837298238 86.70515896822326,51.741085672576446 87.14247150579467,51.867500244348776 88.01709658070467,51.804292963119224 88.98890221933834,51.867500244348776 89.37762447493151,51.867500244348776 89.76634673052467,51.93070751646883 91.12687462498434,51.867500244348776 92.34163167350926,52.18353651324287 93.02189562073909,52.18353651324287 93.556388722267,52.30995095646358 95.305638872087,52.81560836272547 95.5,53.3844722424401 95.35422915383242,53.57409337046556 95.25704859010875,54.33257705680444 95.15986802638508,54.77502526342869 95.06268746242858,55.21747302028234 95.06268746242858,55.53350685708574 94.86832633474842,56.418400379421655 94.77114577079192,56.92405301320832 94.52819436090067,57.74573729027179 94.431013797177,58.188182027835865 94.28524295124225,58.56742001636303 94.18806238751858,58.883451421163045 93.94511097762734,59.83154425880639 93.89652069564909,60.21078081562882 93.70215956773609,60.77963503153296 93.50779844028875,61.664517889759736 93.362027594354,62.1069586443482 93.21625674865209,62.612604670459405 93.02189562073909,63.37107260830817" stroke="#4dd2ff" stroke-linecap="round" stroke-linejoin="round" stroke-width="0.5"><title>2022-09-01 5.1km</title></polyline><polyline fill="none" points="185.5,71.85435193369631 185.2290969900787,71.85435193369631 184.5711896799039,71.80401181342313 184.2228858100716,71.80401181342313 183.10057333973236,71.80401181342313 182.7135690394789,71.75367168564117 182.2878643097356,71.70333155069966 181.55255613964982,71.70333155069966 181.20425226958469,71.60265125861042 180.46894409926608,71.55231110175373 180.2367415195331,71.60265125861042 179.5014333492145,71.55231110175373 179.5014333492145,71.60265125861042 178.95962732913904,71.45163076609606 178.06951743899845,71.45163076609606 177.6438127090223,71.45163076609606 177.29550883895718,71.45163076609606 176.2118967990391,71.3006102075451 175.283086478943,71.1495895833068 175.01218346855603,71.1495895833068 174.74128045863472,71.09924936064635 174.5090778786689,71.04890913053532 174.00597228854895,70.99856889329385 173.6189679885283,70.9482286486018 173.3093645486515,70.897888396692 172.88365981844254,71.1495895833068 172.30315336841159,72.55911285159527 172.1870520785451,72.96183273292263 172.10965121816844,73.31421224554651 171.72264691838063,74.32100887940032 171.258241758449,75.47882139420835 171.18084089830518,75.8815378845029 170.98733874806203,76.28425390692428 170.7938365980517,76.78764827726991 170.67773530841805,77.5930777497415 170.6003344480414,77.99579178425483 170.4842331581749,78.34816618086188 170.4068322982639,79.00257482449524 170.2520305782091,79.50596524844877 170.17462971806526,79.65698223307845 170.09722885815427,80.0093549414596 170.01982799801044,80.41206616978161 169.5554228380788,81.26782597682904 168.66531294793822,82.42561529547675 168.62661251798272,82.6773081140127 168.5105112278834,83.02967775298748 168.2396082179621,83.68407756122178 168.12350692786276,84.08678452169988 168.00740563799627,84.43915272830054 167.81390348775312,85.04321167818853 167.69780219788663,85.39557891301229 166.61419015773572,86.40234046781552 166.26588628767058,86.40234046781552 165.99498327751644,86.40234046781552 165.6466794074513,86.40234046781552 164.56306736753322,86.3520024594327 164.25346392742358,86.30166444386123 164.05996177718043,86.2513264209847 163.75035833730362,86.2513264209847 163.20855231722817,86.15065035317093 162.78284758725204,86.04997425613692 162.51194457733072,86.04997425613692 161.93143812706694,86.1003123082337 161.04132823692635,86.04997425613692 160.6543239369057,85.99963619670598 159.5320114667993,86.04997425613692 158.75800286675803,85.99963619670598 158.4870998566039,85.99963619670598 158.17749641672708,85.94929812985356 157.4808886765968,85.8989600558125 156.78428093646653,85.79828388572787 156.43597706663422,85.69760768636479 155.73936932627112,85.6472695757111 154.73315814626403,85.69760768636479 154.4235547061544,85.69760768636479 154.07525083608925,85.6472695757111 153.84304825612344,85.59693145781057 153.10774008603767,85.54659333266318 152.87553750607185,85.4962551999779 152.6820353558287,85.54659333266318 152.21763019589707,85.4962551999779 151.67582417582162,85.39557891301229 150.74701385572553,85.39557891301229 150.47611084580421,85.34524075855734 149.97300525545143,85.29490259671002 149.27639751555398,85.24456442770315 148.88939321553335,85.29490259671002 148.5797897754237,85.24456442770315 147.96058289543726,85.14388806754141 147.5348781652283,85.09354987656116 147.30267558526248,85.04321167818853 146.64476827532053,84.99287347248173 146.3738652651664,84.99287347248173 145.75465838517994,84.9425352596154 144.90324892499484,84.9425352596154 144.20664118486457,84.84185881196754 143.78093645488843,84.7915205770114 143.12302914471366,84.7915205770114 143.00692785461433,84.7915205770114 142.5812231246382,84.7411823347793 142.38772097462788,84.69084408538765 141.72981366468593,84.7411823347793 141.3041089347098,84.69084408538765 140.95580506441183,84.7411823347793 140.10439560445957,84.69084408538765 138.67247969424352,84.53982929312042 138.09197324421257,85.39557891301229 138.1306736744009,85.747945789597 137.51146679394878,86.3520024594327 137.12446249416098,86.200988390774 136.8148590538185,86.1003123082337 136.4278547540307,85.8989600558125 136.15695174387656,85.79828388572787 135.46034400397912,85.44591706004576 135.11204013391398,85.29490259671002 134.763736263616,85.19422625133302 134.18322981358506,84.9425352596154 133.91232680366375,84.7915205770114 133.6027233635541,84.64050582851632 133.2931199236773,84.48949101445032 132.90611562342383,84.28813782639918 132.5191113234032,84.13712285881047 131.5516005733516,83.73441595683107 131.24199713324197,83.58340074805892 130.738891543122,83.28137013304513 130.08098423318006,83.02967775298748 129.38437649304979,82.77798519021599 128.72646918310784,82.6269695648225 128.06856187293306,82.42561529547675 127.79765886277892,82.32493811668246 127.29455327289179,81.92222911014687 126.98494983278215,81.72087443139753 126.4431438127067,81.3685034623486 126.09483994264156,81.16714846223476 125.5143334926106,80.71409928397043 124.3533205925487,80.16037170696654 124.00501672248356,80.11003279255237 123.6180124222301,80.05969387062942 122.6505016721785,79.90867706129211 122.30219780211337,79.85833811029443 122.03129479219206,79.80799915202078 121.29598662210628,79.70732121326728 120.90898232185282,79.75766018629656 120.56067845202051,79.75766018629656 119.98017200175673,79.60664324555546 119.74796942179091,79.50596524844877 119.01266125170514,79.35494819789892 118.70305781182833,79.35494819789892 118.35475394176319,79.35494819789892 117.69684663158841,79.30460916660377 117.34854276152328,79.25427012788714 117.00023889145814,79.25427012788714 116.38103201147169,79.15359202848049 116.07142857136205,79.15359202848049 115.68442427134141,79.15359202848049 115.29741997155361,79.10325296790688 114.71691352128983,78.95223574194824 114.32990922103636,78.90189665212529 114.05900621111505,78.90189665212529 113.71070234104991,78.85155755488086 113.09149546106346,78.80121845041867 112.82059245090932,78.75087933868053 112.62709030113183,78.70054021931719 112.24008600087836,78.70054021931719 111.69827998080291,78.65020109296893 111.3499761109706,78.5998619592865 111.04037267062813,78.5998619592865 110.80817009066232,78.5495228182699 110.15026278072037,78.44884451423422 109.7632584804669,78.39850535121514 109.53105590073392,78.39850535121514 109.18275203066878,78.39850535121514 108.524844720494,78.29782700331998 108.25394171033986,78.24748781844391 107.90563784027472,78.197148626321 107.63473483035341,78.197148626321 107.05422838008963,78.14680942671839 106.74462494021282,78.09647021992714 106.39632107014768,78.14680942671839 106.16411849018186,78.04613100577262 104.65480172005482,78.70054021931719 104.5,79.30460916660377 104.5387004299555,79.60664324555546 104.57740086014383,79.95901600510115 104.77090300992131,80.61342160843196 104.80960344010964,80.81477693040506 104.92570472997613,81.46918091876432 104.96440515993163,81.87189045149717 105.04180601984262,82.07324504241114 105.11920688021928,82.6773081140127 105.23530817008577,83.38204703398515 105.27400860004127,83.68407756122178 105.31270902999677,83.98610782533069 105.39010988990776,84.23779951126198 105.46751075005159,84.43915272830054 105.62231247010641,85.09354987656116 105.62231247010641,85.34524075855734 105.7384137599729,85.747945789597 105.7384137599729,86.15065035317093 105.89321548026055,86.80504427131382 105.89321548026055,87.10707181697944 106.00931677012704,87.50977480204892 106.16411849018186,88.16416615524213 106.16411849018186,88.51653021853417 106.24151935009286,88.8185562735016 106.28021978028119,89.01990683056647 106.4737219302915,89.57362025990733 106.6285236501135,90.27834516379517 106.70592451002449,90.53003228246234 106.78332537040114,90.83205658366205 106.86072623031214,91.13408062173403 106.97682752017863,91.63745343394112 107.05422838008963,92.04015115762013 107.13162924046628,92.39251128223259 107.20903010037728,92.644196866313 107.36383182019927,93.29857852993882 107.7121356902644,93.90262204653118 108.13784042047337,94.20464341013576 108.83444816037081,94.30531713960227 109.10535117052495,94.40599083984853 109.37625418044627,94.45632767886855 109.87935977056623,94.45632767886855 110.22766364063136,94.40599083984853 110.5759675106965,94.35565399326151 110.84687052085064,94.30531713960227 111.50477783079259,94.15430653450312 111.81438127090223,94.10396965162363 112.08528428082354,94.05363276117714 112.47228858084418,94.00329586354201 113.01409460091963,94.05363276117714 113.28499761107378,94.10396965162363 113.51720019127242,94.10396965162363 113.82680363114923,94.15430653450312 114.48471094132401,94.15430653450312 114.79431438120082,94.20464341013576 115.06521739112213,94.25498027857975 115.3748208314646,94.25498027857975 115.95532728126273,94.40599083984853 116.18752986122854,94.45632767886855 116.53583373129368,94.50666451078723 117.15504061174579,94.45632767886855 117.4646440516226,94.40599083984853 118.08385093160905,94.30531713960227 118.70305781182833,94.30531713960227 119.01266125170514,94.35565399326151 119.28356426185928,94.50666451078723 119.63186813192442,94.6073381525639 120.28977544186637,94.80868534839828 120.56067845202051,94.80868534839828 120.87028189189732,94.85902212900692 121.17988533200696,94.85902212900692 122.10869565233588,94.95969566848362 122.41829909221269,95.06036917862366 122.7279025320895,95.16104265974718 123.19230769225396,95.21137938924949 123.5019111323636,95.31205282645533 123.81151457224041,95.31205282645533 124.12111801235005,95.31205282645533 125.01122790225782,95.11070592296892 125.43693263246678,94.6073381525639 125.63043478270993,93.95295895871823 125.66913521266542,93.34891552978661 125.74653607257642,92.99655637706746 125.78523650253192,92.69453396115568 125.63043478270993,91.78846513517783 125.55303392233327,91.48644166701706 125.47563306242228,91.18441793590318 125.43693263246678,90.93273129215231 125.35953177255578,90.27834516379517 125.28213091264479,89.92598289085436 125.28213091264479,89.57362025990733 125.28213091264479,89.27159486257005 125.20473005250096,88.76821861587814 125.08862876263447,88.46619251708034 124.93382704234682,88.16416615524213 124.58552317251451,87.76146393019008 124.3533205925487,87.81180173382745 124.12111801235005,87.81180173382745 123.65671285241842,87.71112611918943 123.42451027245261,87.30842336796923 123.34710941230878,87.00639599765418 123.26970855239779,86.70436836429872 123.19230769225396,86.3520024594327 123.03750597219914,85.79828388572787 122.96010511228815,85.4962551999779 123.19230769225396,84.64050582851632 123.69541328214109,83.93576946630492 123.5019111323636,83.73441595683107 123.26970855239779,83.48272390573402 122.99880554224364,82.6773081140127 123.5019111323636,81.97256776160793 123.77281414251775,81.87189045149717 124.23721930244938,81.46918091876432 124.3533205925487,81.16714846223476 124.66292403242551,80.71409928397043 125.43693263246678,80.81477693040506 125.55303392233327,81.01613213517703 125.74653607257642,81.11680969392182 126.01743908249773,81.16714846223476 126.55924510280602,81.51951963591273 126.791447682539,81.67053574352758 127.06235069269314,81.92222911014687 127.79765886277892,82.42561529547675 128.10726230288856,82.52629244478885 128.3781653130427,82.6269695648225 128.6877687529195,82.72764665572322 129.19087434280664,83.02967775298748 129.38437649304979,83.23103167169029 129.8874820829369,83.53306233050535 130.39058767305687,83.73441595683107 130.661490683211,83.73441595683107 130.93239369313233,83.73441595683107 131.24199713324197,83.73441595683107 132.20950788329355,84.03644617716782 132.4417104634922,84.08678452169988 132.75131390360184,84.23779951126198 132.98351648333482,84.33847613443504 133.17701863334514,84.43915272830054 133.75752508360893,84.7411823347793 133.98972766357474,84.84185881196754 134.26063067372888,84.9425352596154 134.5315336836502,85.09354987656116 135.07333970372565,85.29490259671002 135.3442427138798,85.39557891301229 135.6538461537566,85.54659333266318 136.11825131392106,85.79828388572787 136.77615862409584,86.1003123082337 137.04706163378432,86.15065035317093 137.3953655040823,86.2513264209847 137.6662685140036,86.3520024594327 138.09197324421257,86.40234046781552 138.36287625413388,85.84862197449547 138.36287625413388,85.54659333266318 138.40157668408938,84.99287347248173 138.32417582417838,84.43915272830054 138.32417582417838,84.08678452169988 138.2080745343119,83.28137013304513 138.2467749642674,82.42561529547675 138.2467749642674,82.22426090901718 138.2467749642674,81.92222911014687 138.28547539422289,81.72087443139753 138.16937410412356,80.96579334497801 138.16937410412356,80.56308275973424 138.1306736744009,80.21071061410476 138.16937410412356,79.60664324555546 138.16937410412356,79.35494819789892 138.16937410412356,79.05291389976628 138.2467749642674,78.49918366991915 138.16937410412356,77.84477407613304 138.16937410412356,77.49239916796796 138.1306736744009,77.14002390170936 138.16937410412356,76.83798767419648 138.05327281402424,76.08289595419774 137.85977066401392,75.27746297363774 137.82107023405842,75.02576478361152 137.85977066401392,74.8244061000878 137.78236980410293,74.57270758107188 137.78236980410293,74.27066911707516 137.74366937414743,73.71693124994636 137.74366937414743,72.96183273292263 137.78236980410293,72.55911285159527 137.70496894419193,72.40809277561493 137.74366937414743,72.10605242595193 137.6662685140036,71.60265125861042 137.82107023405842,70.99856889329385 137.89847109396942,70.84754813753534 137.78236980410293,69.589039280836 137.70496894419193,69.2869964755082 137.74366937414743,68.78359121529502 137.70496894419193,68.53188831114676 137.74366937414743,68.22984458485735 137.74366937414743,67.82711920735892 137.70496894419193,67.12234867105144 137.78236980410293,66.11553113392438 137.6662685140036,65.20939285069471 137.6275680840481,64.85700510110473 137.6275680840481,64.50461699333391 137.5501672241371,63.85018098578439 137.51146679394878,63.49779185472289 137.4340659340378,62.793012518115574 137.4340659340378,62.59164673020132 137.3953655040823,61.98754866482341 137.3953655040823,61.58481603645487 137.4340659340378,61.28276625816943 137.3566650741268,60.47729889646871 137.3566650741268,60.27593176352093 137.3566650741268,59.57114587764954 137.3179646441713,59.26909434507252 137.3953655040823,58.86635855905479 137.3566650741268,58.56430641247425 137.27926421398297,57.55746402346995 137.24056378402747,57.205068496550666 137.24056378402747,56.85267261142144 137.20186335407197,56.50027636819868 137.20186335407197,55.89616768917767 137.20186335407197,55.54377047371236 137.04706163378432,55.14103036036249 137.3566650741268,55.09068781332462 137.74366937414743,54.99000269724638 137.97587195411325,54.93966012814781 138.32417582417838,54.93966012814781 139.02078356430866,54.88931755174417 139.3303870044183,54.83897496832651 139.7173913042061,54.788632377341855 139.98829431436025,54.68794717354467 140.6849020542577,54.68794717354467 141.03320592432283,54.68794717354467 141.3428093646653,54.68794717354467 141.6137123745866,54.73828977913945 142.23291925457306,54.788632377341855 143.27783086476848,54.88931755174417 143.51003344496712,54.93966012814781 145.25155279505998,55.14103036036249 146.52866698498838,55.04034525889438 148.03798375534825,55.342400475550676 148.27018633531407,55.392742986034136 148.5023889155127,55.493427985173184 148.77329192543402,55.59411295503378 149.5473005254753,55.54377047371236 150.01170568540692,55.44308548927074 150.2439082658384,55.392742986034136 151.134018155979,55.29205795767484 151.67582417582162,55.44308548927074 152.6433349258732,55.94651011933456 152.95293836598285,55.795482807123335 153.6108456759248,55.69479789570323 153.72694696602412,55.84582525183214 154.3074534162879,55.84582525183214 155.4297658863943,55.59411295503378 155.7780697562266,55.59411295503378 156.16507405648008,55.69479789570323 156.86168179661036,55.795482807123335 157.5969899664633,55.745140355080366 157.98399426648393,55.745140355080366 158.3709985667374,55.69479789570323 158.4870998566039,55.745140355080366 159.06760630686767,55.745140355080366 159.41591017669998,55.795482807123335 160.30602006684057,55.99685254221549 160.53822264703922,55.99685254221549 161.00262780697085,56.04719495767495 161.6605351169128,56.04719495767495 162.3958432872314,56.04719495767495 162.78284758725204,55.99685254221549 163.4020544672385,56.04719495767495 164.02126134745777,56.04719495767495 165.37577639753,56.04719495767495 166.07238413742743,56.04719495767495 166.7302914476022,56.04719495767495 166.96249402756803,56.14787976682419 167.3494983278215,56.24856454663677 167.65910176793113,56.29890692551271 167.85260391770862,56.39959166146582 168.82011466799304,56.39959166146582 169.09101767791435,56.44993401854299 169.478021977935,56.39959166146582 169.7102245579008,56.50027636819868 170.36813186807558,56.600961045594886 171.02603917825036,56.65130337359733 172.69015766843222,56.85267261142144 173.27066411846317,56.85267261142144 173.6189679885283,56.85267261142144 173.88987099868245,56.80233031301759 174.85738174873404,57.054041732568294 175.283086478943,57.10438399462146 176.01839464879595,57.40643741295207 176.2505972289946,57.75883273515501 176.09579550870694,58.06088558351621 176.01839464879595,58.41328024058021 175.90229335869662,58.71533251868095 175.70879120891914,59.26909434507252 175.4765886287205,60.22558996209409 175.360487338854,60.32627355775912 175.283086478943,60.82969109748956 175.08958432869986,61.383449546818156 174.85738174873404,62.39028082546429 175.16698518861085,63.09506098067504 175.283086478943,63.5481331810297 175.515289058676,64.30325219949009 175.6700907787308,64.50461699333391 175.74749163887464,64.65564051191905 176.59890109905973,65.56178024216206 177.25680840900168,65.00802846622537 177.25680840900168,64.80666396487504 177.6825131389778,64.25291098281741 177.95341614913195,64.10188728879439 178.80482560908422,63.24608511326369 178.95962732913904,63.14540236548055" stroke="#4dd2ff" stroke-linecap="round" stroke-linejoin="round" stroke-width="0.5"><title>2022-08-31 5.5km</title></polyline><polyline fill="none" points="86.90041189594194,205.8648354402976 86.57654984621331,205.8648354402976 86.25268779648468,205.9250165198464 84.81844157655723,205.74447325462825 84.44831351959147,205.6842921488278 83.98565344861709,205.62411103432532 83.06033330666833,205.56392991082976 81.25595902954228,205.56392991082976 80.88583097280934,205.56392991082976 80.33063888782635,205.56392991082976 79.40531874564476,205.4435676378198 79.08145669591613,205.4435676378198 78.57253061793745,205.3833864883636 76.21296425582841,205.2028429870843 75.65777217061259,205.14266180241248 74.45485598570667,204.9621181966213 74.13099393621087,204.84175574890105 73.89966390072368,204.78157451190054 73.29820580827072,204.6612120118225 72.88181174430065,204.6612120118225 72.60421570180915,204.6612120118225 69.41186121175997,204.11958032861003 67.70001894934103,204.30012430169154 67.28362488537095,204.2399429861689 66.86723082140088,204.1797616617987 66.4508367574308,204.1797616617987 65.57178262248635,204.05939898689394 65.15538855874911,204.05939898689394 64.6927284875419,203.99921763624297 63.90620636683889,203.99921763624297 63.44354629586451,203.99921763624297 62.98088622489013,203.93903627700638 62.101832089945674,203.87885490903864 61.639172018971294,203.87885490903864 61.22277795500122,203.87885490903864 60.62131986278109,203.81867353239795 60.29745781328529,203.81867353239795 59.74226572783664,203.7584921467933 59.325871663866565,203.6381293493905 59.14080763538368,203.69831075248658 58.49308353615925,203.51776651738328 57.56776339397766,203.4575850882684 57.05883731599897,203.4575850882684 55.80965512432158,203.6381293493905 54.79180296789855,203.57794793776702 53.95901484019123,203.4575850882684 53.6351527904626,203.51776651738328 53.218758726492524,203.51776651738328 51.22932042134926,203.6381293493905 50.99799038586207,204.84175574890105 50.905458371620625,205.62411103432532 50.85919236438349,206.10555970665882 50.81292635737918,206.52682683622697 50.76666035037488,207.12863627870684 50.72039434313774,207.42954067248502 50.674128336366266,207.97116803037352 50.674128336366266,208.21189107361715 50.53533031488769,209.7164069256105 50.53533031488769,210.13767038556398 50.39653229364194,211.10055668649147 50.39653229364194,211.58199899809551 50.3502662864048,212.12362093050615 50.25773427239619,212.36434156197356 50.25773427239619,213.38740268698893 50.3040002794005,213.86884234263562 50.3040002794005,214.16974184344872 50.211468265159056,215.614056406921 49.93387222266756,217.118545392761 49.37868013721891,218.08141547822743 49.23988211597316,218.5628496821737 49.193616108968854,218.92392496814136 49.00855208048597,219.7062536755402 48.962286073481664,220.24786499273614 48.91602006624453,220.78947560227243 48.86975405924022,221.03019120157114 48.360827981028706,221.93287345391582 47.62057186756283,222.05323093902553 47.435507839079946,222.11340966861462 47.111645789351314,222.11340966861462 46.648985718376935,222.11340966861462 44.9834094629623,221.8726946983079 44.47448338475078,221.93287345391582 43.73422727105208,221.93287345391582 43.36409921431914,221.93287345391582 42.855173136107624,221.93287345391582 42.06865101540461,221.8726946983079 40.541872781235725,221.6921583787189 40.12547871726565,221.6921583787189 39.75535066029988,221.63197958824458 38.87629652535543,221.51162198075326 38.50616846862249,221.5718007889227 38.08977440465242,221.5718007889227 37.67338034091517,221.51162198075326 37.02565624145791,221.4514431639982 36.79432620597072,221.4514431639982 36.47046415624209,221.39126433848287 36.2391341207549,221.39126433848287 35.915272071026266,221.33108550406178 35.08248394331895,221.33108550406178 34.71235588658601,221.27090666108415 34.434759843861684,221.27090666108415 32.53785355272703,221.6921583787189 32.352789524244145,222.11340966861462 32.121459488756955,222.5346605302184 31.797597439028323,222.95591096382122 29.99322316213511,223.9789459487656 29.946957155130804,224.4001949147787 29.946957155130804,224.70108677106327 29.946957155130804,225.12233500322327 29.99322316213511,225.84447383371298 30.08575517637655,226.2055427772284 30.409617225872353,227.34892569013755 30.45588323310949,228.01088277739473 30.502149240346625,228.31177201279206 30.502149240346625,228.67283880739706 30.54841524735093,229.1542607108131 30.502149240346625,229.39497145291534 30.502149240346625,230.17728039933718 30.54841524735093,230.47816806245828 30.54841524735093,230.77905550721334 30.594681254588068,231.26047496453975 30.640947261825204,231.98260310245678 30.640947261825204,232.40384393537533 30.640947261825204,233.18614720343612 30.68721326859668,233.96844899532152 30.77974528283812,234.2693339069665 30.77974528283812,234.63039551253314 30.872277297079563,234.9914568036911 30.91854330408387,235.773755188653 30.872277297079563,236.134815483907 30.872277297079563,236.4958754647232 30.91854330408387,236.91711171146017 30.964809311321005,237.63922999572242 31.01107531855814,238.00028866610955 31.01107531855814,238.42152338425512 31.01107531855814,238.7825813734089 31.057341325562447,239.50469640822848 31.057341325562447,239.8055773015949 31.057341325562447,240.64804264111444 31.103607332566753,240.94892270467244 31.103607332566753,241.3099784924998 31.14987333957106,241.73120984775596 31.196139346808195,242.51349551448948 31.196139346808195,242.93472564689 31.288671361049637,244.01788687866065 31.288671361049637,244.43911548232427 31.288671361049637,244.80016823057667 31.2424053538125,245.28157140570693 31.334937368053943,246.0638503730297 31.334937368053943,246.4249017063412 31.38120337505825,246.78595272515668 31.38120337505825,247.14700342935976 31.47373538929969,247.92927887654514 31.47373538929969,248.35050350619713 31.520001396536827,248.71155284787528 31.520001396536827,249.13277668258524 31.566267403541133,249.91504838285618 31.566267403541133,250.33627099479781 31.566267403541133,250.69731860703905 31.566267403541133,251.05836590504623 31.61253341054544,251.6601107030292 31.658799417782575,252.0211571622931 31.70506542501971,252.38220330741024 31.70506542501971,252.80342341255164 31.751331432024017,253.52551402559038 31.84386344603263,253.8865588605695 31.84386344603263,254.30777743732324 31.890129453269765,254.6688215910399 31.982661467278376,255.4510828453931 32.02892747451551,255.87229983246652 32.121459488756955,256.23334262357093 32.16772549599409,256.6545588160516 32.30652351723984,257.3766427215596 32.352789524244145,257.79785775230266 32.39905553124845,258.1588988666772 32.49158754548989,258.51993966655573 32.72291758120991,259.24202032311587 32.72291758120991,259.60306017971016 32.86171560222283,259.9640997220122 32.907981609459966,260.3251389499346 33.09304563794285,261.04721646234975 33.13931164517999,261.4684277638444 33.2318436591886,261.7692927173921 33.278109666192904,262.19050328529556 33.46317369467579,262.85240474168677 33.55570570891723,263.15326869065757 33.64823772292584,263.45413242137874 33.740769737400115,263.8151686100464 33.92583376565017,264.65758516069036 34.01836577989161,265.07879279443296 32.63038556696847,265.5 30.964809311321005,265.1991377539525 30.54841524735093,265.07879279443296 30.132021183380857,264.8381027704745 29.252967048436403,264.53724004427204 28.882838991703466,264.41689489246346 28.050050863763317,264.2965497057594 27.541124785784632,264.2965497057594 26.800868672085926,264.0558592278394 26.477006622590125,263.69482324874843 26.245676587102935,263.5143051413761 25.783016515895724,263.03292313730344 25.59795248764567,262.73205910090473 25.320356445154175,262.4311948462855 24.996494395192713,261.7692927173921 24.857696373946965,261.40825474704616 24.533834324218333,259.78357999020955 24.58010033145547,259.36236697703134 24.718898352468386,258.51993966655573 24.857696373946965,258.09872536946204 25.181558423675597,257.3766427215596 25.36662245192565,256.5943851004122 25.36662245192565,256.0528212673089 25.36662245192565,255.2103872319567 25.27409043791704,254.78916957235197 25.089026409434155,254.00690706906607 24.950228388188407,253.64586233903538 24.718898352468386,253.34499149030307 24.395036302972585,252.56272626208374 24.256238281726837,252.14150591232465 24.20997227472253,251.47958735522116 24.302504288731143,251.17871493453276 24.533834324218333,249.97522306797327 24.533834324218333,249.01242705923505 24.44130230997689,248.65137797946227 24.11744026048109,247.86910389459808 23.932376231998205,247.50805381927057 23.701046196511015,247.14700342935976 23.28465213254094,246.36472650585347 23.007056090049446,246.0638503730297 22.544396019075066,245.40192211212707 21.66534188389778,244.49929096226697 21.34147983440198,243.83736020326614 21.156415805919096,243.47630661650328 21.063883791677654,243.0550770345144 21.017617784673348,242.27279238955816 21.11014979891479,241.91173744012485 21.063883791677654,241.49050626845565 21.156415805919096,241.0692746687564 21.156415805919096,240.2869862766238 21.248947820160538,239.56487260444555 21.295213827164844,239.20381529658334 21.387745841639116,238.84275767442887 21.480277855647728,238.36134702217532 21.757873898372054,237.63922999572242 21.896671919617802,237.27817101072287 21.989203933626413,236.8569351308979 22.35933199059218,236.134815483907 22.49813001183793,235.773755188653 22.636928033083677,235.41269457893213 23.099588104290888,234.81092619730043 23.377184146782383,234.44986474895268 23.65478018927388,234.14897996856598 24.44130230997689,233.24632431700593 24.765164359705523,232.88526150590042 25.04276040242985,232.52419838035712 25.551686480408534,231.80207118601538 25.783016515895724,231.44100711707142 25.96808054437861,230.59852306658286 25.96808054437861,230.17728039933718 25.96808054437861,229.75603730394505 25.921814537141472,229.39497145291534 25.921814537141472,228.49230544947204 25.875548530369997,228.01088277739473 25.783016515895724,227.709993323253 25.783016515895724,227.40910365083255 25.783016515895724,226.68696754591656 25.82928252313286,226.26572090384434 25.690484501887113,225.36304808655404 25.644218494649976,224.64090841746656 25.73675050889142,224.2196596961876 25.73675050889142,223.73823206187808 25.82928252313286,222.89573235658463 26.106878565857187,222.29394580452936 26.662070650840178,222.23376710130833 27.402326764538884,222.59483918990009 27.864986835746095,222.655017840676 28.188848885241896,222.7753751160053 28.83657298446633,222.23376710130833 28.882838991703466,221.75233716069488 28.882838991703466,221.39126433848287 28.975371005944908,220.24786499273614 28.929104998940602,219.82661180722062 28.83657298446633,219.46553730746382 28.83657298446633,218.62302891831496 28.790306977694854,218.26195337015088 28.929104998940602,217.2389042757277 28.69777496322058,215.31315795474802 28.60524294921197,214.83171997629688 28.60524294921197,214.41046128669404 28.558976941974834,213.32722269071382 28.512710934970528,212.84578240592964 28.46644492773339,212.42452169812168 28.46644492773339,212.06344075061497 28.420178920729086,211.2810976189503 28.46644492773339,210.9200156754523 28.46644492773339,210.3182117373508 28.37391291372478,209.7765874460165 28.420178920729086,209.05442062346265 28.37391291372478,208.63315606259857 28.37391291372478,208.15171032588114 28.327646906487644,207.1888171749888 28.281380899483338,205.4435676378198 28.188848885241896,205.02229940725374 28.188848885241896,204.6612120118225 28.096316871000454,204.2399429861689 27.957518849754706,203.51776651738328 28.00378485675901,202.67522571372683 28.00378485675901,202.37431786867091 27.957518849754706,201.9530465187563 27.91125284251757,201.71231984099722 27.957518849754706,200.9299571723095 27.957518849754706,200.56886621168815 28.050050863763317,199.84668334704475 28.00378485675901,199.06431715705548 27.957518849754706,198.52267816037056 28.00378485675901,198.10140289596166 28.00378485675901,197.31903341168072 28.00378485675901,196.8375745334779 27.957518849754706,196.53666245070053 28.00378485675901,196.11538516779547 27.957518849754706,195.2126466910122 27.91125284251757,194.85155074988143 27.864986835746095,194.5506372253003 27.818720828508958,194.24972348212032 27.726188814267516,193.647895340604 27.726188814267516,193.2867980361916 27.726188814267516,192.6849684965564 27.726188814267516,192.44423643598566 27.726188814267516,191.72203941550106 27.772454821271822,191.36094043334015 27.726188814267516,190.21745824773097 27.726188814267516,189.85635795487906 27.58739079302177,188.59250445204088 27.58739079302177,188.29158638347872 27.58739079302177,187.44901462909183 27.633656799793243,187.14809573013918 27.58739079302177,186.66662503773114 27.58739079302177,186.30552165117115 27.58739079302177,185.3425777493394 27.541124785784632,185.2222096042533 27.494858778547496,185.16202551851165 27.541124785784632,185.1018414243881 27.541124785784632,185.1018414243881 27.494858778547496,185.1018414243881 27.44859277177602,185.1018414243881 27.44859277177602,185.04165732121328 27.67992280703038,185.1018414243881 28.14258287800476,184.9814732094237 28.512710934970528,184.9814732094237 28.975371005944908,184.92128908875748 29.76189312664792,184.92128908875748 30.132021183380857,184.80092082137708 31.334937368053943,184.5 31.751331432024017,184.5 32.07519348175265,184.5 32.39905553124845,184.56018418166786 33.69450373016298,184.68055251910118 34.11089779413305,184.7407366745174 34.758621893357486,184.7407366745174 35.08248394331895,184.8611049595347 35.40634599304758,184.8611049595347 35.86900606402196,184.92128908875748 36.74806019873358,184.8611049595347 37.21072026994079,184.92128908875748 38.64496649010107,185.2222096042533 39.06136055407114,185.1018414243881 40.63440479547717,185.04165732121328 41.097064866218716,185.1018414243881 41.37466090894304,185.16202551851165 42.253715043887496,185.40276180880028 43.13276917883195,185.52312990123755 43.45663122832775,185.52312990123755 43.873025292297825,185.52312990123755 44.243153349263594,185.4629458594136 45.39980352669954,185.3425777493394 45.86246359767392,185.3425777493394 46.186325647402555,185.40276180880028 49.10108409496024,186.24533772288123 49.3324141302146,186.30552165117115 50.02640423667617,186.3657055706717 50.16520225815475,186.30552165117115 50.95172437862493,186.42588948158664 51.27558642835356,186.48607338379952 52.062108549056575,186.3657055706717 52.80236466275528,186.30552165117115 53.17249271972105,186.30552165117115 53.58888678345829,186.30552165117115 55.25446303910576,186.42588948158664 56.318581202533096,186.60644116185722 56.781241273507476,186.60644116185722 57.42896537296474,186.54625727713574 57.89162544393912,186.78699276328553 59.23333964985795,186.7268089047575 59.51093569258228,186.7268089047575 62.24063011142425,186.9073604538862 64.23006841680035,187.14809573013918 65.01659053750336,187.20827952734544 65.80311265820637,187.32864709571004 66.58963477890939,187.38883086672286 67.93134898482822,187.32864709571004 68.71787110553123,187.38883086672286 69.92078728997149,187.5693821272871 71.03117146040313,187.6897495908779 72.18782163807191,187.8703007203876 72.4654176805634,187.93048441270366 72.60421570180915,187.93048441270366 73.66833386500366,187.9906680964341 74.08472792897373,188.05085177128785 74.87125004967675,187.93048441270366 75.28764411364682,187.9906680964341 75.7040381776169,187.93048441270366 76.0279002271127,187.9906680964341 76.25923026283272,187.9906680964341 76.95322036929429,187.9906680964341 77.32334842602722,188.11103543746867 77.83227450423874,188.05085177128785 78.20240256120451,188.05085177128785 79.08145669591613,188.05085177128785 79.45158475264907,188.11103543746867 79.96051083086058,188.17121909483103 80.74703295179643,188.23140274349134 82.0887471572496,188.4721372508793 82.45887521421537,188.53232085591299 84.35578150558285,188.65268803972867 84.7721755693201,188.65268803972867 85.18856963329017,188.71287161842338 86.530283839209,188.71287161842338 87.03920991742052,188.77305518838693 87.45560398115776,188.83323874976486 88.98238221555948,188.83323874976486" stroke="#4dd2ff" stroke-linecap="round" stroke-linejoin="round" stroke-width="0.5"><title>2022-08-30 5.1km</title></polyline><polyline fill="none" points="184.10944206011482,187.66387808360741 184.6060698959045,187.98688190153916 185.15236051520333,189.14969370374456 185.25168608222157,190.2479020601313 185.35101164947264,190.8293053866364 185.5,192.9611110840051 185.5,195.4159049919399 183.81146535882726,196.70789634576067 183.16584917227738,196.57869737932924 182.42090741870925,196.57869737932924 182.07326793367974,196.44949837526656 181.2290006133262,196.2556997986685 180.88136112806387,196.1265007010079 175.7660944208037,195.73890318218037 174.32587369717658,195.6097039342858 173.72992029436864,195.6097039342858 172.68700183951296,195.6097039342858 171.69374616793357,195.48050464884727 171.24678111588582,195.4159049919399 170.05487431026995,195.2867056503601 169.50858369097114,195.22210596548393 168.36633966909721,195.0929065674427 167.91937461704947,195.0929065674427 167.42274678102694,194.96370713191573 165.58522378909402,194.70530814837548 164.1450030656997,194.83450765893213 162.65511955856346,194.8991074001824 162.10882893949747,194.83450765893213 161.6618638872169,194.7699079082231 160.66860821587034,194.70530814837548 160.12231759657152,194.70530814837548 159.47670141025446,194.70530814837548 158.53310852241702,194.6407083789236 158.08614347013645,194.5761086002458 157.6391784180887,194.4469090148341 156.6955855304841,194.3177093915292 156.14929491118528,194.3177093915292 154.6097486205399,194.51150881219655 154.0634580012411,194.4469090148341 153.61649294919334,194.3177093915292 152.77222562837414,194.3177093915292 151.9279583080206,194.12390988657717 150.93470263667405,193.93011029722402 149.69313304731622,193.60711079402245 149.09717964427546,193.47791092691477 148.74954015947878,193.41331097946386 147.11066830181517,193.15491109559662 146.5147148987744,193.15491109559662 146.06774984672666,193.15491109559662 144.9255058246199,193.2841110561858 144.3792152053211,193.2841110561858 143.43562231771648,193.15491109559662 143.08798283268698,193.0903111010557 142.04506437759846,193.02571109714336 140.40619251993485,192.9611110840051 139.95922746765427,192.9611110840051 138.91630901303142,193.0903111010557 138.1713672594633,193.2841110561858 137.72440220718272,193.15491109559662 137.27743715513498,193.21951108062058 136.73114653583616,193.0903111010557 135.78755364823155,193.02571109714336 135.3902513794601,193.0903111010557 134.4963212753646,192.9611110840051 132.9567749844864,192.896511061379 131.91385652963072,192.896511061379 131.36756591056474,192.9611110840051 130.37431023921818,192.896511061379 129.7783568361774,192.83191102946876 128.3381361127831,192.9611110840051 127.79184549348429,192.9611110840051 127.2952176576946,192.896511061379 126.35162477008998,192.7673109881871 125.06039239722304,193.15491109559662 125.01072961371392,194.83450765893213 124.96106682997197,196.06190113790217 125.01072961371392,196.57869737932924 125.01072961371392,197.28929123128182 125.01072961371392,198.19368176499847 125.01072961371392,198.77507470879937 125.11005518073216,199.29186779886368 125.15971796447411,200.26085322501604 125.20938074798323,200.7130457018793 125.20938074798323,201.81122551762382 125.20938074798323,202.32801508132252 125.20938074798323,203.36159240824054 125.30870631500147,204.78275731237954 125.30870631500147,205.42873985902406 125.4576946659945,207.10829009165172 125.4576946659945,207.4312797941966 125.4576946659945,208.46484526694985 125.50735744927078,208.9170294062933 125.55702023301274,209.4984083387244 125.55702023301274,210.4673715380486 125.60668301652186,210.91955364251044 125.60668301652186,212.4698887973209 125.55702023301274,212.9866659817926 125.55702023301274,213.43884552593227 124.46443899464794,215.05376871844055 123.71949724084698,214.98917190314387 122.32893930119462,214.85997824463993 121.28602084610611,214.60159081532038 120.69006744306535,214.53699393445277 119.69681177171879,214.0202185502858 118.75321888411418,213.6972336305771 118.10760269756429,213.632636618393 116.41906805639155,213.1804572713445 115.67412630282342,212.14690275205066 114.9291845492553,211.8239164725528 113.88626609439962,211.37173528724816 113.48896382586099,211.17794321008842 112.94267320656218,210.98415104846936 111.4031269159168,210.27357906717225 110.95616186386906,210.1443840394204 110.55885959533043,210.01518897429924 109.56560392398387,209.82139630644815 108.82066217041574,209.4984083387244 108.42335990187712,209.24001779587707 108.07572041684762,209.04622479024692 107.72808093181811,208.85243170007016 106.9334763949737,208.27105192359886 106.33752299193293,208.9170294062933 106.436848559184,209.36921308602905 106.53617412620224,210.07978651163285 106.58583690994419,210.40277405711822 106.68516247696243,210.85495622709277 106.78448804398067,211.2425405785325 106.98313917824998,212.08230551501038 107.13212752901018,212.9866659817926 107.28111587977037,213.43884552593227 107.38044144702144,213.9556215851917 107.47976701403968,214.60159081532038 107.5294297975488,214.92457507853396 107.62875536479987,215.37675265345024 107.67841814830899,215.76433306609397 107.82740649906918,216.47489627928007 108.07572041684762,217.70223006568267 108.37369711813517,218.60657911057933 108.47302268538624,219.05875294396537 108.52268546889536,219.51092631768552 108.7213366033975,220.54446373239625 108.82066217041574,220.93203964387067 108.91998773743398,221.38421111399657 109.01931330468506,221.70719045432634 109.21796443895437,222.61153135981294 109.21796443895437,223.06370112334844 109.36695278948173,223.9680392719456 109.41661557322368,224.29101673676632 109.56560392398387,225.1953523910488 109.71459227474406,225.71211479700287 109.86358062550426,226.29347178642638 110.06223175954074,227.1332083189336 110.16155732655898,227.5853734878183 110.2112201100681,228.03753819715348 110.310545677552,228.29591782484204 110.45953402807936,228.94186623764108 110.50919681158848,229.3294348352356 110.55885959533043,229.71700309513835 110.70784794609062,230.1691656386538 110.85683629685082,231.00889485739754 111.20447578164749,232.3653771712561 111.30380134889856,232.75294278701767 111.35346413217485,233.2051022456726 111.35346413217485,233.52807300622226 111.60177805041894,234.69076580327237 111.70110361743718,235.0783293939021 111.7507664009463,235.59508032305166 111.99908031895757,236.49939300498227 112.04874310246669,236.95154865679797 112.14806866948493,237.33911027829163 112.247394236736,237.7266715624428 112.39638258726336,238.56638652013498 112.49570815451443,238.95394673524424 112.6446965050418,239.79365937697003 112.79368485580198,240.18121852347394 112.79368485580198,240.56877733237343 112.89301042305306,240.95633580358117 113.09166155732237,241.9898234103457 113.19098712434061,242.4419734836556 113.29031269182451,242.82953032350633 113.43930104235187,243.21708682601457 113.63795217638835,243.99219881827594 113.73727774363942,244.3797543082037 113.78694052714854,244.76730946041062 113.88626609439962,245.2840491386596 114.03525444492698,246.12374983588234 114.03525444492698,246.51130346933496 114.08491722866893,246.89885676538688 114.18424279592,247.2864097239799 114.5318822809495,248.57825048160157 114.63120784796774,248.96580197749427 114.68087063147686,249.35335313598625 114.73053341498598,249.80549572766176 114.97884733299725,250.96814599691425 115.22716125077568,251.67865299931145 115.42581238504499,252.84129837478395 115.57480073580518,253.29343742263154 115.72378908633254,254.32689637868316 115.87277743709274,254.84362495678943 115.97210300434381,255.2957619705121 116.121091355104,256.00626206363086 116.22041692212224,256.3938070909644 116.27007970563136,256.8459425295878 116.56805640691891,257.6856214113068 116.66738197440282,258.5898892043915 116.76670754142106,258.97743198185344 116.76670754142106,259.42956479563145 117.01502145896666,260.26923880248796 117.41232372773811,261.2380914573441 116.8660331084393,262.2069420030166 116.46873083990067,262.271531964303 116.0217657876201,262.271531964303 115.6244635193143,262.3361219163926 114.7801961984951,262.271531964303 113.43930104235187,262.271531964303 112.94267320656218,262.271531964303 112.44604537077248,262.14235203232965 112.19773145322688,262.14235203232965 111.30380134889856,262.14235203232965 110.85683629685082,262.14235203232965 108.77099938690662,261.1735013460275 108.42335990187712,260.9151408067846 108.02605763310567,260.72137030403246 107.28111587977037,260.26923880248796 106.88381361123174,260.0754680184764 106.78448804398067,258.97743198185344 107.18179031275213,259.04202241188614 107.57909258129075,259.1066128326929 108.37369711813517,259.17120324412826 108.82066217041574,259.23579364607576 109.26762722246349,259.3003840385936 109.66492949100211,259.36497442174004 110.55885959533043,259.36497442174004 111.0554874308873,259.3003840385936 111.45278969942592,259.3003840385936 112.39638258726336,259.36497442174004 112.6446965050418,259.36497442174004 112.99233599030413,259.3003840385936 113.48896382586099,259.3003840385936 114.33323114644736,259.23579364607576 114.63120784796774,258.7190701677173 114.58154506445862,258.33152716522454 114.5318822809495,257.9439838254766 114.5318822809495,257.62103078427026 114.48221949720755,256.8459425295878 114.38289393018931,256.5229886917805 114.33323114644736,256.0708529249241 114.08491722866893,255.2957619705121 113.98559166165069,254.45607857956202 113.6876149601303,253.35802867778693 113.63795217638835,252.90588969551027 113.53862660937011,252.51834163075546 113.43930104235187,252.13079322851263 113.19098712434061,251.29110386580578 113.14132434106432,250.9035543948994 113.04199877358042,250.5160045863886 112.99233599030413,250.0638627166918 112.89301042305306,249.28876129974378 112.79368485580198,248.96580197749427 112.74402207229286,248.6428424209589 112.6446965050418,248.3844746070681 112.49570815451443,247.6093702649232 112.34671980375424,247.15722544194432 112.247394236736,246.76967237101053 112.09840588597581,245.60701113272808 111.99908031895757,245.21945671158028 111.7507664009463,244.44434685699525 111.70110361743718,243.99219881827594 111.65144083369523,243.60464299094747 111.55211526667699,243.21708682601457 111.4031269159168,242.4419734836556 111.30380134889856,242.05441630611313 111.25413856515661,241.66685879102442 111.20447578164749,241.27930093853502 111.00582464737818,240.56877733237343 110.95616186386906,240.11662535573123 110.90649908035994,239.72906615311513 110.75751072959974,239.3415066129237 110.60852237860672,238.5017931179318 110.45953402807936,238.04963904133183 110.45953402807936,237.7266715624428 110.40987124457024,237.27451669817674 110.2112201100681,236.49939300498227 110.11189454304986,236.2410181404848 110.11189454304986,235.85345556246466 110.01256897603162,235.53048648967524 109.8139178417623,234.75535975859384 109.76425505825318,234.3677958866174 109.61526670772582,233.98023167718202 109.56560392398387,233.65726124480716 109.41661557322368,232.81753702356946 109.36695278948173,232.42997146392008 109.31729000597261,232.0424055668409 109.21796443895437,231.65483933204086 109.01931330468506,230.81511133231106 108.9696505209431,230.42754402870196 108.87032495392486,230.03997638743022 108.82066217041574,229.65240840864135 108.62201103637926,228.812676630012 108.47302268538624,228.42510758232675 108.42335990187712,228.03753819715348 108.37369711813517,227.64996847431757 108.22470876737498,226.8748280161526 108.12538320035674,226.48725728079444 108.07572041684762,226.09968620768632 107.97639484959655,225.77671005568118 107.77774371556006,224.93697096320102 107.67841814830899,224.61399396709749 107.5294297975488,224.22642126237042 107.47976701403968,223.90344375075074 107.33077866351232,223.25748802413 107.28111587977037,222.93450980909984 107.18179031275213,222.48233991424786 107.08246474550106,222.09476535304566 106.78448804398067,221.31961521788617 106.68516247696243,220.93203964387067 106.53617412620224,220.156887483201 106.48651134292595,219.7693108964013 106.38718577544205,219.38173397208448 106.28786020842381,218.99415671016322 106.23819742491469,218.2835975200287 106.13887185766362,217.63763363513863 105.94022072316147,216.8624757353973 105.84089515614323,216.41029967032955 105.79123237263411,215.95812314594514 105.64224402210675,215.11836552410387 105.5925812383648,214.66618768670014 105.44359288783744,214.34320323579595 105.44359288783744,213.89102461058064 105.09595340280794,212.66368031184538 104.99662783555686,211.8239164725528 104.99662783555686,211.5009299585363 104.79797670128755,210.7903588024201 104.69865113426931,210.4673715380486 104.59932556701824,209.9505914277106 104.54966278327629,209.17542013668572 104.5,208.72323625985882 104.84763948479667,207.75426926242653 105.89055793988518,208.077258496196 106.73482526047155,208.46484526694985 107.38044144702144,208.9170294062933 107.62875536479987,209.17542013668572 108.22470876737498,209.69220114740892 108.62201103637926,209.88599387175054 109.51594114047475,210.07978651163285 109.9629061925225,210.20898155795294 110.36020846082829,210.3381765668746 110.65818516234867,210.4673715380486 112.247394236736,210.98415104846936 112.8433476393111,211.2425405785325 113.09166155732237,211.37173528724816 113.43930104235187,211.5009299585363 113.78694052714854,211.69472189506632 114.58154506445862,212.01770826854045 114.97884733299725,212.14690275205066 115.72378908633254,212.53448597813258 116.07142857136205,212.72827746448456 116.41906805639155,212.79287460798514 117.16400980995968,213.05126308757463 117.61097486200742,213.2450543490413 117.95861434703693,213.43884552593227 118.70355610037223,213.76183063341887 119.05119558563456,213.9556215851917 119.44849785394035,214.14941245279624 119.84580012271181,214.34320323579595 120.64040465978906,214.66618768670014 121.08736971206963,214.73078454867937 121.38534641312435,214.85997824463993 121.8323114651721,214.92457507853396 122.97455548751168,215.24755910751992 123.47118332306854,215.24755910751992 125.30870631500147,214.79538140128716 125.3583690985106,214.66618768670014 125.40803188225254,214.73078454867937 125.4576946659945,214.66618768670014 125.4576946659945,214.66618768670014 125.55702023301274,214.2786063174135 125.50735744927078,213.82642762665637 125.55702023301274,213.50344256625976 125.60668301652186,212.66368031184538 125.65634580003098,212.21149997995235 125.65634580003098,211.6301245923387 125.75567136704922,210.6611639248731 125.60668301652186,209.88599387175054 125.55702023301274,209.4984083387244 125.50735744927078,209.04622479024692 125.40803188225254,208.14185631475993 125.40803188225254,207.689671387634 125.4576946659945,207.237486001075 125.4576946659945,206.9144961576967 125.40803188225254,206.01012334940606 125.3583690985106,205.55793625599472 125.3583690985106,205.2995434247423 125.30870631500147,204.91195389669156 125.20938074798323,204.13677382768947 125.25904353149235,203.61998636464705 125.25904353149235,203.23239537348854 125.20938074798323,202.84480404487113 125.11005518073216,201.42363295095856 125.11005518073216,201.03604004648514 125.06039239722304,200.5838478980586 125.06039239722304,200.26085322501604 125.01072961371392,199.35646689299028 124.86174126295373,198.90427303747856 124.86174126295373,198.19368176499847 124.81207847944461,197.74148672790034 124.86174126295373,197.28929123128182 124.76241569593549,196.9662941666029 124.86174126295373,196.06190113790217 124.86174126295373,195.67430356304976 124.91140404646285,195.22210596548393 124.91140404646285,194.38230920789647 125.55702023301274,193.60711079402245 126.0536480685696,193.54251086513977 126.69926425511949,193.67171071338817 127.09656652365811,193.67171071338817 127.4938687919639,193.73631062335335 127.89117106073536,193.67171071338817 128.7354383810889,193.8009105240635 129.43071735138074,193.73631062335335 129.9273451869376,193.86551041522762 130.32464745547622,193.93011029722402 131.21857755980454,194.12390988657717 131.91385652963072,194.3177093915292 132.3608215819113,194.38230920789647 132.7084610669408,194.4469090148341 133.25475168623962,194.51150881219655 134.19834457384422,194.5761086002458 134.74463519314304,194.5761086002458 135.19160024519078,194.5761086002458 135.9365419987589,194.70530814837548 138.41968117724173,194.70530814837548 138.91630901303142,194.70530814837548 139.36327406507917,194.7699079082231 140.70416922145523,195.35130532598123 141.00214592274278,195.35130532598123 141.3497854077723,195.35130532598123 141.84641324356198,195.4159049919399 144.23022685479373,195.67430356304976 144.67719190684147,195.6097039342858 145.12415695912205,195.48050464884727 145.96842427970842,195.35130532598123 146.41538933175616,195.35130532598123 146.76302881655283,195.35130532598123 147.65695892088115,195.4159049919399 148.99785407725722,195.48050464884727 149.4448191295378,195.545104296325 149.79245861433446,195.6097039342858 150.2394236663822,195.67430356304976 150.93470263667405,195.6097039342858 151.43133047199808,195.67430356304976 151.9776210912969,195.67430356304976 152.8218884121161,195.67430356304976 153.26885346416384,195.67430356304976 153.61649294919334,195.80350279205595 154.1131207847502,195.80350279205595 154.90772532182746,195.8681023924728 155.20570202334784,195.93270198378013 155.7023298589047,195.99730156559963 156.14929491118528,195.93270198378013 157.0928877987899,195.99730156559963 157.49019006756134,196.06190113790217 158.03648068686016,195.99730156559963 158.93041079095565,196.1265007010079 160.22164316358976,196.32029933368904 160.66860821587034,196.44949837526656 161.61220110370778,196.51409788191086 162.0095033722464,196.64329686731799 162.9034334763419,196.64329686731799" stroke="#4dd2ff" stroke-linecap="round" stroke-linejoin="round" stroke-width="0.5"><title>2022-08-29 5.6km</title></polyline></svg>