<?xml version="1.0" encoding="utf-8" ?>
<svg baseProfile="full" height="300mm" version="1.1" viewBox="0,0,200,300" width="200mm" xmlns="http://www.w3.org/2000/svg" xmlns:ev="http://www.w3.org/2001/xml-events" xmlns:xlink="http://www.w3.org/1999/xlink"><defs /><rect fill="#222222" height="300" width="200" x="0" y="0" /><text fill="#FFFFFF" style="font-size:12px; font-family:Arial; font-weight:bold;" x="10" y="20">Over 5km Runs</text><text fill="#FFFFFF" style="font-size:4px; font-family:Arial" x="10" y="280">ATHLETE</text><text fill="#FFFFFF" style="font-size:9px; font-family:Arial" x="10" y="290">cvvz</text><text fill="#FFFFFF" style="font-size:4px; font-family:Arial" x="120" y="280">STATISTICS</text><text fill="#FFFFFF" style="font-size:3px; font-family:Arial" x="120" y="285">Number: 5</text><text fill="#FFFFFF" style="font-size:3px; font-family:Arial" x="120" y="290">Weekly: 5.0</text><text fill="#FFFFFF" style="font-size:3px; font-family:Arial" x="141" y="285">Total: 27.1 km</text><text fill="#FFFFFF" style="font-size:3px; font-family:Arial" x="141" y="290">Avg: 5.4 km</text><text fill="#FFFFFF" style="font-size:3px; font-family:Arial" x="167" y="285">Min: 5.1 km</text><text fill="#FFFFFF" style="font-size:3px; font-family:Arial" x="167" y="290">Max: 5.7 km</text><polyline fill="none" points="85.60470588237513,70.51445706983213 85.60470588237513,70.77154955512378 85.32235294103157,71.06536921852967 84.02352941175923,71.46937069841078 83.74117647053208,71.46937069841078 83.43058823526371,71.50609807361616 82.9223529411247,71.46937069841078 82.64000000001397,71.43264331787941 82.13176470587496,71.35918854066404 81.59529411769472,71.28573374199914 81.31294117635116,71.24900633480866 81.03058823535684,71.21227892220486 80.52235294110142,71.21227892220486 80.12705882347655,71.21227892220486 79.95764705876354,71.17555150424596 79.39294117642567,71.13882408101927 79.13882352935616,71.13882408101927 78.57411764690187,71.13882408101927 77.72705882345326,71.21227892220486 77.5011764705414,71.21227892220486 77.24705882347189,71.21227892220486 76.73882352933288,71.21227892220486 76.5129411763046,71.17555150424596 76.31529411766678,71.13882408101927 76.0894117646385,71.13882408101927 75.21411764703225,71.06536921852967 73.54823529394343,71.76318955121678 73.3505882351892,72.27737172247726 73.2658823528327,72.53446241622441 73.1811764704762,72.75482566008577 72.89882352936547,73.30573292981717 72.19294117647223,73.9300930518657 71.96705882356036,73.9300930518657 71.74117647053208,73.89336602855474 70.41411764698569,73.67300377649372 70.04705882340204,73.41591423985665 68.91764705872629,73.63627671578433 68.23999999999069,73.63627671578433 67.73176470573526,73.489368419745 67.50588235282339,73.41591423985665 67.28000000002794,73.37918714177795 66.68705882353242,73.34246003851877 66.46117647062056,73.30573292981717 65.95294117636513,73.37918714177795 65.72705882356968,73.45264133249293 65.55764705874026,73.489368419745 65.38823529402725,73.56282257853309 64.88000000000466,73.56282257853309 64.14588235295378,73.63627671578433 63.77882352937013,73.30573292981717 63.75058823521249,72.86500721002812 63.609411764657125,72.20391719069448 63.722352941171266,71.76318955121678 63.891764705767855,71.50609807361616 64.23058823519386,71.10209665252478 64.65411764697637,70.99191433464875 64.79529411764815,70.95518688479206 65.07764705875888,70.91845942949294 65.27529411762953,70.88173196895514 66.06588235299569,71.10209665252478 66.178823529277,72.05700806283858 66.0941176469205,72.20391719069448 66.03764705883805,72.35082623315975 66.00941176456399,72.57118963688845 65.92470588220749,72.7915528487647 65.6705882352544,73.30573292981717 65.24705882335547,73.489368419745 65.02117647056002,73.5260955017875 64.82352941168938,73.56282257853309 64.28705882339273,73.56282257853309 63.581176470499486,73.37918714177795 63.10117647051811,73.489368419745 62.79058823513333,74.07700109190773 62.705882352776825,74.51772470015567 62.64941176469438,74.77481311708107 62.592941176495515,75.21553550957469 62.451764705823734,75.69298390176846 62.42352941178251,76.24388477296452 62.39529411762487,76.464244785544 62.36705882346723,76.75805783708347 62.282352941227145,77.30895638899528 62.16941176459659,77.71294789787498 61.80235294112936,78.26384437034721 61.74588235281408,78.41074989366462 61.60470588225871,78.85146595188417 61.54823529405985,79.0718236930843 61.49176470586099,79.36563371619559 61.51999999990221,79.95325273857452 61.407058823504485,80.54087039604201 61.06823529407848,80.83467871299945 60.644705882295966,80.83467871299945 60.07999999995809,80.65104855492245 59.31764705874957,80.65104855492245 58.89411764696706,80.68777459717239 58.58352941169869,80.72450063418364 58.301176470471546,80.72450063418364 57.70823529409245,80.68777459717239 57.05882352939807,80.50414433248807 56.861176470527425,80.46741826360812 56.6635294117732,80.46741826360812 56.35294117638841,80.3939661096083 54.376470588264056,80.46741826360812 54.122352941078134,80.3939661096083 53.811764705809765,80.3939661096083 53.30352941167075,80.32051393442089 53.10588235303294,80.32051393442089 52.795294117648154,80.32051393442089 51.609411764657125,80.28378783885273 51.55294117645826,80.28378783885273 51.496470588142984,80.68777459717239 51.46823529410176,80.98158274352318 50.84705882356502,81.67937572335359 50.56470588222146,81.71610161641729 49.85882352932822,81.64264982499299 48.89882352936547,81.34884244648856 48.58823529398069,81.27539054851513 48.3341176470276,81.20193862932501 47.79764705884736,80.98158274352318 47.57176470570266,80.87140472859028 47.31764705874957,80.72450063418364 46.86588235280942,80.54087039604201 46.611764705739915,80.3939661096083 46.35764705867041,80.28378783885273 44.889411764685065,79.62271720639546 44.63529411761556,79.51253859975259 44.38117647054605,79.36563371619559 43.70352941157762,79.03509741625749 43.421176470583305,78.96164484650944 43.16705882339738,78.8881922554574 42.60235294105951,78.77801332887611 42.4329411763465,78.70456068450585 41.98117647052277,78.52092898025876 41.7552941176109,78.41074989366462 41.5858823528979,78.26384437034721 41.16235294111539,77.89658018865157 40.71058823529165,77.6762214236951 40.2588235293515,77.38240943851997 40.08941176452208,77.41913595539518 40.004705882281996,77.41913595539518 39.80705882341135,77.38240943851997 38.988235294120386,76.86823764341534 38.70588235289324,76.83151104667922 38.45176470594015,76.794784444588 37.94352941168472,76.75805783708347 37.689411764615215,76.75805783708347 37.46352941170335,76.72133122425294 37.23764705879148,76.68460460621282 36.75764705881011,76.64787798281759 36.53176470589824,76.61115135406726 36.277647058828734,76.57442471990362 36.05176470580045,76.53769808050129 35.59999999997672,76.50097143568564 35.37411764706485,76.464244785544 35.14823529415298,76.464244785544 34.97882352943998,76.42751813019277 34.809411764726974,76.42751813019277 34.30117647058796,76.35406480336678 34.047058823518455,76.31733813189203 33.76470588229131,76.31733813189203 33.2564705881523,76.28061145520769 33.03058823524043,76.24388477296452 32.80470588232856,76.20715808554087 32.578823529416695,76.20715808554087 32.127058823476546,76.13370469477377 31.90117647056468,76.13370469477377 31.67529411765281,76.09697799134301 31.44941176462453,76.09697799134301 31.025882352958433,76.0235245685908 30.800000000046566,75.98679784900742 30.5741176471347,75.95007112430176 30.37647058814764,75.95007112430176 29.92470588244032,75.9133443942701 29.69882352941204,75.87661765888333 29.501176470541395,75.83989091814146 29.275294117513113,75.83989091814146 28.87999999988824,75.80316417204449 28.65411764709279,75.76643742062151 28.456470588222146,75.72971066381433 28.287058823509142,75.72971066381433 28.145882352953777,75.69298390176846 28.004705882281996,75.69298390176846 27.665882352972403,75.65625713439658 27.524705882300623,75.65625713439658 27.29882352927234,75.61953036169871 27.101176470634528,75.58280358358752 26.87529411772266,75.58280358358752 26.45176470594015,75.54607680020854 26.225882352911867,75.54607680020854 26.028235294041224,75.50935001144535 25.830588235286996,75.47262321732705 25.039999999920838,75.58280358358752 24.757647058810107,75.54607680020854 24.475294117582962,75.50935001144535 23.99529411760159,75.47262321732705 23.741176470532082,75.43589641797007 23.48705882357899,75.39916961328709 22.978823529323563,75.3257159878558 22.724705882254057,75.2889891671366 22.47058823518455,75.2889891671366 21.934117647004314,75.21553550957469 21.679999999934807,75.21553550957469 21.4258823528653,75.1788086729357 20.945882352883928,75.1420818309125 20.776470588170923,75.10535498347599 20.607058823341504,75.06862813080079 20.183529411791824,75.03190127265407 19.98588235292118,74.99517440923955 19.73176470573526,74.95844754058635 19.449411764740944,74.95844754058635 18.912941176560707,74.88499378727283 18.630588235217147,74.8482669024961 18.37647058814764,74.8115400125098 17.896470588166267,74.77481311708107 17.642352941213176,74.73808621632634 17.35999999998603,74.73808621632634 16.823529411572963,74.6646323989844 16.569411764503457,74.6646323989844 16.315294117550366,74.62790548230987 15.807058823527768,74.5544516328955 15.552941176341847,74.5544516328955 15.270588235347532,74.48099776211893 14.762352941092104,74.4442708187853 14.254117647069506,74.40754387012566 14.0,74.37081691602361 14.056470588198863,74.37081691602361 14.31058823526837,74.40754387012566 14.564705882337876,74.4442708187853 15.04470588231925,74.51772470015567 15.29882352927234,74.51772470015567 15.552941176341847,74.5544516328955 15.778823529253714,74.5544516328955 16.287058823509142,74.59117856022203 16.51294117642101,74.6646323989844 16.795294117648154,74.70135931030381 17.303529411670752,74.73808621632634 17.529411764699034,74.77481311708107 17.7552941176109,74.77481311708107 18.291764705791138,74.8482669024961 18.545882352860644,74.88499378727283 18.77176470577251,74.88499378727283 18.997647058800794,74.92172066660714 19.477647058665752,74.99517440923955 19.98588235292118,74.99517440923955 20.239999999990687,75.03190127265407 20.494117646943778,75.06862813080079 20.945882352883928,75.1420818309125 21.199999999953434,75.1788086729357 21.45411764702294,75.1788086729357 21.679999999934807,75.21553550957469 22.075294117676094,75.2522623410332 22.301176470471546,75.2889891671366 22.527058823616244,75.3257159878558 22.781176470569335,75.3257159878558 23.261176470434293,75.39916961328709 23.5152941175038,75.39916961328709 23.76941176468972,75.43589641797007 24.277647058828734,75.50935001144535 24.531764705781825,75.50935001144535 24.757647058810107,75.54607680020854 24.983529411721975,75.54607680020854 25.830588235286996,75.43589641797007 26.084705882240087,75.47262321732705 26.338823529309593,75.47262321732705 26.84705882356502,75.58280358358752 27.101176470634528,75.58280358358752 27.35529411758762,75.58280358358752 27.835294117568992,75.65625713439658 28.061176470597275,75.69298390176846 28.287058823509142,75.69298390176846 28.51294117642101,75.72971066381433 28.93647058820352,75.72971066381433 29.162352941115387,75.76643742062151 29.303529411670752,75.76643742062151 29.472941176383756,75.80316417204449 29.69882352941204,75.83989091814146 30.150588235235773,75.87661765888333 30.34823529399,75.9133443942701 30.5741176471347,75.95007112430176 30.77176470577251,75.9133443942701 31.22352941171266,75.98679784900742 31.44941176462453,76.06025128261535 31.703529411694035,76.06025128261535 31.929411764605902,76.09697799134301 32.40941176470369,76.13370469477377 32.66352941165678,76.17043139282032 32.889411764685065,76.17043139282032 33.143529411638156,76.20715808554087 33.65176470577717,76.24388477296452 34.15999999991618,76.35406480336678 34.41411764698569,76.35406480336678 34.639999999897555,76.39079146942822 35.11999999987893,76.42751813019277 35.402352941106074,76.464244785544 35.62823529401794,76.50097143568564 36.13647058804054,76.53769808050129 36.39058823522646,76.57442471990362 36.644705882295966,76.57442471990362 36.81411764700897,76.61115135406726 37.18117647059262,76.68460460621282 37.378823529346846,76.68460460621282 37.54823529405985,76.72133122425294 37.717647058772855,76.72133122425294 37.9152941176435,76.75805783708347 38.39529411762487,76.794784444588 38.64941176469438,76.83151104667922 38.875294117606245,76.86823764341534 39.83529411756899,77.19877677451586 40.08941176452208,77.23550331805018 40.54117647046223,77.05187054743874 40.93647058820352,76.97841740184231 41.19058823515661,76.97841740184231 41.44470588234253,77.01514397736173 41.95294117636513,77.08859711218975 42.235294117592275,77.12532367158565 42.48941176466178,77.16205022577196 42.99764705868438,77.23550331805018 43.2517647058703,77.27222985625849 43.44941176462453,77.27222985625849 44.014117646962404,77.34568291637697 44.26823529403191,77.34568291637697 44.465882352902554,77.34568291637697 44.69176470581442,77.38240943851997 45.199999999953434,77.41913595539518 45.4258823528653,77.45586246679886 45.67999999993481,77.49258897296386 46.13176470575854,77.49258897296386 46.4141176471021,77.52931547386106 46.69647058821283,77.56604196928674 47.204705882351846,77.63949494424742 47.45882352942135,77.63949494424742 47.74117647053208,77.71294789787498 48.249411764671095,77.74967436675797 48.5035294117406,77.78640083022765 48.72941176465247,77.78640083022765 49.18117647059262,77.89658018865157 49.43529411754571,77.19877677451586 49.407058823504485,76.94169082099688 49.4917647059774,76.39079146942822 49.51999999990221,75.9133443942701 49.4917647059774,75.61953036169871 49.4917647059774,75.36244280319079 49.4917647059774,74.88499378727283 49.46352941170335,74.70135931030381 49.43529411754571,74.40754387012566 49.43529411754571,74.18718206594349 49.407058823504485,73.67300377649372 49.378823529346846,73.41591423985665 49.378823529346846,73.08537016596529 49.35058823518921,72.60791685225558 49.35058823518921,72.35082623315975 49.32235294114798,72.13046263743308 49.32235294114798,71.57955280816532 49.294117646990344,71.35918854066404 49.26588235294912,71.10209665252478 49.26588235294912,70.84500450297492 49.294117646990344,70.33081942025456 49.26588235294912,70.07372648693854 49.23764705879148,69.81663329235744 49.20941176463384,69.26571842416888 49.20941176463384,69.0453521408781 49.20941176463384,68.75153013120871 49.15294117631856,68.27406863778015 49.15294117631856,68.01697361408151 49.12470588227734,67.79660624309327 49.15294117631856,67.53951073420467 49.06823529407848,66.98859090657788 49.06823529407848,66.80495069755125 49.0964705881197,66.58458227061783 49.06823529407848,66.36421365168644 49.03999999992084,65.85001946100965 49.06823529407848,65.55619373984518 49.06823529407848,65.3358242250979 49.011764705879614,64.82162794389296 48.89882352936547,64.05033156237914 48.92705882363953,63.536132668174105 48.92705882363953,63.20557568434742 48.89882352936547,62.948475509329 48.89882352936547,62.43427437529317 48.87058823520783,62.21390214076382 48.87058823520783,61.993529714178294 48.842352941050194,61.44259780787979 48.81411764700897,61.18549584099674 48.81411764700897,60.96512251847889 48.78588235285133,60.450917352718534 48.75764705881011,60.19381437788252 48.78588235285133,59.936711141694104 48.75764705881011,59.4225038853765 48.78588235285133,59.16539986524731 48.75764705881011,58.945024782791734 48.92705882363953,58.577732552192174 48.92705882363953,58.61446179909399 48.955294117564335,58.577732552192174 49.12470588227734,58.61446179909399 49.35058823518921,58.54100329973153 49.661176470457576,58.54100329973153 50.16941176459659,58.43081551056821 50.395294117508456,58.357356957683805 50.621176470653154,58.320627673354466 51.185882352874614,58.28389838361181 51.750588235096075,58.357356957683805 52.56941176461987,58.394086236774456 53.10588235303294,58.394086236774456 53.33176470582839,58.43081551056821 53.64235294109676,58.467544778919546 54.207058823434636,58.54100329973153 54.46117647062056,58.54100329973153 55.64705882349517,58.61446179909399 55.87294117640704,58.65119104090263 56.155294117634185,58.65119104090263 56.57882352953311,58.65119104090263 57.199999999953434,58.61446179909399 57.99058823520318,58.76137873416883 58.27294117631391,58.834837169531966 58.52705882338341,58.834837169531966 59.00705882336479,58.871566379239084 59.31764705874957,58.945024782791734 59.59999999997672,58.981753976491746 60.13647058815695,58.981753976491746 60.644705882295966,59.09194152569398 61.20941176463384,59.128670698119095 61.54823529405985,59.128670698119095 61.83058823517058,59.128670698119095 62.62117647053674,59.20212902693311 62.73411764705088,59.27558733441401 62.762352941092104,59.20212902693311 62.762352941092104,59.20212902693311 63.38352941174526,59.20212902693311 63.69411764701363,59.16539986524731 64.2588235293515,59.20212902693311 64.56941176461987,59.27558733441401 64.90823529404588,59.27558733441401 65.55764705874026,59.3857747555885 66.46117647062056,59.3857747555885 66.77176470588893,59.3490456204745 67.05411764688324,59.3857747555885 67.98588235292118,59.45923300975119 68.29647058818955,59.45923300975119 68.63529411749914,59.495962128887186 69.22823529411107,59.53269124260987 69.53882352937944,59.56942035094835 69.87764705868904,59.56942035094835 70.4988235294586,59.60614945407724 70.83764705865178,59.642878551763715 71.45882352942135,59.6796076442115 71.76941176468972,59.6796076442115 72.05176470580045,59.716336731245974 72.70117647049483,59.75306581304176 72.98352941183839,59.75306581304176 73.2658823528327,59.789794889395125 73.88705882348586,59.789794889395125 74.19764705887064,59.86325302615296 74.47999999998137,59.86325302615296 75.1011764704017,59.936711141694104 75.41176470578648,59.936711141694104 75.66588235285599,59.97344019141747 76.20235294103622,60.083627308602445 76.31529411766678,60.12035633705091 76.343529411708,60.15708536017337 76.343529411708,60.15708536017337 76.28705882339273,60.12035633705091 76.31529411766678,60.12035633705091 76.343529411708,60.19381437788252 76.31529411766678,60.15708536017337 76.2588235293515,60.12035633705091 76.343529411708,60.19381437788252 76.31529411766678,60.19381437788252 76.28705882339273,60.12035633705091 76.31529411766678,60.083627308602445 76.37176470586564,60.15708536017337 76.45647058822215,60.19381437788252 76.71058823517524,60.23054339035298 77.04941176460125,60.19381437788252 77.86823529412504,60.12035633705091 78.20705882343464,60.12035633705091 78.82823529408779,60.19381437788252 79.19529411755502,60.19381437788252 79.5058823529398,60.23054339035298 80.15529411763418,60.26727239738102 80.46588235290255,60.26727239738102 80.77647058817092,60.26727239738102 81.48235294106416,60.340730395546416 81.79294117633253,60.340730395546416 82.44235294114333,60.4141883723496 82.78117647056933,60.450917352718534 83.0917647058377,60.48764632779057 83.74117647053208,60.52437529756571 84.07999999995809,60.52437529756571 84.39058823522646,60.56110426195664 85.0117647057632,60.597833220963366 85.32235294103157,60.597833220963366 85.68941176473163,60.63456217478961 86.0,60.63456217478961" stroke="#4dd2ff" stroke-linecap="round" stroke-linejoin="round" stroke-width="0.5"><title>2022-09-03 5.7km</title></polyline><polyline fill="none" points="180.8170365926344,65.50613870981033 180.730653869221,65.50613870981033 180.60107978410088,65.50613870981033 179.99640071974136,65.50613870981033 179.65086982608773,65.50613870981033 179.39172165561467,65.50613870981033 179.0029994000215,65.50613870981033 178.2687462507747,65.4499567928724 177.92321535688825,65.4499567928724 177.66406718664803,65.4499567928724 177.36172765423544,65.50613870981033 176.62747450522147,65.4499567928724 176.41151769645512,65.39377486766898 176.06598680256866,65.39377486766898 175.76364727062173,65.39377486766898 175.11577684478834,65.33759293425828 174.77024595090188,65.28141099287313 174.51109778066166,65.22522904313519 174.1655668867752,65.22522904313519 173.73365326947533,65.16904708536458 173.04259148193523,65.16904708536458 172.65386922634207,65.16904708536458 171.7036592680961,64.94431917261682 171.35812837420963,64.88813717395533 169.2417516496498,64.55104501126334 168.89622075576335,64.38249881984666 168.50749850040302,64.27013465136406 167.85962807456963,64.2139525548555 167.47090581897646,64.15777045031427 167.0389922016766,64.15777045031427 166.13197360513732,64.10158833756577 166.13197360513732,64.10158833756577 165.74325134977698,65.56232061862829 165.74325134977698,66.34886648604879 165.8296340731904,67.19159242708702 165.7864427114837,67.41631903452799 165.65686862613074,68.31522416020744 165.57048590271734,69.21412719751243 165.52729454101063,69.71975923841819 165.44091181759723,70.1130281467631 165.39772045612335,71.124289218802 165.35452909418382,72.30409046265413 165.35452909418382,72.80971846618922 165.35452909418382,73.14680343482178 165.2681463707704,73.98951457158546 165.2681463707704,74.38277914069477 165.2681463707704,74.88840442805667 165.18176364712417,75.67493133962853 164.96580683859065,76.3490959914925 164.79304139176384,76.79853844031459 164.62027594493702,77.47270113471313 164.44751049787737,78.03450248297304 163.8428314337507,78.82102300031693 163.62687462498434,79.27046257810434 163.45410917815752,79.49518217131845 163.23815236939117,81.23675459387596 161.9856028794311,81.63001179829007 161.20815836824477,81.4614730454341 159.17816436709836,81.40529344472452 158.40071985591203,81.40529344472452 158.0983803239651,81.34911383601138 157.66646670666523,81.29293421903276 156.8026394720655,81.1805749607156 156.41391721647233,81.1805749607156 155.55008998210542,81.12439531940618 155.16136772651225,81.06821566994768 154.47030593897216,81.12439531940618 153.99520095973276,81.1805749607156 153.17456508707255,81.06821566994768 152.65626874635927,81.06821566994768 152.35392921417952,80.955856346176 151.57648470322601,80.84349699001177 150.75584883010015,80.84349699001177 150.3239352130331,80.84349699001177 150.06478704256006,80.84349699001177 148.12117576482706,80.84349699001177 145.35692861443385,81.23675459387596 145.31373725272715,81.57383222205681 145.31373725272715,81.96708908377332 144.70905818836764,82.52888390733278 144.23395320936106,82.4727044616302 143.7588482303545,82.41652500786586 142.98140371916816,82.13562761654612 142.59268146380782,81.96708908377332 141.85842831456102,81.57383222205681 141.46970605896786,81.40529344472452 141.16736652655527,81.1805749607156 139.74205158976838,80.56259845686145 137.8848230354488,79.83226131639094 137.45290941814892,79.66372178058373 136.80503899231553,79.27046257810434 136.20035992818885,78.93338294359273 135.85482903430238,78.82102300031693 135.46610677870922,78.7648430163099 134.64547090581618,78.4839429743297 134.34313137386926,78.42776294154464 134.0839832033962,78.3715829004941 133.43611277732998,78.14686265474302 133.17696460708976,77.92214227860677 132.8314337132033,77.64124162492226 132.57228554296307,77.41652095509926 132.0107978405431,77.02325946895871 131.70845830836333,76.91089897110942 131.36292741447687,76.74235816282453 131.19016196765006,76.5738172813144 129.67846430721693,76.96707922418136 129.16016796650365,77.52888130629435 128.9010197960306,77.64124162492226 128.55548890237696,77.75360191086656 127.51889622071758,78.20304272833164 126.82783443317749,78.20304272833164 125.79124175175093,78.14686265474302 125.14337132591754,78.09068257303443 124.79784043179825,78.20304272833164 124.45230953814462,78.25922279374208 124.14997000596486,78.25922279374208 123.67486502719112,78.31540285120718 123.28614277159795,78.82102300031693 123.50209958013147,79.3828223910532 122.9838032394182,80.11316037963843 122.59508098382503,80.1693401678931 122.29274145164527,80.1693401678931 121.51529694069177,80.22551994799869 121.1265746850986,80.22551994799869 120.43551289755851,80.2816997198097 120.04679064196534,80.2816997198097 119.70125974807888,80.33787948364625 119.01019796053879,80.50641872582491 118.66466706665233,80.67495789472014 118.3623275347054,80.73113760133856 118.01679664081894,80.84349699001177 117.45530893839896,81.29293421903276 117.15296940645203,81.4614730454341 116.80743851233274,81.74237092593103 116.24595080991276,82.07944811368361 115.943611277733,82.30416607577354 115.42531493725255,82.80978101323126 115.33893221360631,83.0906779152283 115.1661667667795,83.42775392858312 115.03659268165939,83.65247110766359 114.90701859630644,83.93336739798542 114.64787042606622,84.3828010384168 114.34553089388646,84.66369679878699 114.0,85.39402482108562 114.30233953241259,85.73109882816789 114.86382723459974,86.06817254147609 115.59808038407937,86.06817254147609 116.02999400137924,86.1243514654343 116.76424715085886,85.95581466978183 117.1097780445125,85.78727780084591 117.36892621475272,85.61874085848103 118.3623275347054,85.5625618614431 118.66466706665233,85.45020384271629 119.1397720456589,85.3378457914514 119.44211157783866,85.28166675346438 120.17636472708546,85.05695052054944 120.47870425903238,84.94459235508111 120.86742651462555,84.88841326005058 121.77444511116482,84.94459235508111 122.03359328140505,85.00077144196257 122.50869826041162,85.22548770756111 122.59508098382503,85.61874085848103 122.50869826041162,85.84345676525845 122.37912417529151,86.1243514654343 122.20635872823186,86.40524596141768 122.07678464311175,86.74231908770162 121.81763647287153,87.36028572331998 121.68806238751858,87.69735801775823 121.5584883026313,88.14678728702711 121.51529694069177,88.37150172577822 121.25614877021872,89.10182275087573 121.21295740874484,89.49507196279592 121.1265746850986,89.77596401236951 121.0401919616852,90.16921253921464 122.07678464311175,91.62984642627998 122.37912417529151,91.5736683018331 123.15656868647784,91.51749016912072 123.41571685671806,91.51749016912072 124.14997000596486,91.74220265084296 124.40911817643791,91.79838075072621 124.71145770861767,91.91073692648206 125.0569886022713,92.02309306926327 125.66166766639799,92.13544917965191 125.96400719857775,92.13544917965191 126.2231553690508,92.13544917965191 126.95740851853043,92.19162722266628 127.30293941218406,92.30398328410229 127.73485302971676,92.41633931273827 128.46910617873073,92.52869530909811 128.8578284343239,92.58487329486525 129.20335932844318,92.64105127251241 129.50569886015728,92.69722924206872 130.7582483503502,92.24780525735696 130.931013797177,91.9669150019763 131.19016196765006,91.29277755698422 130.6718656271696,90.45010409958195 130.36952609475702,90.28156918787863 129.76484703063034,89.04564425937133 129.80803839233704,88.70857313941815 129.89442111575045,88.37150172577822 129.93761247745715,87.69735801775823 129.59208158380352,87.02321313531138 129.37612477503717,86.7984979134344 127.77804439119063,86.62996141167241 127.47570485901088,86.46142483621952 126.48230353952385,86.51760370278498 125.83443311345764,86.74231908770162 125.18656268739142,86.62996141167241 124.79784043179825,86.46142483621952 124.06358728255145,86.40524596141768 123.7612477503717,86.62996141167241 123.50209958013147,86.85467673119274 122.37912417529151,86.74231908770162 122.55188962211832,86.34906707858318 122.63827234553173,86.06817254147609 122.81103779259138,85.78727780084591 123.15656868647784,85.16930865342147 123.7612477503717,84.32662186198286 124.02039592084475,83.59629182508797 124.14997000596486,82.92213979855296 124.02039592084475,82.19180711120134 123.84763047401793,81.79855047768797 123.71805638866499,81.40529344472452 123.58848230354488,80.67495789472014 123.58848230354488,80.2816997198097 123.58848230354488,79.94462096635834 123.63167366548441,79.60754191898741 122.33593281335197,78.59630301553989 121.94721055799164,78.59630301553989 121.5584883026313,78.65248302402324 120.86742651462555,78.82102300031693 120.52189562097192,78.87720297605847 120.13317336537875,78.93338294359273 119.78764247149229,78.98956290300703 118.75104979006574,78.59630301553989 118.66466706665233,78.42776294154464 118.49190161982551,77.75360191086656 118.44871025811881,77.41652095509926 118.40551889617927,77.07943970570341 118.53509298129939,76.46145665261429 118.75104979006574,76.12437457146007 118.92381523712538,75.7872921967064 119.44211157783866,75.6187508990115 119.74445110978559,75.6187508990115 120.08998200343922,75.56257045009988 120.43551289755851,75.6187508990115 121.1265746850986,75.67493133962853 121.51529694069177,75.7311117722129 121.81763647287153,75.7872921967064 122.07678464311175,75.843472612818 122.81103779259138,75.843472612818 123.1133773245383,75.89965302080964 123.50209958013147,75.95583342059399 123.8044391120784,76.012013812433 124.62507498520426,76.12437457146007 125.61847630492412,76.18055493885186 126.00719856028445,76.23673529786174 126.35272945417091,76.23673529786174 126.65506898611784,76.29291564869345 126.87102579488419,76.29291564869345 127.64847030583769,76.29291564869345 127.95080983825028,76.23673529786174 128.33953209361061,76.23673529786174 128.68506298726425,76.29291564869345 129.33293341333047,76.3490959914925 129.76484703063034,76.3490959914925 130.0239952011034,76.4052763262298 131.53569286153652,76.23673529786174 131.75164967007004,76.29291564869345 132.1835632873699,76.3490959914925 133.00419916026294,76.4052763262298 133.30653869220987,76.46145665261429 133.69526094780304,76.46145665261429 134.0407918416895,76.51763697102433 134.81823635287583,76.5738172813144 135.16376724652946,76.62999758325168 135.55248950212263,76.68617787706899 136.24355128989555,76.62999758325168 136.63227354548872,76.62999758325168 137.75524895032868,76.79853844031459 137.9712057588622,76.79853844031459 138.18716256762855,76.85471870977199 139.65566886635497,77.07943970570341 140.0443911217153,77.13561993441544 140.34673065389507,77.19180015477468 140.73545290948823,77.24798036715947 141.51289742044173,77.30416057136608 141.9016196760349,77.36034076733631 142.29034193162806,77.41652095509926 142.63587282574736,77.47270113471313 143.37012597476132,77.52888130629435 143.7588482303545,77.52888130629435 144.10437912447378,77.58506146958098 145.1841631673742,77.24798036715947 145.0977804439608,76.51763697102433 145.1409718056675,75.39402905470342 145.1409718056675,75.05694604374003 145.1409718056675,74.6636821597931 145.0977804439608,74.27041787613416 145.0977804439608,73.25916502563632 145.0977804439608,73.0344418110617 145.1409718056675,72.69735674458207 145.0545890822541,71.85464279397274 145.0977804439608,71.62991876376327 145.0977804439608,71.23665139699006 145.0113977205474,70.95574589032913 144.92501499713399,70.16920938686235 144.92501499713399,69.77594053559005 144.88182363519445,69.43885263058473 144.92501499713399,69.10176443203818 144.79544091178104,68.25904265107238 144.75224955007434,67.92195342475316 144.79544091178104,67.47250066616107 144.70905818836764,66.96686568891164 144.66586682666093,66.06795743122348 144.66586682666093,65.78704817249672 144.66586682666093,65.56232061862829 144.62267546495423,65.05668314549257 144.57948410324752,65.16904708536458 144.57948410324752,64.66340909819701 144.57948410324752,64.38249881984666 144.57948410324752,64.15777045031427 144.57948410324752,63.98922408759245 144.57948410324752,63.708313319657464 144.53629274154082,63.48358455870766 144.57948410324752,62.97794436913682 144.57948410324752,62.69703286708682 144.57948410324752,62.41612116136821 144.53629274154082,62.13520925145713 144.53629274154082,61.798114690493094 144.44991001789458,61.236289769614814 144.49310137983412,61.01155957300216 144.44991001789458,60.6744640332181 144.40671865618788,60.337368199805496 144.3203359330073,59.77554115804378 144.3203359330073,59.494627331383526 144.3203359330073,59.157530469994526 144.3203359330073,58.932799066009466 144.3203359330073,58.59570171541418 144.23395320936106,58.033872144820634 144.27714457106777,57.75295705374447 144.23395320936106,57.47204175867955 144.19076184765436,57.134943135344656 144.23395320936106,56.91021055667079 144.19076184765436,56.348378539056284 144.19076184765436,56.06746222428046 144.14757048594765,55.73036237730412 144.14757048594765,55.44944561389275 144.14757048594765,55.16852864637622 144.19076184765436,54.943794925755356 144.14757048594765,54.4381435769028 144.14757048594765,54.10104231053265 144.10437912447378,53.8201243642543 144.06118776253425,53.59538986033294 144.0179964005947,53.14592046110192 144.0179964005947,52.86500182127929 144.0179964005947,52.64026676278445 144.0179964005947,52.35934775590431 144.0179964005947,52.190796253911685 144.0179964005947,51.85369302966865 144.06118776253425,51.29185367003083 144.06118776253425,51.067117697704816 144.0179964005947,50.73001349452534 143.974805038888,50.449093100847676 143.93161367741413,50.11198835936375 143.8884223154746,49.550146470515756 143.8884223154746,49.21304094581865 143.84523095400073,48.988303766265744 143.84523095400073,48.70738210796844 143.8020395920612,48.370275848923484 143.8020395920612,48.370275848923484 143.7588482303545,48.25790703072562 143.7588482303545,47.97698484221473 144.70905818836764,47.69606244988972 145.1409718056675,47.63987794681452 146.00479904026724,47.47132438921835 146.3935212958604,47.47132438921835 147.1709658068139,47.30277075790218 147.9484103177674,47.30277075790218 148.33713257336058,47.35895530990092 148.68266346747987,47.35895530990092 149.46010797843337,47.47132438921835 149.84883023402654,47.47132438921835 150.19436112768017,47.527508916624356 150.49670066009276,47.527508916624356 151.61967606493272,47.69606244988972 152.39712057588622,47.80843143136008 153.2177564490121,47.80843143136008 153.47690461901948,47.80843143136008 153.77924415119924,47.80843143136008 154.12477504485287,47.86461590990075 155.20455908798613,47.75224694478675 155.93881223769858,47.86461590990075 156.32753449305892,47.92080038014683 156.71625674865209,48.03316929616267 158.27114577079192,48.14553817984415 158.61667666467838,48.14553817984415 158.96220755856484,48.14553817984415 159.3941211758647,48.201722609315766 159.9988002399914,48.14553817984415 160.38752249535173,48.201722609315766 160.64667066605762,48.25790703072562 161.68326334748417,48.426460245857015 161.9856028794311,48.426460245857015 162.24475104967132,48.48264463469968 162.7198560286779,48.53882901521865 163.45410917815752,48.59501338764676 163.79964007204399,48.59501338764676 164.1019796039909,48.53882901521865 164.23155368934385,48.48264463469968 165.0089982005302,48.65119775192579 165.7864427114837,48.70738210796844 166.2615476907231,48.76356645586202 167.9028194360435,48.65119775192579 168.29154169163667,48.70738210796844 168.72345530893654,48.70738210796844 169.45770845818333,48.819750795693835 169.8896220754832,48.87593512740568 170.79664067202248,48.87593512740568 171.27174565102905,48.87593512740568 172.09238152368926,48.93211945085204 172.394721055869,48.93211945085204 172.78344331122935,48.988303766265744 173.47450509900227,49.044488073384855 173.7768446309492,49.10067237226758 174.1223755250685,49.044488073384855 174.51109778066166,49.044488073384855 175.6772645469755,49.10067237226758 176.10917816427536,49.15685666320496 176.54109178157523,49.15685666320496 177.83683263347484,49.26922522042878 178.1823635273613,49.325409486715216 178.57108578295447,49.43777799498639 179.34853029390797,49.3815937449981 180.2123575285077,49.43777799498639 180.55788842239417,49.43777799498639 180.90341931628063,49.49396223685471 182.112777444534,49.43777799498639 183.19256148766726,49.71869912286638 183.79724055179395,49.71869912286638 184.27234553103335,49.831067516846815 185.82723455294035,50.28054076683475 186.0,50.78619754881947 185.87042591464706,50.95474966260372 185.78404319123365,51.6289573838294 185.69766046805307,52.02224467857741 185.61127774440683,52.4155315735843 185.61127774440683,52.696450539602665 185.43851229758002,53.48302255946328 185.3521295741666,53.932491567276884 185.13617276540026,54.66287759135594 185.04979004198685,55.0561618024949 184.92021595686674,55.39326223675744 184.83383323345333,55.674179041030584 184.61787642468698,56.516928230033955 184.57468506298028,56.854027391644195 184.40191961592063,57.359675583575154 184.22915416932665,58.14623812420177 184.0995800839737,58.53951879494707 183.9700059988536,58.98898192928755 183.79724055179395,59.66317565180361" stroke="#4dd2ff" stroke-linecap="round" stroke-linejoin="round" stroke-width="0.5"><title>2022-09-01 5.1km</title></polyline><polyline fill="none" points="86.0,147.20386838549166 85.75919732451439,147.20386838549166 85.17439082660712,147.15912161191227 84.86478738673031,147.15912161191227 83.86717630212661,147.15912161191227 83.52317247970495,147.1143748316681 83.14476827532053,147.0696280450793 82.49116101302207,147.0696280450793 82.18155757291242,146.98013445208198 81.52795031061396,146.93538764599361 81.32154801732395,146.98013445208198 80.66794075479265,146.93538764599361 80.66794075479265,146.98013445208198 80.18633540370502,146.8458940143173 79.39512661262415,146.8458940143173 79.0167224080069,146.8458940143173 78.70711896801367,146.8458940143173 77.74390826572198,146.7116535178211 76.91829909232911,146.57741296294262 76.67749641661067,146.57741296294262 76.43669374112505,146.53266609835555 76.23029144783504,146.4879192271328 75.78308647871017,146.44317234959453 75.43908265663777,146.3984254654206 75.16387959884014,146.3536785748438 74.78547539422289,146.57741296294262 74.26946966093965,147.83032253474812 74.16626851423644,148.1882957626076 74.0974677496124,148.5015219960478 73.75346392742358,149.3964523372415 73.34065934084356,150.42561901707086 73.27185857633594,150.78358923067572 73.09985666512512,151.14155902835773 72.92785475391429,151.58902069090982 72.8246536074439,152.30495799978962 72.75585284281988,152.66292603043257 72.65265169611666,152.97614771634107 72.58385093172546,153.55784428844345 72.44624940294307,154.00530244305264 72.37744863843545,154.13953976272023 72.30864787404425,154.45275994797703 72.23984710953664,154.8107254842471 71.8270425228402,155.57140086829895 71.03583373164292,156.6005469293159 71.00143334933091,156.82427387911594 70.8982322026277,157.13749133600504 70.65742952714209,157.71918005440966 70.55422838032246,158.07714179708273 70.45102723373566,158.39035798070836 70.27902532240842,158.92729926950415 70.17582417593803,159.2405145893281 69.21261347364634,160.13541374917259 68.9030100335367,160.13541374917259 68.66220735793468,160.13541374917259 68.35260391782504,160.13541374917259 67.38939321553335,160.09066885281936 67.11419015785214,160.0459239500924 66.94218824652489,160.0011790408753 66.66698518872727,160.0011790408753 66.18537983752321,159.91168920282507 65.80697563313879,159.82219933878514 65.56617295765318,159.82219933878514 65.05016722425353,159.86694427399198 64.25895843293983,159.82219933878514 63.91495461051818,159.77745439705905 62.917343526147306,159.82219933878514 62.22933588165324,159.77745439705905 61.9885332059348,159.77745439705905 61.71333014825359,159.7327094487555 61.09412326803431,159.68796449404908 60.47491638804786,159.5984745650785 60.165312948054634,159.5089846101182 59.54610606795177,159.46423962284462 58.65169613005128,159.5089846101182 58.37649307225365,159.5089846101182 58.06688963214401,159.46423962284462 57.860487338737585,159.41949462916818 57.206880076555535,159.3747496290307 57.00047778314911,159.33000462219934 56.82847587193828,159.3747496290307 56.41567128535826,159.33000462219934 55.934065934154205,159.2405145893281 55.10845676064491,159.2405145893281 54.8676540851593,159.19576956317178 54.42044911615085,159.1510245304089 53.80124223604798,159.1062794912723 53.45723841385916,159.1510245304089 53.18203535606153,159.1062794912723 52.63162924034987,159.01678939338308 52.25322503584903,158.9720443347178 52.0468227424426,158.92729926950415 51.462016244768165,158.88255419777124 51.22121356916614,158.88255419777124 50.67080745345447,158.8378091196646 49.913999044452794,158.8378091196646 49.294792164466344,158.74831894398085 48.916387959965505,158.70357384625822 48.33158146194182,158.70357384625822 48.228380315355025,158.70357384625822 47.849976110854186,158.65882874201634 47.677974199759774,158.61408363145893 47.09316770196892,158.65882874201634 46.714763497468084,158.61408363145893 46.405160057358444,158.65882874201634 45.648351648356766,158.61408363145893 44.37553750607185,158.47984826055472 43.8595317726722,159.2405145893281 43.89393215498421,159.55372959075612 43.34352603915613,160.09066885281936 42.99952221708372,159.9564341251389 42.724319159053266,159.86694427399198 42.38031533686444,159.68796449404908 42.139512661262415,159.5984745650785 41.520305781275965,159.28525960893603 41.210702341166325,159.1510245304089 40.9010989011731,159.06153444561642 40.38509316765703,158.8378091196646 40.14429049217142,158.70357384625822 39.869087434373796,158.56933851423673 39.59388437657617,158.43510312394938 39.24988055427093,158.25612251236453 38.905876731849276,158.1218869856093 38.0458671762608,157.7639252949739 37.77066411857959,157.62968955383985 37.323459149571136,157.36121789604658 36.738652651780285,157.13749133600504 36.11944577167742,156.91376461353502 35.53463927388657,156.77952850208385 34.9498327759793,156.6005469293159 34.70903010037728,156.5110561037145 34.26182513148524,156.15309254237218 33.9866220735712,155.97411060568993 33.50501672248356,155.66089196651592 33.195413282490335,155.48190974420868 32.67940754909068,155.07919936353574 31.64739608229138,154.58699707285268 31.337792642298155,154.54225137116737 30.9937888198765,154.49750566278817 30.133779264288023,154.3632684989425 29.824175824178383,154.3185227647191 29.583373148576356,154.27377702400554 28.92976588627789,154.18428552290425 28.585762063972652,154.22903127671452 28.276158624095842,154.22903127671452 27.760152890579775,154.09479399604606 27.553750597173348,154.00530244305264 26.9001433349913,153.87106506479904 26.624940277193673,153.87106506479904 26.315336837200448,153.87106506479904 25.730530339293182,153.82631925921305 25.42092689918354,153.7815734469914 25.111323459190316,153.7815734469914 24.560917343595065,153.6920818031067 24.28571428579744,153.6920818031067 23.9417104634922,153.6920818031067 23.597706641303375,153.64733597147278 23.081700907903723,153.51309843728086 22.73769708548207,153.46835257968633 22.496894409880042,153.46835257968633 22.187290970003232,153.42360671545612 21.636884854291566,153.37886084482307 21.39608217868954,153.33411496772896 21.224080267711543,153.28936908385367 20.880076445289887,153.28936908385367 20.398471094085835,153.24462319375016 20.088867654209025,153.1998772971274 19.813664596294984,153.1998772971274 19.607262302888557,153.15513139401446 19.022455805097707,153.06563956820173 18.678451982792467,153.02089364553103 18.472049689502455,153.02089364553103 18.162446249392815,153.02089364553103 17.577639751601964,152.93140178071917 17.336837075883523,152.88665583863622 17.027233635890298,152.8419098900631 16.786430960404687,152.8419098900631 16.27042522688862,152.79716393488343 15.995222169090994,152.7524179732718 15.685618729097769,152.79716393488343 15.479216435691342,152.70767200514092 14.137601528898813,153.28936908385367 14.0,153.82631925921305 14.0344003821956,154.09479399604606 14.068800764507614,154.40801422676304 14.240802675602026,154.98970809640014 14.275203057914041,155.16869060482713 14.37840420450084,155.75038303888869 14.412804586696438,156.10834706801688 14.481605351087637,156.28732892658445 14.550406115711667,156.82427387911594 14.65360726241488,157.45070847467287 14.68800764461048,157.71918005440966 14.722408026806079,157.98765140029718 14.791208791197278,158.21137734333752 14.860009555704892,158.39035798070836 14.99761108448729,158.9720443347178 14.99761108448729,159.19576956317178 15.100812231190503,159.55372959075612 15.100812231190503,159.91168920282507 15.23841376020573,160.49337268562522 15.23841376020573,160.7618416150799 15.341614906908944,161.1197998240532 15.479216435691342,161.70148102688836 15.479216435691342,162.01469352759887 15.548017200198956,162.28316113201436 15.58241758251097,162.4621394049318 15.754419493605383,162.95432911990792 15.892021022504196,163.5807512566971 15.960821786778979,163.80447313998593 16.029622551519424,164.07293918548385 16.098423315794207,164.34140499710338 16.20162446249742,164.78884749682038 16.27042522688862,165.14680102901184 16.33922599151265,165.46001002864796 16.408026755903848,165.68373054784024 16.545628284686245,166.26540313774603 16.855231724795885,166.80233070804388 17.233635929296724,167.07079414234613 17.85284280939959,167.16028190185898 18.0936454848852,167.24976963544032 18.334448160487227,167.29451349235023 18.78165312949568,167.29451349235023 19.09125656960532,167.24976963544032 19.40086000948213,167.2050257718074 19.641662685200572,167.16028190185898 20.226469182991423,167.02605025289813 20.50167224078905,166.98130635701818 20.742474916391075,166.93656245438615 21.086478738696314,166.89181854538037 21.56808408978395,166.93656245438615 21.808886765502393,166.98130635701818 22.01528905890882,166.98130635701818 22.290492116706446,167.02605025289813 22.875298614497297,167.02605025289813 23.150501672294922,167.07079414234613 23.391304347780533,167.1155380253913 23.666507405694574,167.1155380253913 24.182513139094226,167.24976963544032 24.388915432267822,167.29451349235023 24.698518872377463,167.33925734291552 25.248924988205545,167.29451349235023 25.524128045886755,167.24976963544032 26.074534161482006,167.16028190185898 26.624940277193673,167.16028190185898 26.9001433349913,167.2050257718074 27.140946010593325,167.33925734291552 27.450549450702965,167.4287450245174 28.0353559483774,167.60772030969383 28.276158624095842,167.60772030969383 28.551361681777053,167.65246411468252 28.82656473957468,167.65246411468252 29.65217391308397,167.74195170533494 29.927376970881596,167.83143926988123 30.202580028679222,167.92092680867063 30.615384615492076,167.96567056822823 30.890587673173286,168.0551580679603 31.16579073097091,168.0551580679603 31.440993788884953,168.0551580679603 32.232202579965815,167.87618304265197 32.61060678458307,167.4287450245174 32.78260869567748,166.84707462997176 32.81700907787308,166.31014713758486 32.885809842380695,165.99693900183775 32.920210224576294,165.7284746321384 32.78260869567748,164.92308012017747 32.71380793105345,164.6546148151101 32.64500716666225,164.3861492763681 32.61060678458307,164.16242781525943 32.541806020075455,163.5807512566971 32.47300525568426,163.26754034744226 32.47300525568426,162.95432911990792 32.47300525568426,162.68586210007197 32.40420449117664,162.23841654745047 32.301003344589844,161.96994890406495 32.163401815574616,161.70148102688836 31.85379837558139,161.3435234935023 31.64739608229138,161.38826820784016 31.440993788884953,161.38826820784016 31.028189202188514,161.29877877261606 30.821786908782087,160.94082077153143 30.752986144274473,160.67235199792776 30.68418537999969,160.40388299050392 30.615384615492076,160.09066885281936 30.477783086593263,159.5984745650785 30.40898232208565,159.33000462219934 30.615384615492076,158.56933851423673 31.0625895842677,157.94290619227104 30.890587673173286,157.7639252949739 30.68418537999969,157.54019902733853 30.443382704397663,156.82427387911594 30.890587673173286,156.19783801032463 31.131390348891728,156.10834706801688 31.544194935588166,155.75038303888869 31.64739608229138,155.48190974420868 31.92259913997259,155.07919936353574 32.61060678458307,155.16869060482713 32.71380793105345,155.34767300906242 32.885809842380695,155.43716417238466 33.126612517866306,155.48190974420868 33.60821786930319,155.79512856525253 33.81462016236037,155.92936510537402 34.05542283807881,156.15309254237218 34.70903010037728,156.6005469293159 34.9842331581749,156.69003772869473 35.22503583377693,156.77952850208385 35.500238891574554,156.86901924951235 35.94744386035018,157.13749133600504 36.11944577167742,157.31647259707097 36.56665074056946,157.58494429377606 37.013855709461495,157.7639252949739 37.25465838517994,157.7639252949739 37.49546106066555,157.7639252949739 37.77066411857959,157.7639252949739 38.630673674168065,158.03239660192048 38.83707596757449,158.07714179708273 39.11227902537212,158.21137734333752 39.31868131866213,158.300867675076 39.49068322975654,158.39035798070836 40.00668896315619,158.65882874201634 40.21309125656262,158.74831894398085 40.45389393216465,158.8378091196646 40.69469660776667,158.9720443347178 41.17630195885431,159.1510245304089 41.41710463457275,159.2405145893281 41.69230769237038,159.3747496290307 42.10511227918323,159.5984745650785 42.68991877697408,159.86694427399198 42.93072145245969,159.91168920282507 43.24032489245292,160.0011790408753 43.481127568054944,160.09066885281936 43.8595317726722,160.13541374917259 44.100334448041394,159.64321953288163 44.100334448041394,159.3747496290307 44.134734830469824,158.88255419777124 44.065934066078626,158.39035798070836 44.065934066078626,158.07714179708273 43.96273291937541,157.36121789604658 43.99713330157101,156.6005469293159 43.99713330157101,156.42156525247265 43.99713330157101,156.15309254237218 44.03153368376661,155.97411060568993 43.9283325370634,155.30292741776793 43.9283325370634,154.9449624530971 43.89393215498421,154.63174276807695 43.9283325370634,154.09479399604606 43.9283325370634,153.87106506479904 43.9283325370634,153.60259013311588 43.99713330157101,153.11038548435317 43.9283325370634,152.52868806768674 43.9283325370634,152.2154659270891 43.89393215498421,151.90224346818286 43.9283325370634,151.6337668215274 43.825131390360184,150.96257418152527 43.65312947926577,150.24663375434466 43.61872909707017,150.0229020298866 43.65312947926577,149.84391653342755 43.58432871487457,149.6201845165051 43.58432871487457,149.3517058818543 43.54992833256256,148.8594944443903 43.54992833256256,148.1882957626076 43.58432871487457,147.83032253474812 43.51552795036696,147.69608246721327 43.54992833256256,147.42760215641465 43.481127568054944,146.98013445208198 43.61872909707017,146.44317234959453 43.68752986146137,146.30893167780596 43.58432871487457,145.19025713851443 43.51552795036696,144.92177464489941 43.54992833256256,144.47430330250063 43.51552795036696,144.25056738770218 43.54992833256256,143.98208407545462 43.54992833256256,143.62410596210975 43.51552795036696,142.99764326313743 43.58432871487457,142.10269434127258 43.481127568054944,141.29723808952258 43.446727185859345,140.98400453431532 43.446727185859345,140.67077066074125 43.377926421468146,140.08904976514168 43.34352603915613,139.7758149819856 43.27472527476493,139.14934446054394 43.27472527476493,138.97035264907754 43.24032489245292,138.43337659095414 43.24032489245292,138.0753920324205 43.27472527476493,137.80690334059182 43.20592451049015,137.09093235243927 43.20592451049015,136.9119393453584 43.20592451049015,136.28546300236485 43.171524128178135,136.01697275118204 43.24032489245292,135.65898538584588 43.20592451049015,135.39049458884983 43.137123745749705,134.49552357642096 43.10272336367052,134.18228310806444 43.10272336367052,133.8690423212538 43.06832298147492,133.55580121616367 43.06832298147492,133.0188157237135 43.06832298147492,132.70557375441422 42.93072145245969,132.3475825425412 43.20592451049015,132.3028336118441 43.54992833256256,132.21333573089214 43.756330625968985,132.16858678057906 44.065934066078626,132.16858678057906 44.685140946065076,132.12383782377583 44.96034400397912,132.07908886074438 45.304347826051526,132.03433989098994 45.54515050176997,131.9448419320397 46.16435738164,131.9448419320397 46.47396082174964,131.9448419320397 46.74916387966368,131.9448419320397 46.98996655526571,131.98959091477445 47.540372670744546,132.03433989098994 48.46918299095705,132.12383782377583 48.67558528436348,132.16858678057906 50.223602484562434,132.3475825425412 51.35881509783212,132.25808467456955 52.70043000485748,132.52657820048626 52.90683229814749,132.57132709867437 53.11323459155392,132.66082487569656 53.354037267155945,132.75032262669993 54.04204491165001,132.70557375441422 54.45484949834645,132.61607599045965 54.66125179186929,132.57132709867437 55.45246058306657,132.48182929572067 55.934065934154205,132.61607599045965 56.79407548974268,133.0635645505099 57.06927854754031,132.9293180507666 57.65408504544757,132.83982035174267 57.75728619203437,132.97406689051422 58.27329192555044,132.97406689051422 59.27090301015414,132.75032262669993 59.58050645014737,132.75032262669993 59.92451027233619,132.83982035174267 60.54371715255547,132.9293180507666 61.19732441473752,132.8845692044997 61.54132823704276,132.8845692044997 61.885332059348,132.83982035174267 61.9885332059348,132.8845692044997 62.50453893945087,132.8845692044997 62.81414237944409,132.9293180507666 63.60535117064137,133.10831337087438 63.8117534640478,133.10831337087438 64.22455805062782,133.1530621846032 64.80936454853509,133.1530621846032 65.46297181083355,133.1530621846032 65.80697563313879,133.10831337087438 66.35738174873404,133.1530621846032 66.90778786444571,133.1530621846032 68.11180124233942,133.1530621846032 68.73100812232587,133.1530621846032 69.31581462011673,133.1530621846032 69.52221691352315,133.24255979273585 69.86622073582839,133.33205737479148 70.14142379374243,133.3768061560113 70.31342570472043,133.4663036990969 71.17343526054174,133.4663036990969 71.41423793602735,133.51105246093357 71.75824175821617,133.4663036990969 71.9646440516226,133.55580121616367 72.54945054941345,133.64529870721162 73.13425704743713,133.6900474432041 74.61347348301206,133.8690423212538 75.12947921652813,133.8690423212538 75.43908265663777,133.8690423212538 75.67988533212338,133.8242936115712 76.53989488771185,134.04803709560656 76.91829909232911,134.09278577301302 77.57190635462757,134.36127770040184 77.77830864791758,134.67451798680122 77.64070711890236,134.94300940757967 77.57190635462757,135.25624910273473 77.46870520792436,135.52474001661176 77.29670329682995,136.01697275118204 77.09030100342352,136.86719107741374 76.9870998567203,136.95668760690023 76.91829909232911,137.4041698644578 76.74629718111828,137.8963995971717 76.53989488771185,138.79136073373957 76.81509794550948,139.4178319828352 76.91829909232911,139.8205628275755 77.12470138561912,140.49177973289625 77.26230291451793,140.67077066074125 77.33110367902555,140.80501378836925 78.08791208802722,141.61047132636304 78.67271858593449,141.11824752553366 78.67271858593449,140.93925685767317 79.05112279031891,140.4470319847169 79.29192546603736,140.31278870115057 80.0487338748062,139.55207565621822 80.18633540370502,139.46257988043362" stroke="#4dd2ff" stroke-linecap="round" stroke-linejoin="round" stroke-width="0.5"><title>2022-08-31 5.5km</title></polyline><polyline fill="none" points="178.35592168523,132.9909648358298 178.06804430740885,132.9909648358298 177.78016693005338,133.04445912878145 176.50528140109964,132.8839762263524 176.17627868405543,132.83048191008857 175.76502528740093,132.77698758608312 174.9425184945576,132.72349325410323 173.3386302483268,132.72349325410323 173.0096275312826,132.72349325410323 172.5161234557163,132.72349325410323 171.69361666264012,132.6165045669477 171.40573928505182,132.6165045669477 170.95336054894142,132.56301021188847 168.85596822714433,132.4025270996499 168.36246415157802,132.34903271327494 167.29320532060228,132.18854950813693 167.0053279432468,132.08156066571246 166.79970124480315,132.02806623280048 166.2650718295481,131.9210773438681 165.89494377258234,131.9210773438681 165.64819173468277,131.9210773438681 162.81054329918697,131.43962695877417 161.2889057325665,131.60011049039895 160.91877767583355,131.5466159877251 160.54864961886778,131.4931214771641 160.17852156213485,131.4931214771641 159.3971401087474,131.38613243281725 159.02701205201447,131.38613243281725 158.61575865535997,131.33263789891498 157.91662788135,131.33263789891498 157.50537448492832,131.33263789891498 157.09412108850665,131.2791433573584 156.31273963535205,131.2256488080311 155.90148623893037,131.2256488080311 155.53135818219744,131.2256488080311 154.99672876670957,131.1721542510495 154.7088513893541,131.1721542510495 154.21534731355496,131.11865968606435 153.8452192565892,131.01167053281097 153.6807178980671,131.06516511330847 153.1049631431233,130.90468134879484 152.28245635004714,130.8511867451598 151.83007761393674,130.8511867451598 150.7196934435051,131.01167053281097 149.81493597128429,130.95817594471737 149.0746798578184,130.8511867451598 148.7868024802301,130.90468134879484 148.41667442349717,130.90468134879484 146.6482848187443,131.01167053281097 146.44265812053345,132.08156066571246 146.36040744138882,132.77698758608312 146.31928210146725,133.20494196147774 146.27815676201135,133.57940163221792 146.23703142232262,134.11434335884405 146.19590608263388,134.38181393110426 146.15478074317798,134.86326047146576 146.15478074317798,135.0772365098819 146.03140472411178,136.41458393388893 146.03140472411178,136.78904034273 145.9080287052784,137.64493927688454 145.9080287052784,138.07288799830712 145.86690336558968,138.5543297160184 145.78465268644504,138.7683036106464 145.78465268644504,139.67769127734937 145.82577802590095,140.10563763792743 145.82577802590095,140.373103860853 145.74352734652348,141.65693902838393 145.49677530885674,142.9942625713593 145.00327123282477,143.85014709175448 144.8798952139914,144.27808860639925 144.8387698745355,144.5990444161289 144.67426851578057,145.2944477116107 144.63314317609183,145.7758799935691 144.59201783663593,146.25731164647732 144.55089249671437,146.4712810680794 144.0985137608368,147.27366529239225 143.44050832651556,147.38064972357824 143.27600696776062,147.43414192766068 142.98812959040515,147.43414192766068 142.57687619398348,147.43414192766068 141.0963639668189,147.22017306517228 140.6439852307085,147.27366529239225 139.98597979615442,147.27366529239225 139.65697707911022,147.27366529239225 139.20459834299982,147.27366529239225 138.50546756922267,147.22017306517228 137.14833136089146,147.05969633665518 136.7782033039257,147.05969633665518 136.44920058664866,147.00620407843962 135.66781913349405,146.8992195384344 135.33881641644984,146.95271181239514 134.9686883597169,146.95271181239514 134.59856030275114,146.8992195384344 134.02280554780737,146.84572725690668 133.81717884959653,146.84572725690668 133.52930147200823,146.79223496755003 133.3236747737974,146.79223496755003 133.0357973962091,146.73874267030624 132.29554128274322,146.73874267030624 131.966538565699,146.68525036540814 131.71978652779944,146.68525036540814 130.0336476021912,147.05969633665518 129.8691462436691,147.43414192766068 129.66351954522543,147.80858713798807 129.37564216786996,148.1830319678411 127.771753921872,149.09239639891894 127.73062858218327,149.46683992425096 127.73062858218327,149.7342993520724 127.73062858218327,150.1087422251003 127.771753921872,150.75064340775134 127.85400460101664,151.07159357977798 128.1418819783721,152.08793394680833 128.18300731829368,152.6763402466022 128.22413265774958,152.94379734472022 128.22413265774958,153.26474560657516 128.2652579974383,153.6926761874056 128.22413265774958,153.90664129151264 128.22413265774958,154.60202702163951 128.2652579974383,154.8694827221916 128.2652579974383,155.13693822865025 128.30638333712704,155.56486663516262 128.34750867681578,156.20675831331755 128.34750867681578,156.5811946092581 128.34750867681578,157.27657529193675 128.38863401627168,157.97195466252742 128.47088469564915,158.23940791731002 128.47088469564915,158.5603515667317 128.5531353750266,158.88129493661108 128.59426071448252,159.57667127880268 128.5531353750266,159.89761376348906 128.5531353750266,160.21855596866226 128.59426071448252,160.59298818797106 128.63538605417125,161.2348711072991 128.6765113940928,161.5558121476788 128.6765113940928,161.93024300821708 128.6765113940928,162.25118344306247 128.71763673354872,162.89306347400998 128.71763673354872,163.16051315699588 128.71763673354872,163.90937123657204 128.75876207323745,164.17682018195046 128.75876207323745,164.49775866002892 128.79988741269335,164.87218653134187 128.84101275261492,165.56755156847066 128.84101275261492,165.94197835281375 128.92326343175955,166.90478833660018 128.92326343175955,167.27921376208542 128.92326343175955,167.60014953830978 128.88213809207082,168.0280634717492 128.96438877144828,168.72342255382682 128.96438877144828,169.04435707232915 129.0055141109042,169.36529131126008 129.0055141109042,169.6862252705614 129.08776479028165,170.38158122362802 129.08776479028165,170.75600311663584 129.1288901299704,171.07693586478126 129.1288901299704,171.4513570512063 129.17001546965912,172.14670967365964 129.17001546965912,172.52112977317302 129.17001546965912,172.84206098405411 129.17001546965912,173.16299191562575 129.21114080934785,173.69787618046394 129.2522661490366,174.01880636651185 129.29339148872532,174.3397362732794 129.29339148872532,174.7141541444871 129.33451682818122,175.35601246720762 129.41676750732586,175.6769412094145 129.41676750732586,176.0513577220845 129.45789284724742,176.3722858586989 129.54014352639206,177.06762919592438 129.5812688660808,177.4420442955452 129.66351954522543,177.76297122097458 129.704644885147,178.13738561427454 129.82802090398036,178.77923797472613 129.8691462436691,179.15365133539308 129.910271583125,179.4745767703862 129.99252226250246,179.79550192583702 130.19814896094613,180.43735139834462 130.19814896094613,180.75827571528498 130.3215249797795,181.07919975291588 130.3626503192354,181.4001235110627 130.52715167799033,182.04197018875857 130.56827701767907,182.41638023455744 130.6505276968237,182.68381574880914 130.69165303651243,183.05822514250758 130.85615439503454,183.6465819926234 130.938405074412,183.91401661394048 131.02065575355664,184.18145104122232 131.1029064329341,184.50237209783518 131.2674077914562,185.25118680953165 131.34965847083367,185.62559359506122 130.11589828156866,186.0 128.63538605417125,185.73256689240225 128.2652579974383,185.62559359506122 127.89512994047254,185.41164690710139 127.11374848731793,185.14421337269596 126.78474577027373,185.03723990439903 126.04448965657502,184.93026640513563 125.59211092046462,184.93026640513563 124.93410548614338,184.71631931362208 124.64622810878791,184.39539844333194 124.44060141057707,184.2349379034713 124.02934801392257,183.80704278871417 123.8648466556333,183.53960808968986 123.61809461773373,183.27217319671763 123.3302172399126,182.68381574880914 123.20684122107923,182.36289310851134 122.91896384349093,180.91873776906868 122.96008918317966,180.54432620180887 123.08346520201303,179.79550192583702 123.20684122107923,179.4210892172996 123.49471859866753,178.77923797472613 123.6592199569568,178.08389786703628 123.6592199569568,177.60250779316993 123.6592199569568,176.85367753953324 123.57696927781217,176.47926184209064 123.41246791929007,175.78391739472863 123.2890919004567,175.46298874579952 123.08346520201303,175.19554799140315 122.79558782465756,174.50020112187485 122.67221180582419,174.12578303320333 122.63108646613546,173.5374109824188 122.7133371452801,173.26996883068932 122.91896384349093,172.2001982826623 122.91896384349093,171.34437960822834 122.83671316434629,171.02344709288445 122.54883578675799,170.32809235077002 122.38433442823589,170.00715895049507 122.17870773002505,169.6862252705614 121.80857967305928,168.9908680052322 121.56182763539255,168.72342255382682 121.15057423897088,168.13504187745275 120.36919278558344,167.33270307758357 120.08131540799513,166.74432018070365 119.91681404947303,166.4233836591302 119.83456337009557,166.0489573640225 119.79343803063966,165.35359323516604 119.87568871001713,165.03265550234937 119.83456337009557,164.6582277941925 119.91681404947303,164.28379970556125 119.91681404947303,163.58843224588782 119.9990647288505,162.94655342618353 120.0401900683064,162.62561359698884 120.1224407479167,162.30467348839738 120.20469142706133,161.87675290860352 120.4514434649609,161.2348711072991 120.57481948379427,160.91392978731892 120.65707016317174,160.53949789414764 120.98607288044877,159.89761376348906 121.10944889904931,159.57667127880268 121.23282491811551,159.2557285146031 121.64407831477001,158.72082328650868 121.89083035243675,158.3998797768727 122.13758239010349,158.13242663873825 122.83671316434629,157.33006605957053 123.1245905419346,157.00912133860402 123.37134257983416,156.68817633809522 123.82372131571174,156.04628549868357 124.02934801392257,155.7253396596352 124.1938493726775,154.97646494809305 124.1938493726775,154.60202702163951 124.1938493726775,154.2275887146243 124.15272403275594,153.90664129151264 124.15272403275594,153.10427151064505 124.11159869353287,152.6763402466022 124.02934801392257,152.40888295401237 124.02934801392257,152.1414254674164 124.02934801392257,151.49952670748462 124.0704733536113,151.12508524788427 123.94709733477794,150.32270941030583 123.90597199485637,149.68080748218927 123.98822267423384,149.30636417440837 123.98822267423384,148.87842849947629 124.0704733536113,148.12953987254878 124.31722539151087,147.59461849290528 124.81072946731001,147.54112631228054 125.46873490163125,147.86207927990472 125.87998829828575,147.91557141393423 126.16786567564122,148.02255565868109 126.743620430585,147.54112631228054 126.78474577027373,147.11318858730374 126.78474577027373,146.79223496755003 126.86699644941837,145.7758799935691 126.82587110996246,145.40143271753914 126.743620430585,145.08047760665067 126.743620430585,144.33158126071794 126.7024950911291,144.01062521792483 126.82587110996246,143.10124824510422 126.6202444115188,141.38947373756673 126.53799373237416,140.96152886783239 126.53799373237416,140.587076699303 126.49686839268543,139.62419794732705 126.4557430529967,139.19625102751888 126.41461771354079,138.8217970650294 126.41461771354079,138.5008362227818 126.37349237385206,137.805420105753 126.41461771354079,137.484458378196 126.41461771354079,136.94952154433122 126.33236703416333,136.46807772980537 126.37349237385206,135.82615166530013 126.33236703416333,135.45169427787187 126.33236703416333,135.02374251189758 126.29124169447459,134.16783748890157 126.25011635478586,132.6165045669477 126.16786567564122,132.2420439175621 126.16786567564122,131.9210773438681 126.08561499626376,131.5466159877251 125.96223897743039,130.90468134879484 126.00336431688629,130.15575618998264 126.00336431688629,129.88828254994587 125.96223897743039,129.51381912778015 125.92111363774166,129.2998398586642 125.96223897743039,128.60440637537977 125.96223897743039,128.28343663262785 126.04448965657502,127.64149630849715 126.00336431688629,126.94605969518307 125.96223897743039,126.46460280922474 126.00336431688629,126.09013590752147 126.00336431688629,125.39469636595459 126.00336431688629,124.96673291866318 125.96223897743039,124.69925551174674 126.00336431688629,124.32478681585053 125.96223897743039,123.5223526142363 125.92111363774166,123.20137844435521 125.87998829828575,122.9338997558516 125.83886295836419,122.6664208729926 125.75661227898672,122.13146252499428 125.75661227898672,121.8104871432879 125.75661227898672,121.27552755252691 125.75661227898672,121.06154349868302 125.75661227898672,120.41959059156943 125.79773761867546,120.09861371855368 125.75661227898672,119.08218510911684 125.75661227898672,118.76120707101654 125.63323626038618,117.63778173516039 125.63323626038618,117.37029900756897 125.63323626038618,116.62134633699316 125.67436159984209,116.3538628712704 125.63323626038618,115.92588892244385 125.63323626038618,115.60490813438082 125.63323626038618,114.74895799939986 125.59211092046462,114.64196409267606 125.55098558077589,114.58846712755621 125.59211092046462,114.534970155044 125.59211092046462,114.534970155044 125.55098558077589,114.534970155044 125.50986024131998,114.534970155044 125.50986024131998,114.48147317444091 125.71548693953082,114.534970155044 126.12674033571966,114.42797618615441 126.4557430529967,114.42797618615441 126.86699644941837,114.37447919003898 127.56612722342834,114.37447919003898 127.89512994047254,114.26748517455417 128.96438877144828,114.0 129.33451682818122,114.0 129.62239420576952,114.0 129.910271583125,114.05349705036497 131.06178109324537,114.16049112810288 131.4319091499783,114.21398815512657 132.0076639051549,114.21398815512657 132.29554128274322,114.32098218626925 132.58341866033152,114.32098218626925 132.9946720567532,114.37447919003898 133.7760535099078,114.32098218626925 134.1873069065623,114.37447919003898 135.46219243551604,114.64196409267606 135.83232049224898,114.534970155044 137.23058204026893,114.48147317444091 137.64183543645777,114.534970155044 137.88858747435734,114.58846712755621 138.66996892774478,114.80245494117844 139.45135038089938,114.90944880110328 139.73922775825486,114.90944880110328 140.10935581522062,114.90944880110328 140.43835853249766,114.85595187504077 141.46649202355184,114.74895799939986 141.8777454199735,114.74895799939986 142.1656227975618,114.80245494117844 144.75651919539087,115.5514113092504 144.96214589336887,115.60490813438082 145.57902598800138,115.65840495171142 145.70240200706758,115.60490813438082 146.40153278084472,115.71190176141681 146.68941015843302,115.76539856338059 147.388540932443,115.65840495171142 148.04654636676423,115.60490813438082 148.37554908404127,115.60490813438082 148.7456771407742,115.60490813438082 150.2261893679388,115.71190176141681 151.17207217984833,115.87239214387955 151.58332557627,115.87239214387955 152.15908033121377,115.81889535745722 152.57033372763544,116.03288245626027 153.76296857744455,115.979385693121 154.00972061534412,115.979385693121 156.43611565441824,116.1398759590229 158.20450525917113,116.3538628712704 158.9036360331811,116.40735957986908 159.60276680695824,116.51435297398712 160.30189758096822,116.56784965933184 161.49453243077733,116.51435297398712 162.1936632047873,116.56784965933184 163.26292203529738,116.72833966871258 164.24993018689565,116.83533296966925 165.27806367794983,116.99582286257646 165.5248157158494,117.04931947798468 165.64819173468277,117.04931947798468 166.5940745465923,117.1028160857386 166.96420260332525,117.15631268560537 167.66333337733522,117.04931947798468 168.033461434301,117.1028160857386 168.40358949103393,117.04931947798468 168.6914668683894,117.1028160857386 168.89709356683306,117.1028160857386 169.51397366146557,117.1028160857386 169.84297637850977,117.20980927775963 170.29535511462018,117.15631268560537 170.6243578318972,117.15631268560537 171.40573928505182,117.15631268560537 171.73474200209603,117.20980927775963 172.18712073843926,117.26330586208496 172.88625151244923,117.31680243866867 174.07888636202551,117.53078866747092 174.40788907906972,117.58428520528832 176.09402800467797,117.69127825755277 176.4641560614109,117.69127825755277 176.83428411837667,117.7447747719416 178.02691896795295,117.7447747719416 178.47929770406336,117.7982712785888 178.8494257607963,117.8517677775817 180.2065619691275,117.8517677775817" stroke="#4dd2ff" stroke-linecap="round" stroke-linejoin="round" stroke-width="0.5"><title>2022-08-30 5.1km</title></polyline><polyline fill="none" points="84.76394849759527,196.81233607433387 85.20539546292275,197.09945057914592 85.69098712434061,198.13306106999516 85.77927651721984,199.10924627567874 85.86756591056474,199.62604923255276 86.0,201.52098763021058 86.0,203.70302665952477 84.49908031872474,204.85146341845393 83.92519926419482,204.73661989273387 83.26302881655283,204.73661989273387 82.95401594089344,204.6217763335735 82.20355610060506,204.4495109321433 81.89454322494566,204.3346672897751 77.3476394850295,203.99013616194134 76.06744328630157,203.87529238601564 75.53770692809485,203.87529238601564 74.61066830158234,203.87529238601564 73.72777437139302,203.76044857676607 73.3304721028544,203.70302665952477 72.2709993866738,203.5881828003039 71.78540772525594,203.53076085817884 70.77007970586419,203.4159169488412 70.37277743709274,203.4159169488412 69.93133047199808,203.30107300615055 68.29797670128755,203.0713850207685 67.01778050279245,203.18622903016512 65.69343960750848,203.2436510223779 65.20784794609062,203.18622903016512 64.81054567731917,203.12880702954135 63.92765174736269,203.0713850207685 63.442060085712,203.0713850207685 62.86817903118208,203.0713850207685 62.0294297975488,203.01396300346823 61.63212752901018,202.9565409779898 61.23482526023872,202.84169690209092 60.39607602683827,202.7268527924898 59.910484365420416,202.7268527924898 58.54199877381325,202.89911894415854 58.05640711192973,202.84169690209092 57.659104843623936,202.7268527924898 56.90864500286989,202.7268527924898 56.15818516234867,202.5545865658496 55.27529123239219,202.38232026420883 54.17167381965555,202.09520959467045 53.64193746144883,201.98036526836222 53.33292458602227,201.92294309285353 51.87614960153587,201.69325430720346 51.34641324332915,201.69325430720346 50.94911097479053,201.69325430720346 49.93378295493312,201.80809871660313 49.448191293515265,201.80809871660313 48.609442060114816,201.69325430720346 48.300429184455425,201.63583208984346 47.37339055771008,201.57840986413066 45.91661557299085,201.52098763021058 45.519313304452226,201.52098763021058 44.592274678172544,201.63583208984346 43.93010423053056,201.80809871660313 43.532801961759105,201.69325430720346 43.13549969322048,201.75067651609425 42.649908031802624,201.63583208984346 41.811158798169345,201.57840986413066 41.45800122618675,201.63583208984346 40.663396689109504,201.52098763021058 39.294911097269505,201.4635653878795 38.36787247075699,201.4635653878795 37.882280809106305,201.52098763021058 36.999386879149824,201.4635653878795 36.469650520943105,201.40614313731203 35.18945432221517,201.52098763021058 34.70386266079731,201.52098763021058 34.26241569570266,201.4635653878795 33.42366646206938,201.34872087839176 32.27590435300954,201.69325430720346 32.231759656453505,203.18622903016512 32.18761495989747,204.27724545591627 32.231759656453505,204.73661989273387 32.231759656453505,205.36825887224404 32.231759656453505,206.17216156888753 32.231759656453505,206.68895529670408 32.32004904956557,207.1483269323071 32.3641937461216,208.0096473111189 32.4083384424448,208.41159617944504 32.4083384424448,209.38775601566886 32.4083384424448,209.84712451673113 32.4083384424448,210.76585991843604 32.496627835324034,212.02911761100404 32.496627835324034,212.60332431911957 32.62906192522496,214.0962578592298 32.62906192522496,214.3833598170604 32.62906192522496,215.3020846817235 32.67320662131533,215.70402613893384 32.71735131810419,216.2208074122027 32.71735131810419,217.082108033821 32.761496014427394,217.48404768222827 32.761496014427394,218.86212337538018 32.71735131810419,219.3214808726916 32.71735131810419,219.72341824526666 31.74616799503565,221.15890552749624 31.083997547393665,221.1014861361473 29.84794604522176,220.9866473285656 28.920907418476418,220.75696961363428 28.39117106050253,220.69955016393214 27.508277130313218,220.24019426692394 26.66952789691277,219.95309656049358 26.095646842150018,219.89567699411418 24.594727161107585,219.4937397967442 23.9325567134656,218.57502466847654 23.270386265823618,218.2879257533641 22.343347639311105,217.88598692198866 21.990190067095682,217.71372729784343 21.504598405677825,217.54146759863943 20.136112814070657,216.9098480597022 19.738810545532033,216.79500803502742 19.38565297354944,216.68016797714517 18.50275904336013,216.50790782796685 17.840588595718145,216.2208074122027 17.487431023735553,215.99112692964263 17.178418148308992,215.8188664802292 16.8694052726496,215.64660595561145 16.163090128684416,215.12982393207494 15.633353770477697,215.70402613893384 15.72164316358976,216.1059671875846 15.809932556468993,216.73758801035 15.854077253025025,217.02468805079116 15.942366645904258,217.4266277574061 16.03065603901632,217.7711471809016 16.207234825007617,218.51760490221204 16.339668914442882,219.3214808726916 16.472103004110977,219.72341824526666 16.56039239722304,220.18277474239585 16.648681790102273,220.75696961363428 16.692826486425474,221.04406673647463 16.781115879537538,221.4460023586289 16.8252605763264,221.79051828099182 16.957694665761665,222.42213002603967 17.178418148308992,223.5130933917244 17.44328632717952,224.31695920939092 17.531575720058754,224.71889150573406 17.575720416614786,225.12082339348854 17.752299202838913,226.03952331768232 17.840588595718145,226.38403523899615 17.928877988597378,226.78596543468302 18.017167381942272,227.07305818161694 18.19374616793357,227.87691676427494 18.19374616793357,228.27884544298286 18.326180257136002,229.08270157506922 18.370324953924865,229.36979265487753 18.50275904336013,230.173646569805 18.635193132795393,230.63299093066598 18.76762722246349,231.14975269904244 18.944206008454785,231.8961851724016 19.032495401334018,232.298109766969 19.07664009789005,232.70003395303502 19.164929491002113,232.92970473319292 19.297363580437377,233.50388110009953 19.341508276760578,233.8483865201997 19.38565297354944,234.19289164012298 19.518087062984705,234.59481390102883 19.6505211526528,235.34123987323255 19.95953402807936,236.5470019300119 20.047823421191424,236.89150469956803 20.091968117514625,237.29342421836918 20.091968117514625,237.58050933887716 20.312691600294784,238.61401404737262 20.400980993174016,238.95851501679863 20.445125689497218,239.41784917603945 20.665849172277376,240.22168267107918 20.709993868600577,240.62359880603617 20.79828326147981,240.9680980251287 20.886572654591873,241.3125969443936 21.01900674425997,242.05901024010382 21.1072961371392,242.40350820909953 21.239730226574466,243.14991944620851 21.37216431624256,243.4944164653134 21.37216431624256,243.8389131843287 21.460453709121794,244.1834096031671 21.63703249511309,245.10206525365356 21.725321888225153,245.50397642989992 21.813611281337216,245.84847139866906 21.94604537077248,246.19296606755233 22.122624156763777,246.8819545051374 22.21091354987584,247.2264482739556 22.25505824619904,247.57094174259691 22.343347639311105,248.030265901034 22.47578172874637,248.7766665207746 22.47578172874637,249.12115863940562 22.5199264253024,249.46565045812167 22.608215818414465,249.81014197686454 22.917228693841025,250.9584448725218 23.005518086720258,251.30293509108014 23.04966278350912,251.64742500975262 23.09380747983232,252.0493295356864 23.31453096261248,253.08279644171125 23.535254444926977,253.714358221594 23.711833230918273,254.74782077758573 23.84426732058637,255.14972215343732 23.976701409788802,256.06835233658785 24.109135499456897,256.52766662824433 24.19742489256896,256.92956619602046 24.329858982237056,257.5611218343256 24.41814837511629,257.905606303073 24.46229307143949,258.30750447075116 24.72716125031002,259.05388569892966 24.815450643654913,259.85767929279245 24.903740036534145,260.20216176164104 24.903740036534145,260.6040575961233 25.124463519081473,261.3504344910907 25.477621091064066,262.2116368509596 24.99202942964621,263.072837336018 24.638871857430786,263.1302506349457 24.241569588892162,263.1302506349457 23.88841201690957,263.18766392566613 23.137952176388353,263.1302506349457 21.94604537077248,263.1302506349457 21.504598405677825,263.1302506349457 21.06315144058317,263.01542402873747 20.842427958268672,263.01542402873747 20.047823421191424,263.01542402873747 19.6505211526528,263.01542402873747 17.796443899162114,262.15422341867816 17.487431023735553,261.9245696060243 17.13427345152013,261.75232915914967 16.472103004110977,261.3504344910907 16.118945432128385,261.17819379421417 16.03065603901632,260.20216176164104 16.383813611231744,260.2595754772192 16.736971183214337,260.31698918461916 17.44328632717952,260.37440288366633 17.840588595718145,260.4318165742734 18.23789086425677,260.48923025652766 18.59104843623936,260.5466439304291 19.38565297354944,260.5466439304291 19.827099938411266,260.48923025652766 20.180257510393858,260.48923025652766 21.01900674425997,260.5466439304291 21.239730226574466,260.5466439304291 21.548743102233857,260.48923025652766 21.990190067095682,260.48923025652766 22.74064990784973,260.4318165742734 23.005518086720258,259.97250681574224 22.961373390397057,259.628024146863 22.917228693841025,259.28354117821436 22.917228693841025,258.99647180823376 22.873083997284994,258.30750447075116 22.78479460440576,258.02043439270346 22.74064990784973,257.6185359332594 22.5199264253024,256.92956619602046 22.43163703242317,256.1831809596042 22.16676885331981,255.2071366024902 22.122624156763777,254.80523528490448 22.034334763884544,254.46074811622384 21.94604537077248,254.11626064757002 21.725321888225153,253.36987010293524 21.681177191901952,253.0253816843324 21.592887798557058,252.68089296566905 21.548743102233857,252.27898908150382 21.460453709121794,251.59001004419406 21.37216431624256,251.30293509108014 21.32801961968653,251.01585992972832 21.239730226574466,250.7861996506981 21.1072961371392,250.09721801325213 20.974862047471106,249.6953115039505 20.886572654591873,249.3508198853524 20.75413856515661,248.3173432290787 20.665849172277376,247.97285041029681 20.445125689497218,247.28386387287173 20.400980993174016,246.8819545051374 20.356836296385154,246.53746043640422 20.26854690350592,246.19296606755233 20.136112814070657,245.50397642989992 20.047823421191424,245.15948116098298 20.003678724635392,244.81498559203465 19.95953402807936,244.47048972314224 19.782955241855234,243.8389131843287 19.738810545532033,243.43700031618937 19.694665848976,243.0925032472005 19.562231759540737,242.74800587815116 19.42979766963981,242.00159388259635 19.297363580437377,241.59967914785375 19.297363580437377,241.3125969443936 19.253218883881345,240.91068150950014 19.07664009789005,240.22168267107918 18.988350704777986,239.99201612485922 18.988350704777986,239.64751605552738 18.900061311898753,239.36043243526365 18.723482525907457,238.6714308965311 18.679337829351425,238.32692967698677 18.54690373991616,237.98242815749836 18.50275904336013,237.69534332872718 18.370324953924865,236.9489217987284 18.326180257136002,236.60441907902714 18.2820355608128,236.2599160594109 18.19374616793357,235.91541273958865 18.017167381942272,235.16898785094963 17.97302268515341,234.82448358106194 17.884733292274177,234.47997901105555 17.840588595718145,234.13547414101777 17.66400980995968,233.38904589333106 17.531575720058754,233.04454007316963 17.487431023735553,232.70003395303502 17.44328632717952,232.3555275327235 17.310852237511426,231.66651379212271 17.222562844632193,231.32200647180434 17.178418148308992,230.97749885127996 17.09012875519693,230.69040893836063 16.913549969205633,229.94397418948938 16.8252605763264,229.6568835263024 16.692826486425474,229.31237445544684 16.648681790102273,229.02528333399096 16.51624770066701,228.4511004658998 16.472103004110977,228.16400871917722 16.383813611231744,227.76207992376294 16.29552421811968,227.4175692027202 16.03065603901632,226.7285468603368 15.942366645904258,226.38403523899615 15.809932556468993,225.6950110961916 15.765787860145792,225.35049857458216 15.677498466800898,225.00598575297045 15.589209073921666,224.66147263124003 15.545064377598464,224.02986446223804 15.456774984486401,223.45567434234545 15.280196198262274,222.76664509813418 15.191906805383042,222.36471081807395 15.14776210882701,221.96277612971608 15.015328019624576,221.21632491031778 14.971183322835714,220.8143890548381 14.83874923340045,220.5272917651455 14.83874923340045,220.12535520939855 14.529736357973889,219.0343824994343 14.441446964861825,218.2879257533641 14.441446964861825,218.00082662978093 14.264868178870529,217.36920782437664 14.176578785991296,217.082108033821 14.088289392879233,216.62274793573306 14.04414469609037,215.93370678817155 14.0,215.53176556431572 14.30901287519373,214.6704615665949 15.236051501939073,214.95756310771685 15.98651134246029,215.3020846817235 16.56039239722304,215.70402613893384 16.781115879537538,215.93370678817155 17.310852237511426,216.3930676865857 17.66400980995968,216.56532788599725 18.458614346804097,216.73758801035 18.85591661534272,216.85242805152666 19.209074187325314,216.96726805943763 19.473942366428673,217.082108033821 20.886572654591873,217.54146759863943 21.416309012565762,217.7711471809016 21.63703249511309,217.88598692198866 21.94604537077248,218.00082662978093 22.25505824619904,218.1730861289252 22.961373390397057,218.46018512759474 23.31453096261248,218.57502466847654 23.976701409788802,218.9195430916734 24.285714285448194,219.09180219064 24.594727161107585,219.14922187375487 25.25689760874957,219.37890052227885 25.654199877055362,219.55115942136035 25.963212752714753,219.72341824526666 26.625383200123906,220.01051611860748 26.934396075783297,220.18277474239585 27.28755364776589,220.35503329138737 27.640711219981313,220.5272917651455 28.347026364179328,220.8143890548381 28.744328632717952,220.87180848771823 29.00919681135565,220.9866473285656 29.406499080127105,221.04406673647463 30.42182709998451,221.33116365113528 30.863274064846337,221.33116365113528 32.496627835324034,220.92922791224555 32.540772531880066,220.8143890548381 32.5849172284361,220.87180848771823 32.62906192522496,220.8143890548381 32.62906192522496,220.8143890548381 32.71735131810419,220.46987228211947 32.67320662131533,220.06793566813576 32.71735131810419,219.78083783667535 32.761496014427394,219.0343824994343 32.805640710983425,218.63244442662108 32.805640710983425,218.11566630427842 32.89393010386266,217.25436793323024 32.761496014427394,216.56532788599725 32.71735131810419,216.2208074122027 32.67320662131533,215.8188664802292 32.5849172284361,215.01498339089449 32.5849172284361,214.61304123344598 32.62906192522496,214.21109866761253 32.62906192522496,213.92399658460636 32.5849172284361,213.12010964390356 32.540772531880066,212.71816556088743 32.540772531880066,212.48848304423154 32.496627835324034,212.14395901927492 32.4083384424448,211.45491006903467 32.45248313900083,210.99554343521595 32.45248313900083,210.65101810975466 32.4083384424448,210.3064924843493 32.32004904956557,209.04322928973124 32.32004904956557,208.6987022635294 32.27590435300954,208.2967536871729 32.27590435300954,208.0096473111189 32.231759656453505,207.20574834931176 32.09932556678541,206.80379825553973 32.09932556678541,206.17216156888753 32.05518087046221,205.77021042481647 32.09932556678541,205.36825887224404 32.01103617390618,205.08115037030075 32.09932556678541,204.27724545591627 32.09932556678541,203.93271427825675 32.14347026357427,203.53076085817884 32.14347026357427,202.78427485143766 32.71735131810419,202.09520959467045 33.15879828296602,202.03778743566363 33.73267933772877,202.15263174523716 34.08583690971136,202.15263174523716 34.43899448169395,202.21005388742196 34.792152053909376,202.15263174523716 35.54261189419776,202.2674760213995 36.160637645516545,202.21005388742196 36.60208461037837,202.3248981468787 36.95524218236096,202.38232026420883 37.74984671967104,202.5545865658496 38.36787247075699,202.7268527924898 38.76517473929562,202.78427485143766 39.07418761472218,202.84169690209092 39.559779276605695,202.89911894415854 40.398528510006145,202.9565409779898 40.884120171424,202.9565409779898 41.281422440195456,202.9565409779898 41.94359288760461,203.0713850207685 44.15082771284506,203.0713850207685 44.592274678172544,203.0713850207685 44.98957694647834,203.12880702954135 46.18148375209421,203.6456047341926 46.44635193119757,203.6456047341926 46.75536480685696,203.6456047341926 47.196811771718785,203.70302665952477 49.31575720408,203.93271427825675 49.713059472618625,203.87529238601564 50.11036174115725,203.76044857676607 50.860821581678465,203.6456047341926 51.25812385021709,203.6456047341926 51.56713672564365,203.6456047341926 52.36174126295373,203.70302665952477 53.5536480685696,203.76044857676607 53.950950337108225,203.81787048562546 54.259963212534785,203.87529238601564 54.65726548107341,203.93271427825675 55.27529123239219,203.87529238601564 55.71673819725402,203.93271427825675 56.202329858671874,203.93271427825675 56.95278969942592,203.93271427825675 57.350091967964545,203.93271427825675 57.659104843623936,204.04755803736043 58.10055180848576,204.04755803736043 58.80686695268378,204.10497990442673 59.071735131787136,204.16240176334395 59.51318209664896,204.21982361385017 59.910484365420416,204.16240176334395 60.749233598820865,204.21982361385017 61.10239117103629,204.27724545591627 61.587982832686976,204.21982361385017 62.38258736953139,204.3346672897751 63.53034947859123,204.50693274106015 63.92765174736269,204.6217763335735 64.76640098099597,204.67919811725733 65.11955855297856,204.7940416598285 65.91416309005581,204.7940416598285" stroke="#4dd2ff" stroke-linecap="round" stroke-linejoin="round" stroke-width="0.5"><title>2022-08-29 5.6km</title></polyline></svg>