<?xml version="1.0" encoding="utf-8" ?>
<svg baseProfile="full" height="300mm" version="1.1" viewBox="0,0,200,300" width="200mm" xmlns="http://www.w3.org/2000/svg" xmlns:ev="http://www.w3.org/2001/xml-events" xmlns:xlink="http://www.w3.org/1999/xlink"><defs /><rect fill="#222222" height="300" width="200" x="0" y="0" /><text fill="#FFFFFF" style="font-size:12px; font-family:Arial; font-weight:bold;" x="10" y="20">Over 5km Runs</text><text fill="#FFFFFF" style="font-size:4px; font-family:Arial" x="10" y="280">ATHLETE</text><text fill="#FFFFFF" style="font-size:9px; font-family:Arial" x="10" y="290">cvvz</text><text fill="#FFFFFF" style="font-size:4px; font-family:Arial" x="120" y="280">STATISTICS</text><text fill="#FFFFFF" style="font-size:3px; font-family:Arial" x="120" y="285">Number: 2</text><text fill="#FFFFFF" style="font-size:3px; font-family:Arial" x="120" y="290">Weekly: 2.0</text><text fill="#FFFFFF" style="font-size:3px; font-family:Arial" x="141" y="285">Total: 10.8 km</text><text fill="#FFFFFF" style="font-size:3px; font-family:Arial" x="141" y="290">Avg: 5.4 km</text><text fill="#FFFFFF" style="font-size:3px; font-family:Arial" x="167" y="285">Min: 5.1 km</text><text fill="#FFFFFF" style="font-size:3px; font-family:Arial" x="167" y="290">Max: 5.6 km</text><polyline fill="none" points="142.5338825280778,64.48644725373015 142.10206646146253,64.48644725373015 141.6702503953129,64.56668869312853 139.7579221019987,64.32596433954313 139.26441802619956,64.24572286510374 138.64753793156706,64.16548137908103 137.41377774206921,64.08523988112574 135.00794537272304,64.08523988112574 134.51444129715674,64.08523988112574 133.77418518369086,64.08523988112574 132.5404249939602,63.92475685040699 132.10860892781056,63.92475685040699 131.43004082376137,63.84451531781815 128.28395234094933,63.603790649503935 127.54369622748345,63.5235490698833 125.93980798101984,63.28282426221995 125.50799191510305,63.12234099855414 125.19955186755396,63.042099349200726 124.39760774443857,62.88161601580214 123.84241565922275,62.88161601580214 123.47228760225698,62.88161601580214 119.21581494901329,62.15944043820491 116.93335859919898,62.400165735627525 116.37816651375033,62.31992398161674 115.82297442853451,62.23968221573159 115.26778234331869,62.23968221573159 114.09571016323753,62.07919864921132 113.54051807825454,62.07919864921132 112.9236379833892,61.99895684834337 111.87494182237424,61.99895684834337 111.25806172774173,61.99895684834337 110.64118163310923,61.91871503600851 109.4691094532609,61.83847321203211 108.85222935862839,61.83847321203211 108.29703727341257,61.83847321203211 107.49509315029718,61.7582313765306 107.06327708414756,61.7582313765306 106.32302097044885,61.67798952909652 105.76782888523303,61.517505799245555 105.52107684710063,61.5977476699627 104.65744471503422,61.357022023177706 103.42368452530354,61.27678011771059 102.74511642125435,61.27678011771059 101.07954016560689,61.517505799245555 99.72240395727567,61.4372639170615 98.61201978684403,61.27678011771059 98.18020372069441,61.357022023177706 97.62501163547859,61.357022023177706 94.97242722846568,61.517505799245555 94.66398718091659,63.12234099855414 94.54061116231605,64.16548137908103 94.47892315266654,64.80741294223117 94.41723514324985,65.36910244834144 94.35554713383317,66.17151503829518 94.29385912418365,66.5727208966855 94.2321711149998,67.2948907071841 94.2321711149998,67.61585476482287 94.04710708628409,69.6218759008334 94.04710708628409,70.1835605140659 93.86204305826686,71.46740891534137 93.86204305826686,72.10933199746069 93.80035504861735,72.8314945740276 93.67697902978398,73.15245541598415 93.67697902978398,74.51653691602405 93.73866703920066,75.15845645684749 93.73866703920066,75.55965579132317 93.61529102013446,77.48540854256134 93.24516296340153,79.49139385705348 92.50490684946999,80.77522063767537 92.31984282145277,81.41713290958432 92.25815481203608,81.89856662420789 92.01140277390368,82.94167156738695 91.949714764487,83.66381999035366 91.88802675507031,84.38596746971598 91.8263387454208,84.70692160213366 91.14777064137161,85.91049793857383 90.16076249000616,86.07097458536737 89.9140104521066,86.15121289150557 89.48219438572414,86.15121289150557 88.86531429109164,86.15121289150557 86.64454595046118,85.83025959774386 85.96597784641199,85.91049793857383 84.97896969458088,85.91049793857383 84.48546561901458,85.91049793857383 83.80689751496539,85.91049793857383 82.75820135395043,85.83025959774386 80.72249704157002,85.58954450499732 80.16730495612137,85.58954450499732 79.67380088032223,85.50930611765943 78.5017287004739,85.34882930765161 78.0082246249076,85.4290677185636 77.45303253969178,85.4290677185636 76.89784045424312,85.34882930765161 76.03420832194388,85.26859088533092 75.72576827462763,85.26859088533092 75.29395220824517,85.1883524513105 74.98551216092892,85.1883524513105 74.5536960947793,85.10811400547391 73.44331192434765,85.10811400547391 72.94980784878135,85.0278755481122 72.57967979181558,85.0278755481122 70.05047140340321,85.58954450499732 69.80371936573647,86.15121289150557 69.49527931818739,86.71288070699666 69.06346325203776,87.27454795176163 66.65763088292442,88.63859459839296 66.59594287350774,89.200259886391 66.59594287350774,89.60144902812317 66.59594287350774,90.16311333765043 66.65763088292442,91.1259651115979 66.78100690175779,91.60739036963787 67.21282296790741,93.1319009202416 67.27451097755693,94.01451036985964 67.33619898697361,94.41569601709489 67.33619898697361,94.89711840986274 67.3978869963903,95.53901428112295 67.33619898697361,95.85996193723986 67.33619898697361,96.90304053243017 67.3978869963903,97.30422408331651 67.3978869963903,97.70540734298993 67.45957500603981,98.34729995270027 67.52126301568933,99.31013746996177 67.52126301568933,99.87179191387258 67.52126301568933,100.91486293793423 67.58295102487318,101.95793199382024 67.70632704370655,102.35911187599413 67.70632704370655,102.840527350083 67.82970306277275,103.32194240490207 67.8913910719566,104.36500691820402 67.82970306277275,104.84642064524814 67.82970306277275,105.32783395296428 67.8913910719566,105.88948228198569 67.95307908160612,106.85230666096322 68.01476709125564,107.33371822151821 68.01476709125564,107.89536451234017 68.01476709125564,108.3767751645646 68.07645510067232,109.33959521102952 68.07645510067232,109.74076973547926 68.07645510067232,110.86405685485806 68.138143110089,111.26523027289659 68.138143110089,111.74663799005793 68.19983111950569,112.30827979702735 68.2615191291552,113.35132735269144 68.2615191291552,113.91296752920607 68.38489514775574,115.35718250490027 68.38489514775574,115.91882064315723 68.38489514775574,116.40022430743556 68.32320713857189,117.04209520760924 68.44658315717243,118.08513383072568 68.44658315717243,118.56653560849372 68.50827116658911,119.04793696687557 68.50827116658911,119.52933790587122 68.63164718565531,120.57237183541292 68.63164718565531,121.13400467496831 68.69333519530483,121.61540379718645 68.69333519530483,122.17703557678033 68.75502320472151,123.22006451047491 68.75502320472151,123.78169465973042 68.75502320472151,124.26309147605207 68.75502320472151,124.74448787339497 68.8167112141382,125.54681427072501 68.87839922378771,126.02820954978233 68.9400872332044,126.50960440991912 68.9400872332044,127.07123121677432 69.00177524262108,128.03401870082598 69.12515126145445,128.51541181409266 69.12515126145445,129.07703658309765 69.18683927087113,129.55842878803378 69.3102152897045,130.60144379385747 69.37190329935402,131.1630664432887 69.49527931818739,131.64445683144731 69.5569673278369,132.2060784214409 69.74203135631979,133.1688569620601 69.80371936573647,133.73047700308962 69.86540737515315,134.2118651556084 69.98878339375369,134.69325288874097 70.2972234415356,135.65602709748782 70.2972234415356,136.13741357292747 70.48228746978566,136.61879962938838 70.54397547920235,137.1001852665795 70.79072751710191,138.0629552831524 70.85241552675143,138.6245703518507 70.9757915455848,139.02572362322826 71.03747955500148,139.58733771374682 71.28423159290105,140.4698729889351 71.40760761196725,140.87102492089616 71.53098363056779,141.27217656181892 71.65435964963399,141.75355814676732 71.90111168753356,142.8767802142538 72.02448770659976,143.43839039257728 70.17384742246941,144.0 67.95307908160612,143.59885033860337 67.3978869963903,143.43839039257728 66.84269491094165,143.11747036065208 65.67062273132615,142.71632005902939 65.17711865575984,142.55585985659854 64.06673448509537,142.395399607718 63.388166381046176,142.395399607718 62.4011582294479,142.07447897043312 61.96934216329828,141.5930976649979 61.660902115982026,141.35240685520694 61.04402202111669,140.71056418307126 60.79726998344995,140.30941213452024 60.42714192671701,139.90825979504734 59.99532586010173,139.02572362322826 59.810261831851676,138.54433966276702 59.37844576546922,136.37810665363213 59.44013377511874,135.81648930272786 59.62519780336879,134.69325288874097 59.810261831851676,134.1316338259494 60.24207789823413,133.1688569620601 60.48882993590087,132.12584680056898 60.48882993590087,131.403761689784 60.48882993590087,130.2805163093144 60.3654539170675,129.71889276313595 60.11870187916793,128.6758760921075 59.933637850685045,128.19448311871383 59.62519780336879,127.79332198709017 59.19338173721917,126.75030168279773 59.008317708969116,126.188674549805 58.94662969955243,125.30611647362821 59.0700057183858,124.90495324606309 59.37844576546922,123.30029742396437 59.37844576546922,122.01656941237161 59.255069746635854,121.53517063928302 58.82325368048623,120.49213852616958 58.57650164258666,120.0107384257135 58.26806159527041,119.52933790587122 57.71286950982176,118.48630200786283 57.34274145332165,118.08513383072568 56.725861358689144,117.20256281620823 55.553789178607985,115.99905461637536 55.12197311245836,115.11648027104093 54.875221074558794,114.63507548865164 54.751845055492595,114.0734360460192 54.69015704607591,113.03038985276362 54.81353306514211,112.5489832534804 54.751845055492595,111.9873416912742 54.875221074558794,111.42569955834188 54.875221074558794,110.38264836883172 54.998597093624994,109.41983013926074 55.06028510280885,108.93842039548326 55.18366112210788,108.45701023261063 55.30703714070842,107.81512936291983 55.677165197674185,106.85230666096322 55.86222922615707,106.37089468096383 55.98560524499044,105.80924684123602 56.479109320789576,104.84642064524814 56.66417334903963,104.36500691820402 56.84923737728968,103.88359277194832 57.46611747238785,103.08123492979212 57.83624552888796,102.59981966530904 58.206373585620895,102.19863995810738 59.255069746635854,100.99509908934124 59.68688581301831,100.51368200790603 60.057013869751245,100.03226450714283 60.735581973800436,99.06942824803991 61.04402202111669,98.58800948946737 61.29077405924909,97.46469742211048 61.29077405924909,96.90304053243017 61.29077405924909,96.34138307196554 61.22908604959957,95.85996193723986 61.22908604959957,94.65640726598212 61.16739804041572,94.01451036985964 61.04402202111669,93.613324431004 61.04402202111669,93.21213820111006 61.04402202111669,92.24929006124148 61.105710030766204,91.68762787181186 60.92064600228332,90.4840641154442 60.858957992633805,89.52121122326935 60.982334011700004,88.95954626158345 60.982334011700004,88.31764274922898 61.105710030766204,87.19430980877951 61.47583808749914,86.39192773937248 62.21609420096502,86.31168946844991 63.20310235256329,86.79311891988618 63.81998244742863,86.87335712090135 64.25179851357825,87.03383348800708 65.11543064611033,86.31168946844991 65.17711865575984,85.6697828809265 65.17711865575984,85.1883524513105 65.30049467436038,83.66381999035366 65.23880666517653,83.10214907635236 65.11543064611033,82.62071640993236 65.11543064611033,81.49737189110601 65.05374263692647,81.01593782688724 65.23880666517653,79.65187236765632 64.93036661762744,77.0842106063501 64.80699059879407,76.44229330174858 64.80699059879407,75.8806150489836 64.74530258914456,74.43629692099057 64.68361457972787,73.79437654127833 64.62192657031119,73.23269559751498 64.62192657031119,72.7512543341727 64.5602385608945,71.7081301586004 64.62192657031119,71.22668756730855 64.62192657031119,70.42428231646772 64.49855055171065,69.70211659470806 64.5602385608945,68.7392274979502 64.49855055171065,68.1775414168369 64.49855055171065,67.53561376786092 64.43686254206114,66.2517562333378 64.37517453264445,63.92475685040699 64.25179851357825,63.36306587635772 64.25179851357825,62.88161601580214 64.12842249474488,62.31992398161674 63.943358466262,61.357022023177706 64.00504647567868,60.23363428498851 64.00504647567868,59.83242382487515 63.943358466262,59.270728691713884 63.88167045661248,58.9497597879963 63.943358466262,57.906609563098755 63.943358466262,57.42515494895633 64.06673448509537,56.46224446274573 64.00504647567868,55.41908954276005 63.943358466262,54.69690421386622 64.00504647567868,54.13520386128221 64.00504647567868,53.09204454894643 64.00504647567868,52.45009937800933 63.943358466262,52.04888326762011 64.00504647567868,51.48718022374669 63.943358466262,50.283528921369 63.88167045661248,49.80206766654737 63.81998244742863,49.40084963373374 63.758294438011944,48.99963130947435 63.634918418945745,48.197193787491415 63.634918418945745,47.71573071490275 63.634918418945745,46.91329132876126 63.634918418945745,46.59231524798088 63.634918418945745,45.62938588735415 63.69660642836243,45.14792057784507 63.634918418945745,43.6232776636607 63.634918418945745,43.141810606524814 63.44985439069569,41.45667260274058 63.44985439069569,41.05544851132436 63.44985439069569,39.93201950547518 63.511542399879545,39.53079430689104 63.44985439069569,38.888833383622114 63.44985439069569,38.407362201600336 63.44985439069569,37.123436999099795 63.388166381046176,36.96294613898499 63.32647837139666,36.88270069134887 63.388166381046176,36.802455232536886 63.388166381046176,36.802455232536886 63.32647837139666,36.802455232536886 63.26479036221281,36.802455232536886 63.26479036221281,36.72220976167591 63.57323040952906,36.802455232536886 64.19011050392874,36.641964279231615 64.68361457972787,36.641964279231615 65.30049467436038,36.56171878502937 66.34919083537534,36.56171878502937 66.84269491094165,36.4012277618167 68.44658315717243,36.0 69.00177524262108,36.0 69.4335913087707,36.0 69.86540737515315,36.080245575576555 71.59267163998447,36.240736692154314 72.14786372543313,36.32098223268986 73.01149585773237,36.32098223268986 73.44331192434765,36.481473279418424 73.87512799049728,36.481473279418424 74.49200808536261,36.56171878502937 75.66408026497811,36.481473279418424 76.28096035984345,36.56171878502937 78.19328865339048,36.96294613898499 78.7484807386063,36.802455232536886 80.84587306040339,36.72220976167591 81.4627531550359,36.802455232536886 81.83288121176884,36.88270069134887 83.00495339185,37.20368241175311 84.17702557169832,37.36417320166947 84.60884163761511,37.36417320166947 85.16403372306377,37.36417320166947 85.6575377988629,37.283927812590264 87.19973803544417,37.123436999099795 87.81661813007668,37.123436999099795 88.24843419645913,37.20368241175311 92.13477879320271,38.327116963861044 92.44321884028614,38.407362201600336 93.3685389822349,38.48760742758168 93.55360301071778,38.407362201600336 94.60229917149991,38.56785264209611 95.03411523788236,38.64809784508543 96.08281139889732,38.48760742758168 97.06981955026276,38.407362201600336 97.56332362629473,38.407362201600336 98.11851571127772,38.407362201600336 100.33928405214101,38.56785264209611 101.75810826988891,38.80858821584843 102.37498836475424,38.80858821584843 103.23862049705349,38.728343036200386 103.85550059191883,39.0493236843613 105.64445286639966,38.969078539696056 106.01458092336543,38.969078539696056 109.65417348174378,39.20981393853435 112.30675788898952,39.53079430689104 113.35545404977165,39.61103936977452 114.40415021078661,39.77152946096612 115.45284637180157,39.85177448898321 117.2417986462824,39.77152946096612 118.29049480729736,39.85177448898321 119.89438305329531,40.09250950306887 121.3748952804599,40.25299945450388 122.91709551727399,40.49373429385014 123.28722357400693,40.57397921697702 123.47228760225698,40.57397921697702 124.89111182000488,40.65422412857879 125.44630390545353,40.73446902842261 126.49500006623566,40.57397921697702 127.05019215168431,40.65422412857879 127.60538423690014,40.57397921697702 128.03720030281693,40.65422412857879 128.345640350366,40.65422412857879 129.2709604925476,40.65422412857879 129.7644645681139,40.814713916624896 130.4430326721631,40.73446902842261 130.93653674819507,40.73446902842261 132.10860892781056,40.73446902842261 132.60211300337687,40.814713916624896 133.2806811076589,40.894958793127444 134.32937726890668,40.97520365798846 136.1183295431547,41.29618300119182 136.61183361895382,41.37642780790338 139.1410420073662,41.5369173863437 139.6962340923492,41.5369173863437 140.251426177565,41.61716215789784 142.04037845227867,41.61716215789784 142.71894655632786,41.69740691786865 143.2741386415437,41.77765166637255 145.3098429539241,41.77765166637255" stroke="#4dd2ff" stroke-linecap="round" stroke-linejoin="round" stroke-width="0.5"><title>2022-08-30 5.1km</title></polyline><polyline fill="none" points="152.1459227465093,160.21850411145715 152.80809319438413,160.64917586871888 153.53648068662733,162.19959160499275 153.6689147760626,163.663869413489 153.80134886596352,164.43907384882914 154.0,167.28148144530132 154.0,170.5545399892726 151.74862047820352,172.2771951276809 150.88779889629222,172.10492983908625 149.89454322494566,172.10492983908625 149.431023911573,171.9326645003166 148.305334151024,171.67426639818586 147.8418148374185,171.5020009346772 141.02145922742784,170.98520424286835 139.10116492956877,170.81293857900891 138.3065603922587,170.81293857900891 136.9160024523735,170.81293857900891 135.59166155732237,170.6406728651491 134.9957081542816,170.5545399892726 133.4064990801271,170.38227420044132 132.6781115878839,170.2961412872537 131.1551195587963,170.12387542327633 130.55916615575552,170.12387542327633 129.8969957078807,169.95160950924037 127.44696505204774,169.6070775311091 125.52667075418867,169.77934354520403 123.54015941126272,169.86547653353773 122.81177191901952,169.77934354520403 122.21581851621158,169.69321054429747 120.89147762092762,169.6070775311091 120.16309012868442,169.6070775311091 119.30226854700595,169.6070775311091 118.0441446963232,169.52094450523145 117.44819129351526,169.43481146695558 116.85223789070733,169.26254535309272 115.59411404025741,169.0902791887056 114.86572654801421,169.0902791887056 112.81299816071987,169.34867841622327 112.08461066824384,169.26254535309272 111.4886572654359,169.0902791887056 110.36296750442125,169.0902791887056 109.23727774387226,168.83187984878896 107.91293684858829,168.5734803962987 106.25751072959974,168.14281439199112 105.46290619228967,167.97054790251423 104.99938687914982,167.88441463926574 102.81422440218739,167.5398814607761 102.01961986511014,167.5398814607761 101.42366646206938,167.5398814607761 99.90067443274893,167.7121480749338 99.17228694050573,167.7121480749338 97.91416309028864,167.5398814607761 97.45064377668314,167.45374813472154 96.06008583679795,167.36761479615234 93.87492335983552,167.28148144530132 93.27896995679475,167.28148144530132 91.8884120171424,167.45374813472154 90.89515634579584,167.7121480749338 90.29920294275507,167.5398814607761 89.70324953994714,167.62601477414137 88.97486204770394,167.45374813472154 87.71673819748685,167.36761479615234 87.18700183928013,167.45374813472154 85.99509503366426,167.28148144530132 83.94236664590426,167.19534808181925 82.5518087062519,167.19534808181925 81.82342121377587,167.28148144530132 80.49908031872474,167.19534808181925 79.70447578141466,167.10921470593894 77.78418148332275,167.28148144530132 77.05579399107955,167.28148144530132 76.3936235436704,167.19534808181925 75.13549969345331,167.02308131754398 73.41385652963072,167.5398814607761 73.3476394850295,169.77934354520403 73.28142243996263,171.41586818383075 73.3476394850295,172.10492983908625 73.3476394850295,173.05238830833696 73.3476394850295,174.2582423532731 73.3476394850295,175.03343294502702 73.48007357423194,175.7224903984461 73.54629061929882,177.01447096664924 73.61250766390003,177.617394269153 73.61250766390003,179.08163402351784 73.61250766390003,179.7706867750967 73.61250766390003,181.14878987765405 73.7449417533353,183.04367641650606 73.7449417533353,183.90498647867935 73.94359288783744,186.14438678883016 73.94359288783744,186.57503972557606 73.94359288783744,187.9531270225998 74.00980993220583,188.55603920837166 74.0760269772727,189.3312111183186 74.0760269772727,190.62316205073148 74.14224402187392,191.22607152332785 74.14224402187392,193.29318506305572 74.0760269772727,193.9822213090374 74.0760269772727,194.58512736787088 72.61925199255347,196.73835829121526 71.62599632120691,196.65222920419183 69.77191906794906,196.47997099283384 68.38136112783104,196.13545442040777 67.5867565907538,196.04932524589822 66.26241569546983,195.36029140040046 65.00429184525274,194.92964484076947 64.14347026334144,194.84351549117127 61.89209074177779,194.2406096950872 60.89883507043123,192.86253700271482 59.90557939885184,192.4318886300316 58.51502145919949,191.82898038299754 57.98528510075994,191.57059094676515 57.25689760851674,191.31220139790094 55.2041692212224,190.3647720895824 54.608215818181634,190.19251205254113 54.078479460207745,190.0202519657323 52.75413856515661,189.76186174195027 51.76088289357722,189.3312111183186 51.23114653560333,188.98669039446395 50.76762722246349,188.72829972032923 50.30410790909082,188.46990893344628 49.24463519314304,187.6947358981124 48.45003065583296,188.55603920837166 48.582464745268226,189.15895078133326 48.71489883470349,190.10638201551046 48.78111587953754,190.53703207615763 48.9135499689728,191.1399416360655 49.0459840586409,191.65672077133786 49.310852237511426,192.77640735334717 49.50950337201357,193.9822213090374 49.70815450628288,194.58512736787088 49.840588595718145,195.27416211360833 49.97302268515341,196.13545442040777 50.03923972975463,196.56610010471195 50.17167381942272,197.16900353791425 50.2378908644896,197.68577742145862 50.43654199875891,198.6331950390013 50.76762722246349,200.2696400875575 51.16492949076928,201.47543881408637 51.29736358043738,202.0783372586011 51.363580625038594,202.68123509018915 51.628448804374784,204.05928497650893 51.76088289357722,204.57605285849422 51.89331698301248,205.17894815199543 52.02575107291341,205.6095872723963 52.29061925178394,206.81537514639786 52.29061925178394,207.41826816444518 52.48927038582042,208.62405236257473 52.5554874308873,209.0546889823163 52.75413856515661,210.26046985469293 52.95278969942592,210.94948639598442 53.15144083369523,211.7246290485491 53.41630901279859,212.84427775855875 53.548743102001026,213.44716465042438 53.614960146835074,214.05005092953797 53.747394236736,214.39455709973117 53.94604537077248,215.2558216501493 54.0122624153737,215.77257978031412 54.078479460207745,216.28933746018447 54.27713059470989,216.8922208515578 54.4757817289792,218.01185980986338 54.93930104211904,219.82050289498875 55.071735131787136,220.3372570493375 55.13795217615552,220.94013632752467 55.13795217615552,221.37076400831575 55.46903740032576,222.92102107102983 55.601471489761025,223.4377725251834 55.66768853436224,224.12677376403008 55.99877375829965,225.33252400660422 56.064990803133696,225.93539820902515 56.19742489233613,226.45214703772217 56.329858982004225,226.96889541653218 56.52851011627354,228.08851536014117 56.66094420594163,228.6052623136202 56.859595339978114,229.72487916931277 57.058246474247426,230.24162469792645 57.058246474247426,230.7583697764785 57.19068056391552,231.2751144047361 57.45554874301888,232.65309788048035 57.587982832221314,233.25596464483533 57.72041692212224,233.77270709798904 57.91906805615872,234.28944910131395 58.18393623526208,235.32293175772065 58.316370324697345,235.83967241091887 58.38258736953139,236.35641261388082 58.51502145919949,237.04539885150734 58.71367259323597,238.16499978111824 58.71367259323597,238.68173795909388 58.77988963807002,239.1984756871825 58.91232372773811,239.7152129652677 59.37584304087795,241.4376673087827 59.50827713031322,241.95440263662022 59.574494175380096,242.47113751462894 59.64071121998131,243.07399430352962 59.97179644391872,244.62419466255233 60.302881667623296,245.57153733237647 60.567749846493825,247.1217311663786 60.76640098076314,247.724583230156 60.96505211479962,249.10252850485267 61.16370324953459,249.7914999423665 61.29613733896986,250.39434929401614 61.49478847323917,251.3416827514884 61.62722256267443,251.8584094545804 61.69343960727565,252.46125670609763 62.090741875814274,253.58082854840904 62.2231759657152,254.78651893918868 62.35561005491763,255.30324264243245 62.35561005491763,255.90608639415586 62.68669527862221,257.0256517366506 63.21643163682893,258.31745527643943 62.48804414458573,259.6092560039833 61.95830778637901,259.695375952404 61.36235438357107,259.695375952404 60.832618025597185,259.78149588848464 59.70692826458253,259.695375952404 57.91906805615872,259.695375952404 57.25689760851674,259.695375952404 56.594727161107585,259.5231360431062 56.26364193740301,259.5231360431062 55.071735131787136,259.5231360431062 54.4757817289792,259.5231360431062 51.694665848976,258.23133512801724 51.23114653560333,257.88685440900736 50.70141017739661,257.62849373870995 49.70815450628288,257.0256517366506 49.17841814830899,256.76729069126304 49.0459840586409,255.30324264243245 49.575720416847616,255.38936321582878 50.105456774821505,255.47548377688508 51.16492949076928,255.56160432548495 51.76088289357722,255.64772486139555 52.356836296617985,255.7338453847915 52.88657265459187,255.8199658956146 54.078479460207745,255.8199658956146 54.7406499076169,255.7338453847915 55.27038626582362,255.7338453847915 56.52851011627354,255.8199658956146 56.859595339978114,255.8199658956146 57.323114653583616,255.7338453847915 57.98528510075994,255.7338453847915 59.110974861774594,255.64772486139555 59.50827713031322,254.95876022364246 59.442060085712,254.44203622028 59.37584304087795,253.92531176726334 59.37584304087795,253.49470771232154 59.309625996043906,252.46125670609763 59.17719190660864,252.03065158904064 59.110974861774594,251.42780389991822 58.77988963807002,250.39434929401614 58.64745554863475,249.27477143937722 58.25015328009613,247.8107049037353 58.18393623526208,247.20785292732762 58.05150214582682,246.6911221743212 57.91906805615872,246.17439097131137 57.587982832221314,245.0548051543883 57.52176578785293,244.53807252651313 57.389331697952,244.02133944851812 57.323114653583616,243.41848362219753 57.19068056391552,242.38501506630564 57.058246474247426,241.95440263662022 56.99202942964621,241.52378989459248 56.859595339978114,241.1792994760326 56.66094420594163,240.1458270198782 56.46229307143949,239.54296725592576 56.329858982004225,239.02622982801404 56.13120784773491,237.47601484361803 55.99877375829965,236.95927561545977 55.66768853436224,235.9257958093076 55.601471489761025,235.32293175772065 55.53525444492698,234.80619065457722 55.40282035549171,234.28944910131395 55.2041692212224,233.25596464483533 55.071735131787136,232.73922174144536 55.00551808695309,232.22247838805197 54.93930104211904,231.70573458465515 54.67443286301568,230.7583697764785 54.608215818181634,230.1555004742695 54.54199877358042,229.63875487080077 54.343347639311105,229.1220088172122 54.14469650480896,228.00239082385087 53.94604537077248,227.39951872173697 53.94604537077248,226.96889541653218 53.87982832593843,226.36602226423565 53.614960146835074,225.33252400660422 53.48252605739981,224.98802418727428 53.48252605739981,224.4712740832474 53.350091967964545,224.04064865288092 53.085223788861185,223.00714634475298 53.01900674402714,222.49039451545104 52.820355609990656,221.9736422362039 52.75413856515661,221.5430149930762 52.5554874308873,220.4233826980926 52.48927038582042,219.9066286185407 52.4230533412192,219.3898740891018 52.29061925178394,218.87311910936842 52.02575107291341,217.75348177639535 51.95953402784653,217.2367253715638 51.827099938644096,216.71996851655422 51.76088289357722,216.203211211483 51.49601471493952,215.0835688399966 51.29736358043738,214.566810109769 51.23114653560333,214.05005092953797 51.16492949076928,213.5332912990707 50.96627835649997,212.49977068818407 50.833844267064705,211.98300970770651 50.76762722246349,211.4662482769345 50.63519313279539,211.0356134075555 50.370324953692034,209.91596128424862 50.2378908644896,209.4853252894245 50.03923972975463,208.96856168314116 49.97302268515341,208.53792500094278 49.77437155111693,207.6766506988206 49.70815450628288,207.24601307878038 49.575720416847616,206.6431198856444 49.44328632717952,206.12635380402207 49.0459840586409,205.09282029047608 48.9135499689728,204.57605285849422 48.71489883470349,203.5425166442874 48.648681790335104,203.0257478618296 48.51624770043418,202.50897862942657 48.383813610998914,201.9922089468455 48.3175965663977,201.0447966933134 48.1851624767296,200.18351151351817 47.92029429739341,199.14996764721582 47.78786020819098,198.54706622706726 47.72164316335693,197.9441641945741 47.52299202932045,196.82448736543301 47.4567749844864,196.22158358222805 47.25812385021709,195.79093764774734 47.25812385021709,195.18803281406872 46.79460453684442,193.55157374910777 46.66217044717632,192.4318886300316 46.66217044717632,192.00123994465685 46.39730226830579,191.0538117365213 46.26486817887053,190.62316205073148 46.132434089202434,189.93412190361414 46.066217044368386,188.90056018222822 46.0,188.29764834645903 46.46351931290701,187.00569234986324 47.854077253025025,187.43634466157528 48.97976701403968,187.9531270225998 49.840588595718145,188.55603920837166 50.17167381942272,188.90056018222822 50.96627835649997,189.58960152982036 51.49601471493952,189.84799182898132 52.68792152055539,190.10638201551046 53.2838749231305,190.27864207729 53.813611281104386,190.45090208912734 54.21091354964301,190.62316205073148 56.329858982004225,191.31220139790094 57.12446351908147,191.65672077133786 57.45554874301888,191.82898038299754 57.91906805615872,192.00123994465685 58.38258736953139,192.25962919340236 59.442060085712,192.69027769134846 59.97179644391872,192.86253700271482 60.96505211479962,193.3793146374519 61.42857142840512,193.63770328596001 61.89209074177779,193.72383281058865 62.88534641312435,194.06835078337463 63.48129981593229,194.32673913199687 63.94481912907213,194.58512736787088 64.93807480041869,195.01577417791123 65.40159411402419,195.27416211360833 65.93133047176525,195.53254993708106 66.4610668302048,195.79093764774734 67.52053954638541,196.22158358222805 68.11649294919334,196.30771273153368 68.5137952172663,196.47997099283384 69.10974862007424,196.56610010471195 70.63274064986035,196.99674547667382 71.2949110972695,196.99674547667382 73.7449417533353,196.39384186832467 73.81115879793651,196.22158358222805 73.87737584277056,196.30771273153368 73.94359288783744,196.22158358222805 73.94359288783744,196.22158358222805 74.0760269772727,195.7048084231792 74.00980993220583,195.1019035021891 74.0760269772727,194.67125675501302 74.14224402187392,193.55157374910777 74.20846106647514,192.94866663991706 74.20846106647514,192.17349945643218 74.3408951559104,190.8815518998308 74.14224402187392,189.84799182898132 74.0760269772727,189.3312111183186 74.00980993220583,188.72829972032923 73.87737584277056,187.52247508632718 73.87737584277056,186.91956185013987 73.94359288783744,186.31664800137514 73.94359288783744,185.88599487690954 73.87737584277056,184.68016446585534 73.81115879793651,184.0772483412875 73.81115879793651,183.73272456630366 73.7449417533353,183.21593852888327 73.61250766390003,182.18236510356655 73.67872470850125,181.49331515282393 73.67872470850125,180.976527164632 73.61250766390003,180.45973872649483 73.48007357423194,178.5648439345532 73.48007357423194,178.04805339529412 73.41385652963072,177.4451305307448 73.41385652963072,177.01447096664924 73.3476394850295,175.80862252396764 73.14898835029453,175.20569738332415 73.14898835029453,174.2582423532731 73.08277130569331,173.65531563718105 73.14898835029453,173.05238830833696 73.0165542610921,172.62172555545112 73.14898835029453,171.41586818383075 73.14898835029453,170.89907141739968 73.21520539536141,170.2961412872537 73.21520539536141,169.1764122771565 74.0760269772727,168.14281439199112 74.73819742444903,168.0566811534809 75.59901900659315,168.22894761781208 76.12875536456704,168.22894761781208 76.65849172254093,168.3150808311184 77.18822808074765,168.22894761781208 78.31391784129664,168.40121403208468 79.24095646850765,168.3150808311184 79.9031269159168,168.4873472203035 80.43286327365786,168.5734803962987 81.62477007950656,168.83187984878896 82.5518087062519,169.0902791887056 83.14776210905984,169.1764122771565 83.61128142243251,169.26254535309272 84.33966891490854,169.34867841622327 85.59779276512563,169.43481146695558 86.32618025736883,169.43481146695558 86.92213366017677,169.43481146695558 87.91538933152333,169.6070775311091 91.22624156950042,169.6070775311091 91.8884120171424,169.6070775311091 92.48436541995034,169.69321054429747 94.27222562837414,170.4684071012889 94.66952789691277,170.4684071012889 95.13304721028544,170.4684071012889 95.7952176576946,170.5545399892726 98.97363580600359,170.89907141739968 99.56958920904435,170.81293857900891 100.16554261185229,170.6406728651491 101.29123237286694,170.4684071012889 101.88718577544205,170.4684071012889 102.35070508881472,170.4684071012889 103.54261189443059,170.5545399892726 105.3304721028544,170.6406728651491 105.92642550589517,170.72680572845275 106.38994481880218,170.81293857900891 106.98589822184294,170.89907141739968 107.91293684858829,170.81293857900891 108.57510729599744,170.89907141739968 109.30349478824064,170.89907141739968 110.4291845492553,170.89907141739968 111.02513795206323,170.89907141739968 111.4886572654359,171.0713370560552 112.15082771284506,171.0713370560552 113.21030042902566,171.157469856611 113.60760269756429,171.24360264500137 114.26977314520627,171.3297354207607 114.86572654801421,171.24360264500137 116.1238503982313,171.3297354207607 116.65358675667085,171.41586818383075 117.38197424914688,171.3297354207607 118.57388105429709,171.5020009346772 120.29552421811968,171.76039911154658 120.89147762092762,171.9326645003166 122.14960147161037,172.01879717584234 122.67933782958426,172.1910624896991 123.8712446349673,172.1910624896991" stroke="#4dd2ff" stroke-linecap="round" stroke-linejoin="round" stroke-width="0.5"><title>2022-08-29 5.6km</title></polyline></svg>