<?xml version="1.0" encoding="utf-8" ?>
<svg baseProfile="full" height="200mm" version="1.1" viewBox="0,0,200,200" width="200mm" xmlns="http://www.w3.org/2000/svg" xmlns:ev="http://www.w3.org/2001/xml-events" xmlns:xlink="http://www.w3.org/1999/xlink"><defs /><rect fill="#1a1a1a" height="200" width="200" x="0" y="0" /><text alignment-baseline="middle" fill="#e1ed5e" style="dominant-baseline: central; font-size:9.0px; font-family:Arial;" text-anchor="middle" x="100.0" y="100.0">2022</text><line stroke="#e1ed5e" stroke-width="0.3" x1="100.0" x2="100.0" y1="15.0" y2="10.0" /><path d="M 100.0 14.0 a86.0,86.0 0 0,1 42.46469731375804,11.215312516191453" fill="none" id="id1" stroke="none" /><text fill="#e1ed5e" style="font-size:6.75px; font-family:Arial;" text-anchor="middle"><textPath startOffset="22.20632615414155" xlink:href="#id1">January</textPath></text><line stroke="#e1ed5e" stroke-width="0.3" x1="143.23703022742887" x2="145.7803849466894" y1="26.81831364943548" y2="22.513508569990506" /><path d="M 143.74570117128098 25.957352633546492 a86.0,86.0 0 0,1 28.547481713284135,27.462654790039103" fill="none" id="id2" stroke="none" /><text fill="#e1ed5e" style="font-size:6.75px; font-family:Arial;" text-anchor="middle"><textPath startOffset="19.985693538727396" xlink:href="#id2">February</textPath></text><line stroke="#e1ed5e" stroke-width="0.3" x1="172.23445277983987" x2="176.4835382374775" y1="55.19839476539836" y2="52.563006222186495" /><path d="M 173.08426987136738 54.67131705675599 a86.0,86.0 0 0,1 12.851231095245387,41.99856678651699" fill="none" id="id3" stroke="none" /><text fill="#e1ed5e" style="font-size:6.75px; font-family:Arial;" text-anchor="middle"><textPath startOffset="22.20632615414155" xlink:href="#id3">March</textPath></text><line stroke="#e1ed5e" stroke-width="0.3" x1="184.98032266829074" x2="189.97916517819016" y1="98.17113171792111" y2="98.06355123074" /><path d="M 185.9800911702706 98.14961562048488 a86.0,86.0 0 0,1 -9.607161424134198,41.387399972396054" fill="none" id="id4" stroke="none" /><text fill="#e1ed5e" style="font-size:6.75px; font-family:Arial;" text-anchor="middle"><textPath startOffset="21.466115282336823" xlink:href="#id4">April</textPath></text><line stroke="#e1ed5e" stroke-width="0.3" x1="174.80103733775053" x2="179.2010983576182" y1="140.37084112569926" y2="142.7455964860345" /><path d="M 175.68104954172406 140.8457921977663 a86.0,86.0 0 0,1 -30.038265399797805,32.042727171017184" fill="none" id="id5" stroke="none" /><text fill="#e1ed5e" style="font-size:6.75px; font-family:Arial;" text-anchor="middle"><textPath startOffset="22.206326154141568" xlink:href="#id5">May</textPath></text><line stroke="#e1ed5e" stroke-width="0.3" x1="143.8653032363475" x2="146.44561519142675" y1="172.8068346515853" y2="177.08958963109032" /><path d="M 144.38136562736335 173.6633856474863 a86.0,86.0 0 0,1 -40.68145358897372,12.25698825130547" fill="none" id="id6" stroke="none" /><text fill="#e1ed5e" style="font-size:6.75px; font-family:Arial;" text-anchor="middle"><textPath startOffset="21.466115282336833" xlink:href="#id6">June</textPath></text><line stroke="#e1ed5e" stroke-width="0.3" x1="102.19456741930631" x2="102.32365962044197" y1="184.97166512339345" y2="189.96999836594603" /><path d="M 102.22038585953345 185.97133177190398 a86.0,86.0 0 0,1 -42.740103519485714,-10.115201625700543" fill="none" id="id7" stroke="none" /><text fill="#e1ed5e" style="font-size:6.75px; font-family:Arial;" text-anchor="middle"><textPath startOffset="22.20632615414155" xlink:href="#id7">July</textPath></text><line stroke="#e1ed5e" stroke-width="0.3" x1="58.666819895761336" x2="56.23545636021788" y1="174.27360380694188" y2="178.64263932499728" /><path d="M 58.180547188652646 175.14741091055294 a86.0,86.0 0 0,1 -31.652253787137756,-30.449443065178592" fill="none" id="id8" stroke="none" /><text fill="#e1ed5e" style="font-size:6.75px; font-family:Arial;" text-anchor="middle"><textPath startOffset="22.20632615414155" xlink:href="#id8">August</textPath></text><path d="M 82.44556493220864 111.52570212397912 l -29.34444862548211 19.266662387231595 a56.10414426641281,56.10414426641281 0 0,0 -0.5230913615122017,-0.8118494094025607 l 29.671744850371354 -18.758691377907585" fill="#ff6309" stroke="none" /><path d="M 82.24976979558568 111.22182372390057 l -27.005002136056827 17.072757375226793 a52.94916563482988,52.94916563482988 0 0,0 -0.4804137311196856,-0.7745799016270486 l 27.29488050684447 -16.605381142234478" fill="#ff0b01" stroke="none" /><path d="M 82.05923443525364 110.91462005526583 l -29.22156614807192 17.777518510845766 a55.20438703660112,55.20438703660112 0 0,0 -0.4869003916445305,-0.8160730628544364 l 29.523247415414684 -17.27188335410522" fill="#ff4b06" stroke="none" /><line stroke="#e1ed5e" stroke-width="0.3" x1="26.63291911575756" x2="22.317208475507996" y1="142.92168965132927" y2="145.44649492493687" /><path d="M 25.769776987707644 143.4266507060508 a86.0,86.0 0 0,1 -11.730757126820373,-40.83630448921669" fill="none" id="id9" stroke="none" /><text fill="#e1ed5e" style="font-size:6.75px; font-family:Arial;" text-anchor="middle"><textPath startOffset="21.46611528233685" xlink:href="#id9">September</textPath></text><path d="M 81.87401531095188 110.60418214915194 l -27.338614791048244 15.993815283587718 a52.673363983303794,52.673363983303794 0 0,0 -0.45110473182554556,-0.7865391236688527 l 27.609871519026168 -15.520856314060559" fill="#ff0300" stroke="none" /><path d="M 81.69416730710424 110.29060199501025 l -33.37523644866563 18.76184932662834 a59.28724850599013,59.28724850599013 0 0,0 -0.4924330837216671,-0.8939090838129107 l 33.69324594183882 -18.184569724417607" fill="#ffb710" stroke="none" /><path d="M 81.51974371655577 109.97397251340807 l -31.27124154461228 16.87739059687854 a56.53500895034486,56.53500895034486 0 0,0 -0.45483085522116096,-0.8603685705953182 l 31.557124908058327 -16.3366070111971" fill="#ff6f0a" stroke="none" /><path d="M 81.18737489456691 109.33194174019688 l -29.0661883805511 14.418188586480424 a53.445761958829046,53.445761958829046 0 0,0 -0.4017256891879097,-0.8276739069457933 l 29.310067326353728 -13.915725723569345" fill="#ff1902" stroke="none" /><path d="M 80.87730276802145 108.67885076344099 l -31.625091571728937 14.353071996151291 a55.72977242434714,55.72977242434714 0 0,0 -0.3889378568897594,-0.8769521906909047 l 31.86747051334998 -13.806571468967691" fill="#ff5908" stroke="none" /><path d="M 80.73074385275274 108.34839909993369 l -31.595225802418344 13.688621534505481 a55.43307498642445,55.43307498642445 0 0,0 -0.3717949629205322,-0.8788134658875594 l 31.826171746531184 -13.142733542951763" fill="#ff5107" stroke="none" /><path d="M 80.58989483394504 108.01547362559985 l -47.342565931059696 19.550285036696568 a72.22042750654094,72.22042750654094 0 0,0 -0.46460909301654874,-1.153121666552668 l 47.67207763833363 -18.732464002301093" fill="#30ff37" stroke="none" /><path d="M 80.45479744820244 107.68017299344265 l -33.15110269811331 13.026531854563855 a56.618620723700445,56.618620723700445 0 0,0 -0.34862435909999817,-0.9101481921301451 l 33.37042133680682 -12.453960095600552" fill="#ff710a" stroke="none" /><path d="M 80.20201598880116 107.00284435728193 l -59.3939520335965 21.008533071845783 a84.0,84.0 0 0,0 -0.4704366762270862,-1.3673091876428125 l 59.746779540766816 -19.983051181113673" fill="#4dd2ff" stroke="none" /><path d="M 80.0844068197444 106.66101706037122 l -29.928544273884047 10.009972698079514 a52.55815767389051,52.55815767389051 0 0,0 -0.2795787373563501,-0.8604548773058863 l 30.096415262256645 -9.493318920795824" fill="#ff0000" stroke="none" /><path d="M 79.97269907076064 106.31721596034903 l -33.552970996511796 10.583621060331405 a56.182593671323495,56.182593671323495 0 0,0 -0.2829816315044067,-0.9248003449640263 l 33.73017940052233 -10.004493742815331" fill="#ff6509" stroke="none" /><line stroke="#e1ed5e" stroke-width="0.3" x1="15.007084014347285" x2="10.007500721073583" y1="101.09737516637583" y2="101.16192664675087" /><path d="M 14.007167355692545 101.11028546245083 a86.0,86.0 0 0,1 10.666146001902534,-42.60595125391555" fill="none" id="id10" stroke="none" /><text fill="#e1ed5e" style="font-size:6.75px; font-family:Arial;" text-anchor="middle"><textPath startOffset="22.20632615414155" xlink:href="#id10">October</textPath></text><line stroke="#e1ed5e" stroke-width="0.3" x1="26.266209847984243" x2="21.928928074336255" y1="57.711370442889674" y2="55.22380399835377" /><path d="M 25.398753493254645 57.213857153982495 a86.0,86.0 0 0,1 29.58750427330803,-30.492523968695096" fill="none" id="id11" stroke="none" /><text fill="#e1ed5e" style="font-size:6.75px; font-family:Arial;" text-anchor="middle"><textPath startOffset="21.46611528233685" xlink:href="#id11">November</textPath></text><line stroke="#e1ed5e" stroke-width="0.3" x1="56.762969772571076" x2="54.21961505331055" y1="26.818313649435495" y2="22.513508569990535" /><path d="M 56.25429882871897 25.957352633546506 a86.0,86.0 0 0,1 42.265352541879196,-11.944610805530505" fill="none" id="id12" stroke="none" /><text fill="#e1ed5e" style="font-size:6.75px; font-family:Arial;" text-anchor="middle"><textPath startOffset="22.20632615414155" xlink:href="#id12">December</textPath></text></svg>