<?xml version="1.0" encoding="utf-8" ?>
<svg baseProfile="full" height="200mm" version="1.1" viewBox="0,0,200,200" width="200mm" xmlns="http://www.w3.org/2000/svg" xmlns:ev="http://www.w3.org/2001/xml-events" xmlns:xlink="http://www.w3.org/1999/xlink"><defs /><rect fill="#1a1a1a" height="200" width="200" x="0" y="0" /><text alignment-baseline="middle" fill="#e1ed5e" style="dominant-baseline: central; font-size:9.0px; font-family:Arial;" text-anchor="middle" x="100.0" y="100.0">2023</text><line stroke="#e1ed5e" stroke-width="0.3" x1="100.0" x2="100.0" y1="15.0" y2="10.0" /><path d="M 100.0 14.0 a86.0,86.0 0 0,1 42.46469731375804,11.215312516191453" fill="none" id="id13" stroke="none" /><text fill="#e1ed5e" style="font-size:6.75px; font-family:Arial;" text-anchor="middle"><textPath startOffset="22.20632615414155" xlink:href="#id13">January</textPath></text><path d="M 100.0 79.0 l 0.0 -58.537352555701176 a79.53735255570118,79.53735255570118 0 0,0 1.3691047772334723,0.01178431705945279 l -1.007624297960944 58.52867961525028" fill="#43ffdd" stroke="none" /><line stroke="#e1ed5e" stroke-width="0.3" x1="143.23703022742887" x2="145.7803849466894" y1="26.81831364943548" y2="22.513508569990506" /><path d="M 143.74570117128098 25.957352633546492 a86.0,86.0 0 0,1 28.547481713284135,27.462654790039103" fill="none" id="id14" stroke="none" /><text fill="#e1ed5e" style="font-size:6.75px; font-family:Arial;" text-anchor="middle"><textPath startOffset="19.985693538727396" xlink:href="#id14">February</textPath></text><path d="M 112.48926042617603 83.11751280151076 l 26.85576823488981 -36.3025629989158 a66.1564875491481,66.1564875491481 0 0,0 0.909663820650103,0.6851399304048893 l -27.476678209298296 35.83490647900506" fill="#8bff24" stroke="none" /><path d="M 115.9244219780498 86.31012108654704 l 30.872686727937573 -26.540576707964814 a61.7127129750983,61.7127129750983 0 0,0 0.6855676642860145,0.8114958753419576 l -31.324965005710705 26.00522188299375" fill="#e9ff1a" stroke="none" /><line stroke="#e1ed5e" stroke-width="0.3" x1="172.23445277983987" x2="176.4835382374775" y1="55.19839476539836" y2="52.563006222186495" /><path d="M 173.08426987136738 54.67131705675599 a86.0,86.0 0 0,1 12.851231095245387,41.99856678651699" fill="none" id="id15" stroke="none" /><text fill="#e1ed5e" style="font-size:6.75px; font-family:Arial;" text-anchor="middle"><textPath startOffset="22.20632615414155" xlink:href="#id15">March</textPath></text><path d="M 119.61058180528143 92.48833698450437 l 54.5358493828581 -20.889483386848283 a79.3997378768021,79.3997378768021 0 0,0 0.4778934543714997,1.2805168640385032 l -54.88734742573123 19.947643385780445" fill="#42ffdb" stroke="none" /><path d="M 119.85752413597 93.16781622104841 l 57.94783208822847 -19.937542853162206 a82.28178243774573,82.28178243774573 0 0,0 0.4492691355997318,1.343257531388267 l -58.28243851759998 18.937112218851627" fill="#49efff" stroke="none" /><path d="M 120.08093135843002 93.85539295169968 l 46.09477971435163 -14.104640032234016 a69.20445609436436,69.20445609436436 0 0,0 0.33875285619489387,1.1421062280236525 l -46.33073846765823 13.309104417463834" fill="#51ff2b" stroke="none" /><path d="M 120.53481517161879 95.60439243477599 l 49.15129697696586 -10.521147184763873 a71.26474442988204,71.26474442988204 0 0,0 0.2464426627112303,1.2017419457101968 l -49.32511893559209 9.673529582890264" fill="#30ff34" stroke="none" /><path d="M 120.87857604477298 97.74499172005257 l 58.76492379065032 -6.346955339972611 a80.10668414154652,80.10668414154652 0 0,0 0.13626861950485103,1.3722064018973943 l -58.8654695358374 5.334473407370782" fill="#44ffe8" stroke="none" /><path d="M 120.91429891909075 98.10471618934814 l 43.69017014788677 -3.9592659780878323 a64.8692005242464,64.8692005242464 0 0,0 0.09120460141405128,1.1129271500354518 l -43.75184923312032 3.206624910844612" fill="#a6ff21" stroke="none" /><line stroke="#e1ed5e" stroke-width="0.3" x1="184.98032266829074" x2="189.97916517819016" y1="98.17113171792111" y2="98.06355123074" /><path d="M 185.9800911702706 98.14961562048488 a86.0,86.0 0 0,1 -9.607161424134198,41.387399972396054" fill="none" id="id16" stroke="none" /><text fill="#e1ed5e" style="font-size:6.75px; font-family:Arial;" text-anchor="middle"><textPath startOffset="21.466115282336823" xlink:href="#id16">April</textPath></text><path d="M 120.92983693683757 101.71520430193887 l 62.789510810512716 5.145612905816612 a84.0,84.0 0 0,0 -0.13050161489169865,1.4400744458057178 l -62.69163459934395 -6.2256687401709" fill="#4dd2ff" stroke="none" /><path d="M 120.8583938346157 102.4346265915055 l 41.02632445448509 4.7886611625320485 a62.30484927916121,62.30484927916121 0 0,0 -0.13350591353165986,1.0641734884873775 l -40.93781703170659 -5.494152405306822" fill="#dcff1b" stroke="none" /><path d="M 120.81339534386255 102.79330883721812 l 42.11780132493287 5.652514868499041 a63.4954128440367,63.4954128440367 0 0,0 -0.15470490734561038,1.0820057616529433 l -42.014262366570655 -6.376666102132393" fill="#c2ff1e" stroke="none" /><line stroke="#e1ed5e" stroke-width="0.3" x1="174.80103733775053" x2="179.2010983576182" y1="140.37084112569926" y2="142.7455964860345" /><path d="M 175.68104954172406 140.8457921977663 a86.0,86.0 0 0,1 -30.038265399797805,32.042727171017184" fill="none" id="id17" stroke="none" /><text fill="#e1ed5e" style="font-size:6.75px; font-family:Arial;" text-anchor="middle"><textPath startOffset="22.206326154141568" xlink:href="#id17">May</textPath></text><path d="M 111.7513745106137 117.40417183066458 l 22.476566457709303 33.288533561755685 a61.166186107470516,61.166186107470516 0 0,0 -0.8776628312267131,0.5816670670456462 l -21.900228927742628 -33.67049864989265" fill="#f5ff19" stroke="none" /><path d="M 111.1453310114006 117.79835938074945 l 21.562803671036267 34.434376924388744 a61.62857142857143,61.62857142857143 0 0,0 -0.9039467561170206,0.5552779279608006 l -20.96687771498694 -34.80044331917792" fill="#eaff1a" stroke="none" /><line stroke="#e1ed5e" stroke-width="0.3" x1="143.8653032363475" x2="146.44561519142675" y1="172.8068346515853" y2="177.08958963109032" /><path d="M 144.38136562736335 173.6633856474863 a86.0,86.0 0 0,1 -40.68145358897372,12.25698825130547" fill="none" id="id18" stroke="none" /><text fill="#e1ed5e" style="font-size:6.75px; font-family:Arial;" text-anchor="middle"><textPath startOffset="21.466115282336833" xlink:href="#id18">June</textPath></text><line stroke="#e1ed5e" stroke-width="0.3" x1="102.19456741930631" x2="102.32365962044197" y1="184.97166512339345" y2="189.96999836594603" /><path d="M 102.22038585953345 185.97133177190398 a86.0,86.0 0 0,1 -42.740103519485714,-10.115201625700543" fill="none" id="id19" stroke="none" /><text fill="#e1ed5e" style="font-size:6.75px; font-family:Arial;" text-anchor="middle"><textPath startOffset="22.20632615414155" xlink:href="#id19">July</textPath></text><path d="M 94.46302465271185 120.25689768951611 l -8.350144473369623 30.548812606249115 a52.669462647444306,52.669462647444306 0 0,0 -0.8724792594154342,-0.24657135367056793 l 8.874754900889672 -30.400552459240025" fill="#ff3d05" stroke="none" /><path d="M 93.76903079525671 120.05430185196036 l -14.542972460679447 46.80638757277055 a70.01363040629096,70.01363040629096 0 0,0 -1.1478189762656137,-0.3674953892716602 l 15.346512782036001 -46.549119336839176" fill="#42ff2d" stroke="none" /><line stroke="#e1ed5e" stroke-width="0.3" x1="58.666819895761336" x2="56.23545636021788" y1="174.27360380694188" y2="178.64263932499728" /><path d="M 58.180547188652646 175.14741091055294 a86.0,86.0 0 0,1 -31.652253787137756,-30.449443065178592" fill="none" id="id20" stroke="none" /><text fill="#e1ed5e" style="font-size:6.75px; font-family:Arial;" text-anchor="middle"><textPath startOffset="22.20632615414155" xlink:href="#id20">August</textPath></text><path d="M 89.4739219176387 118.17145234162733 l -16.400658413367186 28.312898726185036 a53.720052424639576,53.720052424639576 0 0,0 -0.7961622040279761,-0.4703866636332071 l 16.885588488423544 -28.02639349025808" fill="#ff5808" stroke="none" /><path d="M 88.54995079064634 117.60387380957326 l -29.59519365945094 45.50111925503817 a75.27916120576671,75.27916120576671 0 0,0 -1.0801674251871731,-0.7158760696846317 l 30.374035783378073 -44.98494516426222" fill="#39ff8a" stroke="none" /><path d="M 85.70375840098266 115.38237550388516 l -19.982617868059165 21.50076504150988 a50.35281782437745,50.35281782437745 0 0,0 -0.6298038514243478,-0.5955188518960703 l 20.349757553874333 -21.153611552867876" fill="#ff0000" stroke="none" /><path d="M 84.19399662182784 113.82643327865904 l -31.993173810287143 27.98629561672478 a63.506422018348616,63.506422018348616 0 0,0 -0.7126554304277655,-0.8289792678829422 l 32.47017175028569 -27.431439249680306" fill="#c2ff1e" stroke="none" /><path d="M 83.50135304334701 112.99209946851258 l -41.359367927846264 32.56903572063565 a73.6435124508519,73.6435124508519 0 0,0 -0.7756877576307017,-1.0026809904996774 l 41.91386250269504 -31.852276736022716" fill="#35ff68" stroke="none" /><path d="M 82.44556493220864 111.52570212397912 l -29.950015748313433 19.664259133972536 a56.82857142857143,56.82857142857143 0 0,0 -0.529845614616403,-0.8223321602125706 l 30.284066226306884 -19.145805373838517" fill="#ffa50f" stroke="none" /><path d="M 82.24976979558568 111.22182372390057 l -33.374154981982684 21.099381801189715 a60.48440366972478,60.48440366972478 0 0,0 -0.5487817927466582,-0.8848109858344633 l 33.7324014143973 -20.52177448398999" fill="#fffa17" stroke="none" /><line stroke="#e1ed5e" stroke-width="0.3" x1="26.63291911575756" x2="22.317208475507996" y1="142.92168965132927" y2="145.44649492493687" /><path d="M 25.769776987707644 143.4266507060508 a86.0,86.0 0 0,1 -11.730757126820373,-40.83630448921669" fill="none" id="id21" stroke="none" /><text fill="#e1ed5e" style="font-size:6.75px; font-family:Arial;" text-anchor="middle"><textPath startOffset="21.46611528233685" xlink:href="#id21">September</textPath></text><line stroke="#e1ed5e" stroke-width="0.3" x1="15.007084014347285" x2="10.007500721073583" y1="101.09737516637583" y2="101.16192664675087" /><path d="M 14.007167355692545 101.11028546245083 a86.0,86.0 0 0,1 10.666146001902534,-42.60595125391555" fill="none" id="id22" stroke="none" /><text fill="#e1ed5e" style="font-size:6.75px; font-family:Arial;" text-anchor="middle"><textPath startOffset="22.20632615414155" xlink:href="#id22">October</textPath></text><line stroke="#e1ed5e" stroke-width="0.3" x1="26.266209847984243" x2="21.928928074336255" y1="57.711370442889674" y2="55.22380399835377" /><path d="M 25.398753493254645 57.213857153982495 a86.0,86.0 0 0,1 29.58750427330803,-30.492523968695096" fill="none" id="id23" stroke="none" /><text fill="#e1ed5e" style="font-size:6.75px; font-family:Arial;" text-anchor="middle"><textPath startOffset="21.46611528233685" xlink:href="#id23">November</textPath></text><line stroke="#e1ed5e" stroke-width="0.3" x1="56.762969772571076" x2="54.21961505331055" y1="26.818313649435495" y2="22.513508569990535" /><path d="M 56.25429882871897 25.957352633546506 a86.0,86.0 0 0,1 42.265352541879196,-11.944610805530505" fill="none" id="id24" stroke="none" /><text fill="#e1ed5e" style="font-size:6.75px; font-family:Arial;" text-anchor="middle"><textPath startOffset="22.20632615414155" xlink:href="#id24">December</textPath></text></svg>